{
.appVersion = "3436";
.formatVersion = 3;
DisplayStrings = (
"अाआाइाईाउाऊाओऔ/CR काखागघाङा/CR/CR चाछाजाझाञाहा/CR/CR टाठाङडाढागणात/CR/CR ाताथादाधानाप/CR/CR ापाफाबाभमाया/CR/CR यारालावाशाषासाहा/CR/CR/CR/CR",
"क झ क  कव क  कक  व कपषणउअआ/CR णनमभगपचकजञ/CR पफालतरसखय/CR घधढछवटठडदढऊ/CR ङाडाइाईझाकहञ फम"
);
customParameters = (
{
name = glyphOrder;
value = (
.notdef,
a,
b,
c,
d,
e,
f,
g,
h,
i,
j,
k,
l,
m,
n,
o,
p,
q,
r,
s,
t,
u,
v,
w,
x,
y,
z,
"candrabinduinverted-deva",
"candrabindu-deva",
"anusvara-deva",
"visarga-deva",
"ashort-deva",
"a-deva",
"aa-deva",
"i-deva",
"ii-deva",
"u-deva",
"uu-deva",
"vocalicr-deva",
"vocalicl-deva",
"ecandra-deva",
"eshort-deva",
"e-deva",
"ai-deva",
"ocandra-deva",
"oshort-deva",
"o-deva",
"au-deva",
"ka-deva",
"kha-deva",
"ga-deva",
"gha-deva",
"nga-deva",
"ca-deva",
"cha-deva",
"ja-deva",
"jha-deva",
"nya-deva",
"tta-deva",
"ttha-deva",
"dda-deva",
"ddha-deva",
"nna-deva",
"ta-deva",
"tha-deva",
"da-deva",
"dha-deva",
"na-deva",
"nnna-deva",
"pa-deva",
"pha-deva",
"ba-deva",
"bha-deva",
"ma-deva",
"ya-deva",
"ra-deva",
"rra-deva",
"la-deva",
"lla-deva",
"llla-deva",
"va-deva",
"sha-deva",
"ssa-deva",
"sa-deva",
"ha-deva",
"oesign-deva",
"ooesign-deva",
"nukta-deva",
"avagraha-deva",
"aasign-deva",
"isign-deva",
"iisign-deva",
"usign-deva",
"uusign-deva",
"vocalicrsign-deva",
"vocalicrrsign-deva",
"esigncandra-deva",
"esignshort-deva",
"esign-deva",
"aisign-deva",
"osigncandra-deva",
"osignshort-deva",
"osign-deva",
"ausign-deva",
"virama-deva",
"esignprishthamatra-deva",
"awsign-deva",
"om-deva",
"esigncandralong-deva",
"uesign-deva",
"uuesign-deva",
"qa-deva",
"khha-deva",
"ghha-deva",
"za-deva",
"dddha-deva",
"rha-deva",
"fa-deva",
"yya-deva",
"vocalicrr-deva",
"vocalicll-deva",
"vocaliclsign-deva",
"vocalicllsign-deva",
"zero-deva",
"one-deva",
"two-deva",
"three-deva",
"four-deva",
"five-deva",
"six-deva",
"seven-deva",
"eight-deva",
"nine-deva",
"abbreviation-deva",
"dothigh-deva",
"acandra-deva",
"oe-deva",
"ooe-deva",
"aw-deva",

glyphs = (
{
color = 7;
glyphname = a;
layers = (
{
associatedMasterId = "7A0DE5E5-1E54-4CA9-B3AD-4FF2FC8A5BCD";
layerId = "CFAF5A85-C354-4224-9FA4-8EE9BD28BD49";
name = "1";
shapes = (
{
attr = {
strokeWidth = 80;
};
closed = 0;
nodes = (
(361,278,l),
(361,382,o),
(282,400,o),
(220,400,cs),
(86,400,o),
(40,317,o),
(40,210,cs),
(40,129,o),
(66,40,o),
(186,40,cs),
(264,40,o),
(360,77,o),
(360,141,c)
);
},
{
attr = {
strokeWidth = 80;
};
closed = 0;
nodes = (
(360,438,l),
(360,0,l)
);
}
);
width = 480;
},
{
layerId = "7A0DE5E5-1E54-4CA9-B3AD-4FF2FC8A5BCD";
shapes = (
{
attr = {
strokeWidth = 80;
};
closed = 0;
nodes = (
(361,278,l),
(361,382,o),
(282,400,o),
(220,400,cs),
(86,400,o),
(40,317,o),
(40,210,cs),
(40,129,o),
(66,40,o),
(186,40,cs),
(264,40,o),
(360,77,o),
(360,141,c)
);
},
{
attr = {
strokeWidth = 80;
};
closed = 0;
nodes = (
(360,438,l),
(360,0,l)
);
}
);
width = 480;
}
);
unicode = 97;
},
{
color = 7;
glyphname = b;
layers = (
{
associatedMasterId = "7A0DE5E5-1E54-4CA9-B3AD-4FF2FC8A5BCD";
guides = (
{
pos = (0,1001);
},
{
pos = (0,1000);
}
);
layerId = "CFAF5A85-C354-4224-9FA4-8EE9BD28BD49";
name = "1";
shapes = (
{
attr = {
strokeWidth = 80;
};
closed = 0;
nodes = (
(119,640,l),
(119,0,l)
);
},
{
attr = {
strokeWidth = 80;
};
closed = 0;
nodes = (
(235,35,l),
(346,35,o),
(397,121,o),
(397,217,cs),
(397,319,o),
(355,405,o),
(231,403,c)
);
},
{
attr = {
strokeWidth = 80;
};
closed = 0;
nodes = (
(119,98,l),
(145,59,o),
(187,35,o),
(246,35,c)
);
},
{
attr = {
strokeWidth = 80;
};
closed = 0;
nodes = (
(250,403,l),
(190,403,o),
(148,383,o),
(123,348,c)
);
}
);
width = 480;
},
{
guides = (
{
pos = (0,1001);
},
{
pos = (0,1000);
}
);
layerId = "7A0DE5E5-1E54-4CA9-B3AD-4FF2FC8A5BCD";
shapes = (
{
attr = {
strokeWidth = 80;
};
closed = 0;
nodes = (
(119,640,l),
(119,0,l)
);
},
{
attr = {
strokeWidth = 80;
};
closed = 0;
nodes = (
(235,35,l),
(346,35,o),
(397,121,o),
(397,217,cs),
(397,319,o),
(355,405,o),
(231,403,c)
);
},
{
attr = {
strokeWidth = 80;
};
closed = 0;
nodes = (
(119,98,l),
(145,59,o),
(187,35,o),
(246,35,c)
);
},
{
attr = {
strokeWidth = 80;
};
closed = 0;
nodes = (
(250,403,l),
(190,403,o),
(148,383,o),
(123,348,c)
);
}
);
width = 480;
}
);
unicode = 98;
},
{
color = 7;
glyphname = c;
layers = (
{
associatedMasterId = "7A0DE5E5-1E54-4CA9-B3AD-4FF2FC8A5BCD";
layerId = "CFAF5A85-C354-4224-9FA4-8EE9BD28BD49";
name = "1";
shapes = (
{
attr = {
strokeWidth = 80;
};
closed = 0;
nodes = (
(244,403,l),
(123,406,o),
(80,320,o),
(80,219,cs),
(80,123,o),
(131,38,o),
(241,38,c)
);
},
{
attr = {
strokeWidth = 80;
};
closed = 0;
nodes = (
(231,38,l),
(290,38,o),
(331,62,o),
(357,101,c)
);
},
{
attr = {
strokeWidth = 80;
};
closed = 0;
nodes = (
(353,349,l),
(327,384,o),
(286,404,o),
(226,403,c)
);
}
);
width = 400;
},
{
layerId = "7A0DE5E5-1E54-4CA9-B3AD-4FF2FC8A5BCD";
shapes = (
{
attr = {
strokeWidth = 80;
};
closed = 0;
nodes = (
(244,403,l),
(123,406,o),
(80,320,o),
(80,219,cs),
(80,123,o),
(131,38,o),
(241,38,c)
);
},
{
attr = {
strokeWidth = 80;
};
closed = 0;
nodes = (
(231,38,l),
(290,38,o),
(331,62,o),
(357,101,c)
);
},
{
attr = {
strokeWidth = 80;
};
closed = 0;
nodes = (
(353,349,l),
(327,384,o),
(286,404,o),
(226,403,c)
);
}
);
width = 400;
}
);
unicode = 99;
},
{
color = 7;
glyphname = d;
layers = (
{
associatedMasterId = "7A0DE5E5-1E54-4CA9-B3AD-4FF2FC8A5BCD";
layerId = "CFAF5A85-C354-4224-9FA4-8EE9BD28BD49";
name = "1";
shapes = (
{
attr = {
strokeWidth = 80;
};
closed = 0;
nodes = (
(359,0,l),
(359,639,l)
);
},
{
attr = {
strokeWidth = 80;
};
closed = 0;
nodes = (
(242,402,l),
(119,404,o),
(77,318,o),
(77,216,cs),
(77,120,o),
(128,35,o),
(238,35,c)
);
},
{
attr = {
strokeWidth = 80;
};
closed = 0;
nodes = (
(228,35,l),
(287,35,o),
(329,59,o),
(354,98,c)
);
},
{
attr = {
strokeWidth = 80;
};
closed = 0;
nodes = (
(351,348,l),
(325,382,o),
(283,402,o),
(224,402,c)
);
}
);
width = 479;
},
{
layerId = "7A0DE5E5-1E54-4CA9-B3AD-4FF2FC8A5BCD";
shapes = (
{
attr = {
strokeWidth = 80;
};
closed = 0;
nodes = (
(359,0,l),
(359,639,l)
);
},
{
attr = {
strokeWidth = 80;
};
closed = 0;
nodes = (
(242,402,l),
(119,404,o),
(77,318,o),
(77,216,cs),
(77,120,o),
(128,35,o),
(238,35,c)
);
},
{
attr = {
strokeWidth = 80;
};
closed = 0;
nodes = (
(228,35,l),
(287,35,o),
(329,59,o),
(354,98,c)
);
},
{
attr = {
strokeWidth = 80;
};
closed = 0;
nodes = (
(351,348,l),
(325,382,o),
(283,402,o),
(224,402,c)
);
}
);
width = 479;
}
);
unicode = 100;
},
{
color = 7;
glyphname = f;
layers = (
{
associatedMasterId = "7A0DE5E5-1E54-4CA9-B3AD-4FF2FC8A5BCD";
layerId = "CFAF5A85-C354-4224-9FA4-8EE9BD28BD49";
name = "1";
shapes = (
{
attr = {
strokeWidth = 80;
};
closed = 0;
nodes = (
(118,0,l),
(118,209,o),
(118,325,o),
(118,545,cs),
(118,609,o),
(262,637,o),
(262,509,c)
);
},
{
attr = {
strokeWidth = 80;
};
closed = 0;
nodes = (
(9,400,l),
(262,400,l)
);
}
);
width = 241;
},
{
layerId = "7A0DE5E5-1E54-4CA9-B3AD-4FF2FC8A5BCD";
shapes = (
{
attr = {
strokeWidth = 80;
};
closed = 0;
nodes = (
(118,0,l),
(118,209,o),
(118,325,o),
(118,545,cs),
(118,609,o),
(262,637,o),
(262,509,c)
);
},
{
attr = {
strokeWidth = 80;
};
closed = 0;
nodes = (
(9,400,l),
(262,400,l)
);
}
);
width = 241;
}
);
unicode = 102;
},
{
color = 7;
glyphname = g;
layers = (
{
associatedMasterId = "7A0DE5E5-1E54-4CA9-B3AD-4FF2FC8A5BCD";
layerId = "CFAF5A85-C354-4224-9FA4-8EE9BD28BD49";
name = "1";
shapes = (
{
attr = {
strokeWidth = 80;
};
closed = 0;
nodes = (
(250,406,l),
(127,409,o),
(75,325,o),
(75,222,cs),
(75,126,o),
(136,39,o),
(246,39,c)
);
},
{
attr = {
strokeWidth = 80;
};
closed = 0;
nodes = (
(236,39,l),
(295,39,o),
(329,65,o),
(354,103,c)
);
},
{
attr = {
strokeWidth = 80;
};
closed = 0;
nodes = (
(360,354,l),
(334,388,o),
(293,407,o),
(233,406,c)
);
},
{
attr = {
strokeWidth = 80;
};
closed = 0;
nodes = (
(361,440,l),
(361,-134,l)
);
},
{
attr = {
strokeWidth = 80;
};
closed = 0;
nodes = (
(368,-111,l),
(341,-150,o),
(291,-185,o),
(228,-185,cs),
(148,-185,o),
(87,-154,o),
(88,-65,c)
);
}
);
width = 462;
},
{
layerId = "7A0DE5E5-1E54-4CA9-B3AD-4FF2FC8A5BCD";
shapes = (
{
attr = {
strokeWidth = 80;
};
closed = 0;
nodes = (
(250,406,l),
(127,409,o),
(75,325,o),
(75,222,cs),
(75,126,o),
(136,39,o),
(246,39,c)
);
},
{
attr = {
strokeWidth = 80;
};
closed = 0;
nodes = (
(236,39,l),
(295,39,o),
(329,65,o),
(354,103,c)
);
},
{
attr = {
strokeWidth = 80;
};
closed = 0;
nodes = (
(360,354,l),
(334,388,o),
(293,407,o),
(233,406,c)
);
},
{
attr = {
strokeWidth = 80;
};
closed = 0;
nodes = (
(361,440,l),
(361,-134,l)
);
},
{
attr = {
strokeWidth = 80;
};
closed = 0;
nodes = (
(368,-111,l),
(341,-150,o),
(291,-185,o),
(228,-185,cs),
(148,-185,o),
(87,-154,o),
(88,-65,c)
);
}
);
width = 462;
}
);
unicode = 103;
},
{
color = 7;
glyphname = h;
layers = (
{
associatedMasterId = "7A0DE5E5-1E54-4CA9-B3AD-4FF2FC8A5BCD";
layerId = "CFAF5A85-C354-4224-9FA4-8EE9BD28BD49";
name = "1";
shapes = (
{
attr = {
strokeWidth = 80;
};
closed = 0;
nodes = (
(119,640,l),
(119,0,l)
);
},
{
attr = {
strokeWidth = 80;
};
closed = 0;
nodes = (
(379,0,l),
(379,276,l),
(375,380,o),
(309,399,o),
(266,399,cs),
(119,399,o),
(119,210,o),
(119,204,c)
);
}
);
width = 479;
},
{
layerId = "7A0DE5E5-1E54-4CA9-B3AD-4FF2FC8A5BCD";
shapes = (
{
attr = {
strokeWidth = 80;
};
closed = 0;
nodes = (
(119,640,l),
(119,0,l)
);
},
{
attr = {
strokeWidth = 80;
};
closed = 0;
nodes = (
(379,0,l),
(379,276,l),
(375,380,o),
(309,399,o),
(266,399,cs),
(119,399,o),
(119,210,o),
(119,204,c)
);
}
);
width = 479;
}
);
unicode = 104;
},
{
color = 7;
glyphname = i;
layers = (
{
associatedMasterId = "7A0DE5E5-1E54-4CA9-B3AD-4FF2FC8A5BCD";
layerId = "1A4496E7-87E2-4AC6-A404-9EB4126EB0C0";
name = "9";
shapes = (
{
attr = {
strokeWidth = 80;
};
closed = 0;
nodes = (
(119,440,l),
(119,0,l)
);
},
{
attr = {
strokeWidth = 80;
};
closed = 0;
nodes = (
(120,521,l),
(120,639,l)
);
}
);
width = 239;
},
{
associatedMasterId = "7A0DE5E5-1E54-4CA9-B3AD-4FF2FC8A5BCD";
layerId = "20C8746E-BAE5-47DC-825D-4D5B87261277";
name = "8";
shapes = (
{
closed = 1;
nodes = (
(160,436,l),
(73,504,l),
(-6,438,l),
(35,393,l),
(62,417,l),
(80,403,l),
(80,108,l),
(49,65,l),
(171,-3,l),
(248,87,l),
(203,121,l),
(181,95,l),
(160,106,l)
);
},
{
attr = {
strokeWidth = 80;
};
closed = 0;
nodes = (
(124,527,l),
(181,589,l)
);
}
);
width = 239;
},
{
associatedMasterId = "7A0DE5E5-1E54-4CA9-B3AD-4FF2FC8A5BCD";
layerId = "974AC792-5706-4FE2-9082-1FB70AC7F4E2";
name = "7";
shapes = (
{
attr = {
strokeWidth = 80;
};
closed = 0;
nodes = (
(118,500,l),
(118,1,l)
);
},
{
attr = {
strokeWidth = 80;
};
closed = 0;
nodes = (
(121,646,l),
(121,557,l)
);
}
);
width = 242;
},
{
associatedMasterId = "7A0DE5E5-1E54-4CA9-B3AD-4FF2FC8A5BCD";
layerId = "95DA15B1-CE39-4D02-868C-9C6698CCE41F";
name = "6";
shapes = (
{
attr = {
strokeWidth = 80;
};
closed = 0;
nodes = (
(118,500,l),
(118,1,l)
);
},
{
attr = {
strokeWidth = 80;
};
closed = 0;
nodes = (
(121,646,l),
(121,557,l)
);
}
);
width = 242;
},
{
associatedMasterId = "7A0DE5E5-1E54-4CA9-B3AD-4FF2FC8A5BCD";
layerId = "2D9C493B-CF35-40C5-8036-1F45217B5C7C";
name = "5";
shapes = (
{
attr = {
strokeWidth = 80;
};
closed = 0;
nodes = (
(118,500,l),
(118,1,l)
);
},
{
attr = {
strokeWidth = 80;
};
closed = 0;
nodes = (
(121,646,l),
(121,557,l)
);
}
);
width = 242;
},
{
associatedMasterId = "7A0DE5E5-1E54-4CA9-B3AD-4FF2FC8A5BCD";
layerId = "E241559A-740B-4097-BC60-C506F463FC9B";
name = "4";
shapes = (
{
attr = {
strokeWidth = 80;
};
closed = 0;
nodes = (
(118,500,l),
(118,1,l)
);
},
{
attr = {
strokeWidth = 80;
};
closed = 0;
nodes = (
(121,646,l),
(121,557,l)
);
}
);
width = 242;
},
{
associatedMasterId = "7A0DE5E5-1E54-4CA9-B3AD-4FF2FC8A5BCD";
layerId = "03E92927-CB11-4CF0-BD1F-74621C2BCE43";
name = "3";
shapes = (
{
attr = {
strokeWidth = 80;
};
closed = 0;
nodes = (
(118,500,l),
(118,1,l)
);
},
{
attr = {
strokeWidth = 80;
};
closed = 0;
nodes = (
(121,646,l),
(121,557,l)
);
}
);
width = 242;
},
{
associatedMasterId = "7A0DE5E5-1E54-4CA9-B3AD-4FF2FC8A5BCD";
layerId = "82956EC9-8029-4915-A3A7-C866B7025E3C";
name = "2";
shapes = (
{
attr = {
strokeWidth = 80;
};
closed = 0;
nodes = (
(118,500,l),
(118,1,l)
);
},
{
attr = {
strokeWidth = 80;
};
closed = 0;
nodes = (
(121,646,l),
(121,557,l)
);
}
);
width = 242;
},
{
associatedMasterId = "7A0DE5E5-1E54-4CA9-B3AD-4FF2FC8A5BCD";
layerId = "FCED4818-686F-4C44-A33C-F0114355C735";
name = "11";
shapes = (
{
attr = {
strokeWidth = 80;
};
closed = 0;
nodes = (
(119,500,l),
(119,0,l)
);
},
{
attr = {
strokeWidth = 80;
};
closed = 0;
nodes = (
(120,561,l),
(120,679,l)
);
}
);
width = 239;
},
{
associatedMasterId = "7A0DE5E5-1E54-4CA9-B3AD-4FF2FC8A5BCD";
layerId = "C6D8173A-995E-4594-BE39-0C0CDDC5A7CF";
name = "10";
shapes = (
{
attr = {
strokeWidth = 80;
};
closed = 0;
nodes = (
(119,440,l),
(119,0,l)
);
},
{
attr = {
strokeWidth = 80;
};
closed = 0;
nodes = (
(120,521,l),
(120,599,l)
);
}
);
width = 239;
},
{
associatedMasterId = "7A0DE5E5-1E54-4CA9-B3AD-4FF2FC8A5BCD";
layerId = "CFAF5A85-C354-4224-9FA4-8EE9BD28BD49";
name = "1";
shapes = (
{
attr = {
strokeWidth = 80;
};
closed = 0;
nodes = (
(118,500,l),
(118,1,l)
);
},
{
attr = {
strokeWidth = 80;
};
closed = 0;
nodes = (
(121,646,l),
(121,557,l)
);
}
);
width = 242;
},
{
layerId = "7A0DE5E5-1E54-4CA9-B3AD-4FF2FC8A5BCD";
shapes = (
{
attr = {
strokeWidth = 80;
};
closed = 0;
nodes = (
(118,500,l),
(118,1,l)
);
},
{
attr = {
strokeWidth = 80;
};
closed = 0;
nodes = (
(121,646,l),
(121,557,l)
);
}
);
width = 242;
}
);
unicode = 105;
},
{
color = 7;
glyphname = j;
layers = (
{
associatedMasterId = "7A0DE5E5-1E54-4CA9-B3AD-4FF2FC8A5BCD";
layerId = "CFAF5A85-C354-4224-9FA4-8EE9BD28BD49";
name = "1";
shapes = (
{
attr = {
strokeWidth = 80;
};
closed = 0;
nodes = (
(120,400,l),
(120,-140,ls),
(120,-221,o),
(0,-207,o),
(-2,-207,c)
);
},
{
attr = {
strokeWidth = 80;
};
closed = 0;
nodes = (
(120,481,l),
(120,559,l)
);
}
);
width = 240;
},
{
layerId = "7A0DE5E5-1E54-4CA9-B3AD-4FF2FC8A5BCD";
shapes = (
{
attr = {
strokeWidth = 80;
};
closed = 0;
nodes = (
(120,400,l),
(120,-140,ls),
(120,-221,o),
(0,-207,o),
(-2,-207,c)
);
},
{
attr = {
strokeWidth = 80;
};
closed = 0;
nodes = (
(120,481,l),
(120,559,l)
);
}
);
width = 240;
}
);
unicode = 106;
},
{
color = 7;
glyphname = l;
layers = (
{
associatedMasterId = "7A0DE5E5-1E54-4CA9-B3AD-4FF2FC8A5BCD";
layerId = "CFAF5A85-C354-4224-9FA4-8EE9BD28BD49";
name = "1";
shapes = (
{
attr = {
strokeWidth = 80;
};
closed = 0;
nodes = (
(119,640,l),
(119,0,l)
);
}
);
width = 240;
},
{
layerId = "7A0DE5E5-1E54-4CA9-B3AD-4FF2FC8A5BCD";
shapes = (
{
attr = {
strokeWidth = 80;
};
closed = 0;
nodes = (
(119,640,l),
(119,0,l)
);
}
);
width = 240;
}
);
unicode = 108;
},
{
color = 7;
glyphname = m;
layers = (
{
associatedMasterId = "7A0DE5E5-1E54-4CA9-B3AD-4FF2FC8A5BCD";
layerId = "CFAF5A85-C354-4224-9FA4-8EE9BD28BD49";
name = "1";
shapes = (
{
attr = {
strokeWidth = 80;
};
closed = 0;
nodes = (
(119,439,l),
(119,0,l)
);
},
{
attr = {
strokeWidth = 80;
};
closed = 0;
nodes = (
(379,0,l),
(379,276,l),
(375,380,o),
(309,404,o),
(266,404,cs),
(119,404,o),
(119,210,o),
(119,204,c)
);
},
{
attr = {
strokeWidth = 80;
};
closed = 0;
nodes = (
(639,0,l),
(639,276,l),
(635,380,o),
(569,404,o),
(526,404,cs),
(379,404,o),
(379,210,o),
(379,204,c)
);
}
);
width = 763;
},
{
layerId = "7A0DE5E5-1E54-4CA9-B3AD-4FF2FC8A5BCD";
shapes = (
{
attr = {
strokeWidth = 80;
};
closed = 0;
nodes = (
(119,439,l),
(119,0,l)
);
},
{
attr = {
strokeWidth = 80;
};
closed = 0;
nodes = (
(379,0,l),
(379,276,l),
(375,380,o),
(309,404,o),
(266,404,cs),
(119,404,o),
(119,210,o),
(119,204,c)
);
},
{
attr = {
strokeWidth = 80;
};
closed = 0;
nodes = (
(639,0,l),
(639,276,l),
(635,380,o),
(569,404,o),
(526,404,cs),
(379,404,o),
(379,210,o),
(379,204,c)
);
}
);
width = 763;
}
);
unicode = 109;
},
{
color = 7;
glyphname = n;
layers = (
{
associatedMasterId = "7A0DE5E5-1E54-4CA9-B3AD-4FF2FC8A5BCD";
layerId = "1A4496E7-87E2-4AC6-A404-9EB4126EB0C0";
name = "9";
shapes = (
{
attr = {
strokeWidth = 80;
};
closed = 0;
nodes = (
(119,439,l),
(119,0,l)
);
},
{
attr = {
strokeWidth = 80;
};
closed = 0;
nodes = (
(379,0,l),
(379,276,l),
(375,380,o),
(309,404,o),
(266,404,cs),
(119,404,o),
(119,210,o),
(119,204,c)
);
}
);
width = 479;
},
{
associatedMasterId = "7A0DE5E5-1E54-4CA9-B3AD-4FF2FC8A5BCD";
layerId = "20C8746E-BAE5-47DC-825D-4D5B87261277";
name = "8";
shapes = (
{
closed = 1;
nodes = (
(80,108,l),
(49,65,l),
(171,-3,l),
(248,87,l),
(203,121,l),
(181,95,l),
(160,106,l),
(160,333,l),
(300,403,l),
(400,343,l),
(400,108,l),
(368,65,l),
(490,-3,l),
(567,87,l),
(522,121,l),
(500,95,l),
(480,106,l),
(480,353,l),
(500,380,l),
(302,502,l),
(160,426,l),
(77,502,l),
(-6,444,l),
(32,399,l),
(60,421,l),
(80,403,l)
);
}
);
width = 558;
},
{
associatedMasterId = "7A0DE5E5-1E54-4CA9-B3AD-4FF2FC8A5BCD";
layerId = "974AC792-5706-4FE2-9082-1FB70AC7F4E2";
name = "7";
shapes = (
{
attr = {
strokeWidth = 80;
};
closed = 0;
nodes = (
(119,501,l),
(119,0,l)
);
},
{
attr = {
strokeWidth = 80;
};
closed = 0;
nodes = (
(118,323,l),
(118,323,o),
(146,490,o),
(325,471,c),
(445,452,o),
(439,317,o),
(439,317,c),
(439,317,o),
(439,0,o),
(439,0,c)
);
}
);
width = 561;
},
{
associatedMasterId = "7A0DE5E5-1E54-4CA9-B3AD-4FF2FC8A5BCD";
layerId = "95DA15B1-CE39-4D02-868C-9C6698CCE41F";
name = "6";
shapes = (
{
attr = {
strokeWidth = 80;
};
closed = 0;
nodes = (
(119,501,l),
(119,0,l)
);
},
{
attr = {
strokeWidth = 80;
};
closed = 0;
nodes = (
(118,323,l),
(118,323,o),
(146,490,o),
(325,471,c),
(445,452,o),
(439,317,o),
(439,317,c),
(439,317,o),
(439,0,o),
(439,0,c)
);
}
);
width = 561;
},
{
associatedMasterId = "7A0DE5E5-1E54-4CA9-B3AD-4FF2FC8A5BCD";
layerId = "2D9C493B-CF35-40C5-8036-1F45217B5C7C";
name = "5";
shapes = (
{
attr = {
strokeWidth = 80;
};
closed = 0;
nodes = (
(119,501,l),
(119,0,l)
);
},
{
attr = {
strokeWidth = 80;
};
closed = 0;
nodes = (
(118,323,l),
(118,323,o),
(146,490,o),
(325,471,c),
(445,452,o),
(439,317,o),
(439,317,c),
(439,317,o),
(439,0,o),
(439,0,c)
);
}
);
width = 561;
},
{
associatedMasterId = "7A0DE5E5-1E54-4CA9-B3AD-4FF2FC8A5BCD";
layerId = "E241559A-740B-4097-BC60-C506F463FC9B";
name = "4";
shapes = (
{
attr = {
strokeWidth = 80;
};
closed = 0;
nodes = (
(119,501,l),
(119,0,l)
);
},
{
attr = {
strokeWidth = 80;
};
closed = 0;
nodes = (
(118,323,l),
(118,323,o),
(146,490,o),
(325,471,c),
(445,452,o),
(439,317,o),
(439,317,c),
(439,317,o),
(439,0,o),
(439,0,c)
);
}
);
width = 561;
},
{
associatedMasterId = "7A0DE5E5-1E54-4CA9-B3AD-4FF2FC8A5BCD";
layerId = "03E92927-CB11-4CF0-BD1F-74621C2BCE43";
name = "3";
shapes = (
{
attr = {
strokeWidth = 80;
};
closed = 0;
nodes = (
(119,501,l),
(119,0,l)
);
},
{
attr = {
strokeWidth = 80;
};
closed = 0;
nodes = (
(118,323,l),
(118,323,o),
(146,490,o),
(325,471,c),
(445,452,o),
(439,317,o),
(439,317,c),
(439,317,o),
(439,0,o),
(439,0,c)
);
}
);
width = 561;
},
{
associatedMasterId = "7A0DE5E5-1E54-4CA9-B3AD-4FF2FC8A5BCD";
layerId = "82956EC9-8029-4915-A3A7-C866B7025E3C";
name = "2";
shapes = (
{
attr = {
strokeWidth = 80;
};
closed = 0;
nodes = (
(119,501,l),
(119,0,l)
);
},
{
attr = {
strokeWidth = 80;
};
closed = 0;
nodes = (
(118,323,l),
(118,323,o),
(146,490,o),
(325,471,c),
(445,452,o),
(439,317,o),
(439,317,c),
(439,317,o),
(439,0,o),
(439,0,c)
);
}
);
width = 561;
},
{
associatedMasterId = "7A0DE5E5-1E54-4CA9-B3AD-4FF2FC8A5BCD";
layerId = "FCED4818-686F-4C44-A33C-F0114355C735";
name = "11";
shapes = (
{
attr = {
strokeWidth = 80;
};
closed = 0;
nodes = (
(119,500,l),
(119,0,l)
);
},
{
attr = {
strokeWidth = 80;
};
closed = 0;
nodes = (
(440,0,l),
(440,328,l),
(436,443,o),
(333,466,o),
(292,464,cs),
(158,459,o),
(119,308,o),
(119,301,c)
);
}
);
width = 560;
},
{
associatedMasterId = "7A0DE5E5-1E54-4CA9-B3AD-4FF2FC8A5BCD";
layerId = "C6D8173A-995E-4594-BE39-0C0CDDC5A7CF";
name = "10";
shapes = (
{
attr = {
strokeWidth = 80;
};
closed = 0;
nodes = (
(119,439,l),
(119,0,l)
);
},
{
attr = {
strokeWidth = 80;
};
closed = 0;
nodes = (
(379,0,l),
(379,276,l),
(375,380,o),
(309,404,o),
(266,404,cs),
(119,404,o),
(119,210,o),
(119,204,c)
);
}
);
width = 477;
},
{
associatedMasterId = "7A0DE5E5-1E54-4CA9-B3AD-4FF2FC8A5BCD";
layerId = "CFAF5A85-C354-4224-9FA4-8EE9BD28BD49";
name = "1";
shapes = (
{
attr = {
strokeWidth = 80;
};
closed = 0;
nodes = (
(119,439,l),
(119,0,l)
);
},
{
attr = {
strokeWidth = 80;
};
closed = 0;
nodes = (
(379,0,l),
(379,276,l),
(375,380,o),
(309,404,o),
(266,404,cs),
(119,404,o),
(119,210,o),
(119,204,c)
);
}
);
width = 501;
},
{
layerId = "7A0DE5E5-1E54-4CA9-B3AD-4FF2FC8A5BCD";
shapes = (
{
attr = {
strokeWidth = 80;
};
closed = 0;
nodes = (
(119,439,l),
(119,0,l)
);
},
{
attr = {
strokeWidth = 80;
};
closed = 0;
nodes = (
(379,0,l),
(379,276,l),
(375,380,o),
(309,404,o),
(266,404,cs),
(119,404,o),
(119,210,o),
(119,204,c)
);
}
);
width = 501;
}
);
unicode = 110;
},
{
color = 7;
glyphname = o;
layers = (
{
associatedMasterId = "7A0DE5E5-1E54-4CA9-B3AD-4FF2FC8A5BCD";
layerId = "1A4496E7-87E2-4AC6-A404-9EB4126EB0C0";
name = "9";
shapes = (
{
attr = {
strokeWidth = 80;
};
closed = 0;
nodes = (
(253,400,l),
(132,402,o),
(80,317,o),
(80,218,cs),
(80,124,o),
(141,39,o),
(248,39,c)
);
},
{
attr = {
strokeWidth = 80;
};
closed = 0;
nodes = (
(228,39,l),
(346,39,o),
(394,124,o),
(394,218,cs),
(394,312,o),
(358,402,o),
(225,400,c)
);
}
);
width = 478;
},
{
associatedMasterId = "7A0DE5E5-1E54-4CA9-B3AD-4FF2FC8A5BCD";
layerId = "20C8746E-BAE5-47DC-825D-4D5B87261277";
name = "8";
shapes = (
{
closed = 1;
nodes = (
(481,115,l),
(267,0,l),
(49,123,l),
(80,165,l),
(80,401,l),
(292,501,l),
(500,378,l),
(480,351,l)
);
},
{
closed = 1;
nodes = (
(400,165,l),
(400,341,l),
(290,402,l),
(160,342,l),
(160,156,l),
(269,99,l)
);
}
);
width = 564;
},
{
associatedMasterId = "7A0DE5E5-1E54-4CA9-B3AD-4FF2FC8A5BCD";
layerId = "974AC792-5706-4FE2-9082-1FB70AC7F4E2";
name = "7";
shapes = (
{
closed = 1;
nodes = (
(56,117,o),
(152,0,o),
(282,0,cs),
(411,0,o),
(507,117,o),
(507,250,cs),
(507,382,o),
(411,499,o),
(282,499,cs),
(153,499,o),
(56,382,o),
(56,250,cs)
);
},
{
closed = 1;
nodes = (
(136,348,o),
(205,419,o),
(282,419,cs),
(357,419,o),
(427,348,o),
(427,250,cs),
(427,151,o),
(357,80,o),
(282,80,cs),
(206,80,o),
(136,151,o),
(136,250,cs)
);
}
);
width = 564;
},
{
associatedMasterId = "7A0DE5E5-1E54-4CA9-B3AD-4FF2FC8A5BCD";
layerId = "95DA15B1-CE39-4D02-868C-9C6698CCE41F";
name = "6";
shapes = (
{
closed = 1;
nodes = (
(56,117,o),
(152,0,o),
(282,0,cs),
(411,0,o),
(507,117,o),
(507,250,cs),
(507,382,o),
(411,499,o),
(282,499,cs),
(153,499,o),
(56,382,o),
(56,250,cs)
);
},
{
closed = 1;
nodes = (
(136,348,o),
(205,419,o),
(282,419,cs),
(357,419,o),
(427,348,o),
(427,250,cs),
(427,151,o),
(357,80,o),
(282,80,cs),
(206,80,o),
(136,151,o),
(136,250,cs)
);
}
);
width = 564;
},
{
associatedMasterId = "7A0DE5E5-1E54-4CA9-B3AD-4FF2FC8A5BCD";
layerId = "2D9C493B-CF35-40C5-8036-1F45217B5C7C";
name = "5";
shapes = (
{
closed = 1;
nodes = (
(56,117,o),
(152,0,o),
(282,0,cs),
(411,0,o),
(507,117,o),
(507,250,cs),
(507,382,o),
(411,499,o),
(282,499,cs),
(153,499,o),
(56,382,o),
(56,250,cs)
);
},
{
closed = 1;
nodes = (
(136,348,o),
(205,419,o),
(282,419,cs),
(357,419,o),
(427,348,o),
(427,250,cs),
(427,151,o),
(357,80,o),
(282,80,cs),
(206,80,o),
(136,151,o),
(136,250,cs)
);
}
);
width = 564;
},
{
associatedMasterId = "7A0DE5E5-1E54-4CA9-B3AD-4FF2FC8A5BCD";
layerId = "E241559A-740B-4097-BC60-C506F463FC9B";
name = "4";
shapes = (
{
closed = 1;
nodes = (
(56,117,o),
(152,0,o),
(282,0,cs),
(411,0,o),
(507,117,o),
(507,250,cs),
(507,382,o),
(411,499,o),
(282,499,cs),
(153,499,o),
(56,382,o),
(56,250,cs)
);
},
{
closed = 1;
nodes = (
(136,348,o),
(205,419,o),
(282,419,cs),
(357,419,o),
(427,348,o),
(427,250,cs),
(427,151,o),
(357,80,o),
(282,80,cs),
(206,80,o),
(136,151,o),
(136,250,cs)
);
}
);
width = 564;
},
{
associatedMasterId = "7A0DE5E5-1E54-4CA9-B3AD-4FF2FC8A5BCD";
layerId = "03E92927-CB11-4CF0-BD1F-74621C2BCE43";
name = "3";
shapes = (
{
closed = 1;
nodes = (
(56,117,o),
(152,0,o),
(282,0,cs),
(411,0,o),
(507,117,o),
(507,250,cs),
(507,382,o),
(411,499,o),
(282,499,cs),
(153,499,o),
(56,382,o),
(56,250,cs)
);
},
{
closed = 1;
nodes = (
(136,348,o),
(205,419,o),
(282,419,cs),
(357,419,o),
(427,348,o),
(427,250,cs),
(427,151,o),
(357,80,o),
(282,80,cs),
(206,80,o),
(136,151,o),
(136,250,cs)
);
}
);
width = 564;
},
{
associatedMasterId = "7A0DE5E5-1E54-4CA9-B3AD-4FF2FC8A5BCD";
layerId = "82956EC9-8029-4915-A3A7-C866B7025E3C";
name = "2";
shapes = (
{
closed = 1;
nodes = (
(56,117,o),
(152,0,o),
(282,0,cs),
(411,0,o),
(507,117,o),
(507,250,cs),
(507,382,o),
(411,499,o),
(282,499,cs),
(153,499,o),
(56,382,o),
(56,250,cs)
);
},
{
closed = 1;
nodes = (
(136,348,o),
(205,419,o),
(282,419,cs),
(357,419,o),
(427,348,o),
(427,250,cs),
(427,151,o),
(357,80,o),
(282,80,cs),
(206,80,o),
(136,151,o),
(136,250,cs)
);
}
);
width = 564;
},
{
associatedMasterId = "7A0DE5E5-1E54-4CA9-B3AD-4FF2FC8A5BCD";
layerId = "FCED4818-686F-4C44-A33C-F0114355C735";
name = "11";
shapes = (
{
attr = {
strokeWidth = 80;
};
closed = 0;
nodes = (
(271,464,l),
(130,467,o),
(80,368,o),
(80,250,cs),
(80,139,o),
(140,39,o),
(267,39,c)
);
},
{
attr = {
strokeWidth = 80;
};
closed = 0;
nodes = (
(255,39,l),
(382,39,o),
(440,139,o),
(440,250,cs),
(440,361,o),
(396,467,o),
(251,464,c)
);
}
);
width = 521;
},
{
associatedMasterId = "7A0DE5E5-1E54-4CA9-B3AD-4FF2FC8A5BCD";
layerId = "C6D8173A-995E-4594-BE39-0C0CDDC5A7CF";
name = "10";
shapes = (
{
attr = {
strokeWidth = 80;
};
closed = 0;
nodes = (
(243,403,l),
(123,405,o),
(80,320,o),
(80,219,cs),
(80,125,o),
(131,39,o),
(240,39,c)
);
},
{
attr = {
strokeWidth = 80;
};
closed = 0;
nodes = (
(230,39,l),
(338,39,o),
(388,125,o),
(388,219,cs),
(388,314,o),
(350,405,o),
(226,403,c)
);
}
);
width = 480;
},
{
associatedMasterId = "7A0DE5E5-1E54-4CA9-B3AD-4FF2FC8A5BCD";
layerId = "CFAF5A85-C354-4224-9FA4-8EE9BD28BD49";
name = "1";
shapes = (
{
attr = {
strokeWidth = 80;
};
closed = 0;
nodes = (
(253,400,l),
(132,402,o),
(80,317,o),
(80,218,cs),
(80,124,o),
(141,39,o),
(248,39,c)
);
},
{
attr = {
strokeWidth = 80;
};
closed = 0;
nodes = (
(228,39,l),
(346,39,o),
(399,124,o),
(399,218,cs),
(399,312,o),
(358,402,o),
(225,400,c)
);
}
);
width = 480;
},
{
layerId = "7A0DE5E5-1E54-4CA9-B3AD-4FF2FC8A5BCD";
shapes = (
{
attr = {
strokeWidth = 80;
};
closed = 0;
nodes = (
(253,400,l),
(132,402,o),
(80,317,o),
(80,218,cs),
(80,124,o),
(141,39,o),
(248,39,c)
);
},
{
attr = {
strokeWidth = 80;
};
closed = 0;
nodes = (
(228,39,l),
(346,39,o),
(399,124,o),
(399,218,cs),
(399,312,o),
(358,402,o),
(225,400,c)
);
}
);
width = 480;
}
);
unicode = 111;
},
{
color = 7;
glyphname = p;
layers = (
{
associatedMasterId = "7A0DE5E5-1E54-4CA9-B3AD-4FF2FC8A5BCD";
layerId = "CFAF5A85-C354-4224-9FA4-8EE9BD28BD49";
name = "1";
shapes = (
{
attr = {
strokeWidth = 80;
};
closed = 0;
nodes = (
(119,438,l),
(119,-202,l)
);
},
{
attr = {
strokeWidth = 80;
};
closed = 0;
nodes = (
(231,35,l),
(355,33,o),
(397,119,o),
(397,221,cs),
(397,317,o),
(346,403,o),
(235,403,c)
);
},
{
attr = {
strokeWidth = 80;
};
closed = 0;
nodes = (
(246,403,l),
(187,403,o),
(145,379,o),
(119,340,c)
);
},
{
attr = {
strokeWidth = 80;
};
closed = 0;
nodes = (
(123,90,l),
(148,55,o),
(190,35,o),
(250,35,c)
);
}
);
width = 479;
},
{
layerId = "7A0DE5E5-1E54-4CA9-B3AD-4FF2FC8A5BCD";
shapes = (
{
attr = {
strokeWidth = 80;
};
closed = 0;
nodes = (
(119,438,l),
(119,-202,l)
);
},
{
attr = {
strokeWidth = 80;
};
closed = 0;
nodes = (
(231,35,l),
(355,33,o),
(397,119,o),
(397,221,cs),
(397,317,o),
(346,403,o),
(235,403,c)
);
},
{
attr = {
strokeWidth = 80;
};
closed = 0;
nodes = (
(246,403,l),
(187,403,o),
(145,379,o),
(119,340,c)
);
},
{
attr = {
strokeWidth = 80;
};
closed = 0;
nodes = (
(123,90,l),
(148,55,o),
(190,35,o),
(250,35,c)
);
}
);
width = 479;
}
);
unicode = 112;
},
{
color = 7;
glyphname = q;
layers = (
{
associatedMasterId = "7A0DE5E5-1E54-4CA9-B3AD-4FF2FC8A5BCD";
layerId = "CFAF5A85-C354-4224-9FA4-8EE9BD28BD49";
name = "1";
shapes = (
{
attr = {
strokeWidth = 80;
};
closed = 0;
nodes = (
(358,-202,l),
(358,438,l)
);
},
{
attr = {
strokeWidth = 80;
};
closed = 0;
nodes = (
(242,403,l),
(131,403,o),
(80,317,o),
(80,221,cs),
(80,119,o),
(122,33,o),
(246,35,c)
);
},
{
attr = {
strokeWidth = 80;
};
closed = 0;
nodes = (
(358,340,l),
(332,379,o),
(290,403,o),
(231,403,c)
);
},
{
attr = {
strokeWidth = 80;
};
closed = 0;
nodes = (
(227,35,l),
(287,35,o),
(329,55,o),
(354,90,c)
);
}
);
width = 479;
},
{
layerId = "7A0DE5E5-1E54-4CA9-B3AD-4FF2FC8A5BCD";
shapes = (
{
attr = {
strokeWidth = 80;
};
closed = 0;
nodes = (
(358,-202,l),
(358,438,l)
);
},
{
attr = {
strokeWidth = 80;
};
closed = 0;
nodes = (
(242,403,l),
(131,403,o),
(80,317,o),
(80,221,cs),
(80,119,o),
(122,33,o),
(246,35,c)
);
},
{
attr = {
strokeWidth = 80;
};
closed = 0;
nodes = (
(358,340,l),
(332,379,o),
(290,403,o),
(231,403,c)
);
},
{
attr = {
strokeWidth = 80;
};
closed = 0;
nodes = (
(227,35,l),
(287,35,o),
(329,55,o),
(354,90,c)
);
}
);
width = 479;
}
);
unicode = 113;
},
{
color = 7;
glyphname = r;
layers = (
{
associatedMasterId = "7A0DE5E5-1E54-4CA9-B3AD-4FF2FC8A5BCD";
layerId = "CFAF5A85-C354-4224-9FA4-8EE9BD28BD49";
name = "1";
shapes = (
{
attr = {
strokeWidth = 80;
};
closed = 0;
nodes = (
(119,440,l),
(119,0,l)
);
},
{
attr = {
strokeWidth = 80;
};
closed = 0;
nodes = (
(300,401,l),
(197,401,o),
(119,368,o),
(119,250,c)
);
}
);
width = 321;
},
{
layerId = "7A0DE5E5-1E54-4CA9-B3AD-4FF2FC8A5BCD";
shapes = (
{
attr = {
strokeWidth = 80;
};
closed = 0;
nodes = (
(119,440,l),
(119,0,l)
);
},
{
attr = {
strokeWidth = 80;
};
closed = 0;
nodes = (
(300,401,l),
(197,401,o),
(119,368,o),
(119,250,c)
);
}
);
width = 321;
}
);
unicode = 114;
},
{
color = 7;
glyphname = t;
layers = (
{
associatedMasterId = "7A0DE5E5-1E54-4CA9-B3AD-4FF2FC8A5BCD";
layerId = "CFAF5A85-C354-4224-9FA4-8EE9BD28BD49";
name = "1";
shapes = (
{
attr = {
strokeWidth = 80;
};
closed = 0;
nodes = (
(119,581,l),
(119,0,l)
);
},
{
attr = {
strokeWidth = 80;
};
closed = 0;
nodes = (
(19,399,l),
(224,399,l)
);
}
);
width = 241;
},
{
layerId = "7A0DE5E5-1E54-4CA9-B3AD-4FF2FC8A5BCD";
shapes = (
{
attr = {
strokeWidth = 80;
};
closed = 0;
nodes = (
(119,581,l),
(119,0,l)
);
},
{
attr = {
strokeWidth = 80;
};
closed = 0;
nodes = (
(19,399,l),
(224,399,l)
);
}
);
width = 241;
}
);
unicode = 116;
},
{
color = 7;
glyphname = u;
layers = (
{
associatedMasterId = "7A0DE5E5-1E54-4CA9-B3AD-4FF2FC8A5BCD";
layerId = "CFAF5A85-C354-4224-9FA4-8EE9BD28BD49";
name = "1";
shapes = (
{
attr = {
strokeWidth = 80;
};
closed = 0;
nodes = (
(379,0,l),
(379,439,l)
);
},
{
attr = {
strokeWidth = 80;
};
closed = 0;
nodes = (
(119,439,l),
(119,163,l),
(123,59,o),
(189,35,o),
(232,35,cs),
(379,35,o),
(379,229,o),
(379,235,c)
);
}
);
width = 480;
},
{
layerId = "7A0DE5E5-1E54-4CA9-B3AD-4FF2FC8A5BCD";
shapes = (
{
attr = {
strokeWidth = 80;
};
closed = 0;
nodes = (
(379,0,l),
(379,439,l)
);
},
{
attr = {
strokeWidth = 80;
};
closed = 0;
nodes = (
(119,439,l),
(119,163,l),
(123,59,o),
(189,35,o),
(232,35,cs),
(379,35,o),
(379,229,o),
(379,235,c)
);
}
);
width = 480;
}
);
unicode = 117;
},
{
color = 7;
glyphname = v;
layers = (
{
associatedMasterId = "7A0DE5E5-1E54-4CA9-B3AD-4FF2FC8A5BCD";
layerId = "CFAF5A85-C354-4224-9FA4-8EE9BD28BD49";
name = "1";
shapes = (
{
attr = {
lineCapEnd = 4;
lineCapStart = 4;
strokeWidth = 80;
};
closed = 0;
nodes = (
(75,440,l),
(231,0,l)
);
},
{
attr = {
lineCapEnd = 4;
lineCapStart = 4;
strokeWidth = 80;
};
closed = 0;
nodes = (
(230,0,l),
(375,440,l)
);
}
);
width = 439;
},
{
layerId = "7A0DE5E5-1E54-4CA9-B3AD-4FF2FC8A5BCD";
shapes = (
{
attr = {
lineCapEnd = 4;
lineCapStart = 4;
strokeWidth = 80;
};
closed = 0;
nodes = (
(75,440,l),
(231,0,l)
);
},
{
attr = {
lineCapEnd = 4;
lineCapStart = 4;
strokeWidth = 80;
};
closed = 0;
nodes = (
(230,0,l),
(375,440,l)
);
}
);
width = 439;
}
);
unicode = 118;
},
{
color = 7;
glyphname = w;
layers = (
{
associatedMasterId = "7A0DE5E5-1E54-4CA9-B3AD-4FF2FC8A5BCD";
layerId = "CFAF5A85-C354-4224-9FA4-8EE9BD28BD49";
name = "1";
shapes = (
{
attr = {
lineCapEnd = 4;
lineCapStart = 4;
strokeWidth = 80;
};
closed = 0;
nodes = (
(77,441,l),
(231,0,l)
);
},
{
attr = {
lineCapEnd = 4;
lineCapStart = 4;
strokeWidth = 80;
};
closed = 0;
nodes = (
(231,0,l),
(385,441,l)
);
},
{
attr = {
lineCapEnd = 4;
lineCapStart = 4;
strokeWidth = 80;
};
closed = 0;
nodes = (
(389,441,l),
(554,0,l)
);
},
{
attr = {
lineCapEnd = 4;
lineCapStart = 4;
strokeWidth = 80;
};
closed = 0;
nodes = (
(553,0,l),
(688,441,l)
);
}
);
width = 762;
},
{
layerId = "7A0DE5E5-1E54-4CA9-B3AD-4FF2FC8A5BCD";
shapes = (
{
attr = {
lineCapEnd = 4;
lineCapStart = 4;
strokeWidth = 80;
};
closed = 0;
nodes = (
(77,441,l),
(231,0,l)
);
},
{
attr = {
lineCapEnd = 4;
lineCapStart = 4;
strokeWidth = 80;
};
closed = 0;
nodes = (
(231,0,l),
(385,441,l)
);
},
{
attr = {
lineCapEnd = 4;
lineCapStart = 4;
strokeWidth = 80;
};
closed = 0;
nodes = (
(389,441,l),
(554,0,l)
);
},
{
attr = {
lineCapEnd = 4;
lineCapStart = 4;
strokeWidth = 80;
};
closed = 0;
nodes = (
(553,0,l),
(688,441,l)
);
}
);
width = 762;
}
);
unicode = 119;
},
{
color = 7;
glyphname = x;
layers = (
{
associatedMasterId = "7A0DE5E5-1E54-4CA9-B3AD-4FF2FC8A5BCD";
layerId = "CFAF5A85-C354-4224-9FA4-8EE9BD28BD49";
name = "1";
shapes = (
{
attr = {
lineCapEnd = 4;
lineCapStart = 4;
strokeWidth = 80;
};
closed = 0;
nodes = (
(65,441,l),
(355,0,l)
);
},
{
attr = {
lineCapEnd = 4;
lineCapStart = 4;
strokeWidth = 80;
};
closed = 0;
nodes = (
(81,0,l),
(372,441,l)
);
}
);
width = 441;
},
{
layerId = "7A0DE5E5-1E54-4CA9-B3AD-4FF2FC8A5BCD";
shapes = (
{
attr = {
lineCapEnd = 4;
lineCapStart = 4;
strokeWidth = 80;
};
closed = 0;
nodes = (
(65,441,l),
(355,0,l)
);
},
{
attr = {
lineCapEnd = 4;
lineCapStart = 4;
strokeWidth = 80;
};
closed = 0;
nodes = (
(81,0,l),
(372,441,l)
);
}
);
width = 441;
}
);
unicode = 120;
},
{
color = 7;
glyphname = y;
layers = (
{
associatedMasterId = "7A0DE5E5-1E54-4CA9-B3AD-4FF2FC8A5BCD";
layerId = "CFAF5A85-C354-4224-9FA4-8EE9BD28BD49";
name = "1";
shapes = (
{
attr = {
lineCapEnd = 4;
lineCapStart = 4;
strokeWidth = 80;
};
closed = 0;
nodes = (
(66,441,l),
(227,-12,l)
);
},
{
attr = {
lineCapEnd = 4;
lineCapStart = 4;
strokeWidth = 80;
};
closed = 0;
nodes = (
(379,441,l),
(180,-151,ls),
(161,-208,o),
(106,-221,o),
(34,-201,c)
);
}
);
width = 442;
},
{
layerId = "7A0DE5E5-1E54-4CA9-B3AD-4FF2FC8A5BCD";
shapes = (
{
attr = {
lineCapEnd = 4;
lineCapStart = 4;
strokeWidth = 80;
};
closed = 0;
nodes = (
(66,441,l),
(227,-12,l)
);
},
{
attr = {
lineCapEnd = 4;
lineCapStart = 4;
strokeWidth = 80;
};
closed = 0;
nodes = (
(379,441,l),
(180,-151,ls),
(161,-208,o),
(106,-221,o),
(34,-201,c)
);
}
);
width = 442;
}
);
unicode = 121;
},
{
color = 7;
glyphname = z;
layers = (
{
associatedMasterId = "7A0DE5E5-1E54-4CA9-B3AD-4FF2FC8A5BCD";
layerId = "CFAF5A85-C354-4224-9FA4-8EE9BD28BD49";
name = "1";
shapes = (
{
attr = {
lineCapEnd = 4;
lineCapStart = 4;
strokeWidth = 80;
};
closed = 0;
nodes = (
(40,402,l),
(335,401,l)
);
},
{
attr = {
lineCapEnd = 4;
lineCapStart = 4;
strokeWidth = 80;
};
closed = 0;
nodes = (
(351,442,l),
(61,0,l)
);
},
{
attr = {
lineCapEnd = 4;
lineCapStart = 4;
strokeWidth = 80;
};
closed = 0;
nodes = (
(75,40,l),
(407,40,l)
);
}
);
width = 441;
},
{
layerId = "7A0DE5E5-1E54-4CA9-B3AD-4FF2FC8A5BCD";
shapes = (
{
attr = {
lineCapEnd = 4;
lineCapStart = 4;
strokeWidth = 80;
};
closed = 0;
nodes = (
(40,402,l),
(335,401,l)
);
},
{
attr = {
lineCapEnd = 4;
lineCapStart = 4;
strokeWidth = 80;
};
closed = 0;
nodes = (
(351,442,l),
(61,0,l)
);
},
{
attr = {
lineCapEnd = 4;
lineCapStart = 4;
strokeWidth = 80;
};
closed = 0;
nodes = (
(75,40,l),
(407,40,l)
);
}
);
width = 441;
}
);
unicode = 122;
},
{
color = 7;
glyphname = "a-deva";
lastChange = "2026-04-24 12:59:21 +0000";
layers = (
{
associatedMasterId = "7A0DE5E5-1E54-4CA9-B3AD-4FF2FC8A5BCD";
layerId = "CFAF5A85-C354-4224-9FA4-8EE9BD28BD49";
name = "1";
shapes = (
{
closed = 1;
nodes = (
(396,20,o),
(479,97,o),
(479,197,cs),
(479,297,o),
(397,384,o),
(304,384,c),
(304,362,l),
(360,363,o),
(402,303,o),
(402,224,cs),
(402,136,o),
(350,89,o),
(254,89,cs),
(152,89,o),
(83,179,o),
(60,243,c),
(39,231,l),
(65,156,o),
(133,20,o),
(286,20,cs)
);
},
{
closed = 1;
nodes = (
(701,-6,l),
(701,201,l),
(581,66,l),
(581,63,l),
(698,-6,l)
);
},
{
closed = 1;
nodes = (
(360,340,o),
(435,401,o),
(435,495,cs),
(435,602,o),
(339,700,o),
(235,700,cs),
(182,700,o),
(122,675,o),
(102,644,c),
(172,580,l),
(172,609,o),
(226,630,o),
(272,630,cs),
(340,630,o),
(369,601,o),
(369,532,cs),
(369,447,o),
(324,420,o),
(182,420,c),
(242,340,l)
);
},
{
closed = 1;
nodes = (
(671,300,l),
(657,382,l),
(371,360,l),
(412,300,l)
);
},
{
closed = 1;
nodes = (
(701,77,l),
(701,621,l),
(621,621,l),
(621,77,l)
);
},
{
closed = 1;
nodes = (
(899,620,l),
(829,700,l),
(445,700,l),
(515,620,l)
);
}
);
width = 800;
},
{
layerId = "7A0DE5E5-1E54-4CA9-B3AD-4FF2FC8A5BCD";
shapes = (
{
attr = {
strokeWidth = 80;
};
closed = 0;
nodes = (
(659,667,l),
(659,0,l)
);
},
{
attr = {
strokeWidth = 80;
};
closed = 0;
nodes = (
(160,380,l),
(271,380,o),
(380,405,o),
(380,525,cs),
(380,624,o),
(307,666,o),
(241,666,cs),
(179,666,o),
(120,630,o),
(120,560,c)
);
},
{
attr = {
strokeWidth = 80;
};
closed = 0;
nodes = (
(80,201,l),
(80,102,o),
(161,60,o),
(245,60,cs),
(340,60,o),
(420,113,o),
(420,222,cs),
(420,377,o),
(259,381,o),
(179,380,c)
);
},
{
attr = {
strokeWidth = 76;
};
closed = 0;
nodes = (
(458,660,l),
(834,660,l)
);
},
{
attr = {
strokeWidth = 76;
};
closed = 0;
nodes = (
(347,341,l),
(626,341,l)
);
}
);
width = 800;
}
);
unicode = 2309;
},
{
color = 7;
glyphname = "aa-deva";
layers = (
{
associatedMasterId = "7A0DE5E5-1E54-4CA9-B3AD-4FF2FC8A5BCD";
layerId = "CFAF5A85-C354-4224-9FA4-8EE9BD28BD49";
name = "1";
shapes = (
{
closed = 1;
nodes = (
(622,77,l),
(622,621,l),
(702,621,l),
(702,77,l)
);
},
{
closed = 1;
nodes = (
(702,201,l),
(702,-6,l),
(699,-6,l),
(582,63,l),
(582,66,l)
);
},
{
closed = 1;
nodes = (
(881,77,l),
(881,621,l),
(961,621,l),
(961,77,l)
);
},
{
closed = 1;
nodes = (
(961,201,l),
(961,-6,l),
(958,-6,l),
(841,63,l),
(841,66,l)
);
},
{
closed = 1;
nodes = (
(103,644,l),
(123,675,o),
(183,700,o),
(236,700,cs),
(340,700,o),
(436,602,o),
(436,495,cs),
(436,401,o),
(361,340,o),
(243,340,c),
(183,420,l),
(325,420,o),
(370,447,o),
(370,532,cs),
(370,601,o),
(341,630,o),
(273,630,cs),
(227,630,o),
(173,609,o),
(173,580,c)
);
},
{
closed = 1;
nodes = (
(61,243,l),
(84,179,o),
(153,89,o),
(255,89,cs),
(351,89,o),
(403,136,o),
(403,224,cs),
(403,303,o),
(361,363,o),
(305,362,c),
(305,384,l),
(398,384,o),
(480,297,o),
(480,197,cs),
(480,97,o),
(397,20,o),
(287,20,cs),
(134,20,o),
(66,156,o),
(40,231,c)
);
},
{
closed = 1;
nodes = (
(412,300,l),
(371,360,l),
(657,382,l),
(671,300,l)
);
},
{
closed = 1;
nodes = (
(445,700,l),
(1094,700,l),
(1164,620,l),
(515,620,l)
);
}
);
width = 1060;
},
{
layerId = "7A0DE5E5-1E54-4CA9-B3AD-4FF2FC8A5BCD";
shapes = (
{
attr = {
strokeWidth = 80;
};
closed = 0;
nodes = (
(919,667,l),
(919,0,l)
);
},
{
attr = {
strokeWidth = 80;
};
closed = 0;
nodes = (
(659,667,l),
(659,0,l)
);
},
{
attr = {
strokeWidth = 80;
};
closed = 0;
nodes = (
(160,380,l),
(271,380,o),
(380,405,o),
(380,525,cs),
(380,624,o),
(307,666,o),
(241,666,cs),
(179,666,o),
(120,630,o),
(120,560,c)
);
},
{
attr = {
strokeWidth = 80;
};
closed = 0;
nodes = (
(80,201,l),
(80,102,o),
(161,60,o),
(245,60,cs),
(340,60,o),
(420,113,o),
(420,222,cs),
(420,377,o),
(259,381,o),
(179,380,c)
);
},
{
attr = {
strokeWidth = 76;
};
closed = 0;
nodes = (
(458,660,l),
(1170,660,l)
);
},
{
attr = {
strokeWidth = 76;
};
closed = 0;
nodes = (
(369,340,l),
(626,340,l)
);
}
);
width = 1060;
}
);
unicode = 2310;
},
{
color = 7;
glyphname = "i-deva";
layers = (
{
associatedMasterId = "7A0DE5E5-1E54-4CA9-B3AD-4FF2FC8A5BCD";
layerId = "CFAF5A85-C354-4224-9FA4-8EE9BD28BD49";
name = "1";
shapes = (
{
closed = 1;
nodes = (
(-112,700,l),
(612,700,l),
(682,620,l),
(-42,620,l)
);
},
{
closed = 1;
nodes = (
(121,200,l),
(93,156,o),
(99,140,o),
(99,140,c),
(99,140,o),
(92,80,o),
(261,80,cs),
(393,80,o),
(472,117,o),
(472,180,cs),
(472,221,o),
(439,240,o),
(368,240,cs),
(300,240,o),
(273,240,o),
(273,240,cs),
(144,240,o),
(57,304,o),
(57,392,cs),
(57,468,o),
(123,520,o),
(220,520,cs),
(360,520,l),
(360,661,l),
(440,661,l),
(440,440,l),
(220,440,ls),
(131,440,o),
(100,424,o),
(100,378,cs),
(100,335,o),
(128,320,o),
(208,320,cs),
(224,320,o),
(337,320,o),
(337,320,cs),
(445,320,o),
(516,254,o),
(516,154,cs),
(516,51,o),
(439,0,o),
(283,0,cs),
(131,0,o),
(61,60,o),
(43,200,c)
);
},
{
closed = 1;
nodes = (
(120,36,l),
(120,-120,l),
(120,-120,o),
(118,-120,o),
(116,-120,c),
(-2,-24,l),
(-2,-20,l)
);
},
{
closed = 1;
nodes = (
(40,-20,l),
(40,200,l),
(120,200,l),
(120,-20,l)
);
}
);
width = 560;
},
{
layerId = "7A0DE5E5-1E54-4CA9-B3AD-4FF2FC8A5BCD";
shapes = (
{
attr = {
strokeWidth = 80;
};
closed = 0;
nodes = (
(80,200,l),
(80,150,o),
(80,-32,o),
(80,-119,c)
);
},
{
attr = {
strokeWidth = 80;
};
closed = 0;
nodes = (
(400,661,l),
(400,480,l),
(220,480,ls),
(145,480,o),
(100,442,o),
(100,380,cs),
(100,318,o),
(145,280,o),
(220,280,cs),
(330,280,ls),
(414,280,o),
(460,240,o),
(460,170,cs),
(460,86,o),
(396,40,o),
(280,40,cs),
(150,40,o),
(80,100,o),
(80,200,c)
);
},
{
attr = {
strokeWidth = 76;
};
closed = 0;
nodes = (
(-16,660,l),
(623,660,l)
);
}
);
width = 540;
}
);
unicode = 2311;
},
{
color = 7;
glyphname = "ii-deva";
layers = (
{
associatedMasterId = "7A0DE5E5-1E54-4CA9-B3AD-4FF2FC8A5BCD";
layerId = "CFAF5A85-C354-4224-9FA4-8EE9BD28BD49";
name = "1";
shapes = (
{
closed = 0;
nodes = (
(415,676,l),
(370,729,o),
(330,763,o),
(330,840,cs),
(330,955,o),
(461,960,o),
(520,960,c)
);
},
{
closed = 1;
nodes = (
(415,676,l),
(403.342,689.73,o),
(290,715.744,o),
(290,840,cs),
(290,1001.709,o),
(478.77,1000,o),
(520,1000,c),
(520,920,l),
(460.3,920,o),
(361.774,927.452,o),
(361.774,840,cs),
(361.774,791.604,o),
(393.487,720.725,o),
(424.565,684.121,c)
);
},
{
closed = 1;
nodes = (
(-112,700,l),
(612,700,l),
(682,620,l),
(-42,620,l)
);
},
{
closed = 1;
nodes = (
(121,200,l),
(93,156,o),
(99,140,o),
(99,140,c),
(99,140,o),
(92,80,o),
(261,80,cs),
(393,80,o),
(472,117,o),
(472,180,cs),
(472,221,o),
(439,240,o),
(368,240,cs),
(300,240,o),
(273,240,o),
(273,240,cs),
(144,240,o),
(57,304,o),
(57,392,cs),
(57,468,o),
(123,520,o),
(220,520,cs),
(360,520,l),
(360,661,l),
(440,661,l),
(440,440,l),
(220,440,ls),
(131,440,o),
(100,424,o),
(100,378,cs),
(100,335,o),
(128,320,o),
(208,320,cs),
(224,320,o),
(337,320,o),
(337,320,cs),
(445,320,o),
(516,254,o),
(516,154,cs),
(516,51,o),
(439,0,o),
(283,0,cs),
(131,0,o),
(61,60,o),
(43,200,c)
);
},
{
closed = 1;
nodes = (
(120,36,l),
(120,-120,l),
(120,-120,o),
(118,-120,o),
(116,-120,c),
(-2,-24,l),
(-2,-20,l)
);
},
{
closed = 1;
nodes = (
(40,-20,l),
(40,200,l),
(120,200,l),
(120,-20,l)
);
}
);
width = 541;
},
{
layerId = "7A0DE5E5-1E54-4CA9-B3AD-4FF2FC8A5BCD";
shapes = (
{
closed = 0;
nodes = (
(80,200,l),
(80,100,o),
(150,40,o),
(281,40,cs),
(396,40,o),
(460,86,o),
(460,169,cs),
(460,240,o),
(414,280,o),
(330,280,cs),
(220,280,ls),
(145,280,o),
(100,318,o),
(100,380,cs),
(100,442,o),
(145,480,o),
(220,480,cs),
(400,480,l),
(400,661,l)
);
},
{
closed = 0;
nodes = (
(80,200,l),
(80,150,o),
(80,-32,o),
(80,-119,c)
);
},
{
closed = 0;
nodes = (
(437,661,l),
(373,720,o),
(325,750,o),
(325,829,cs),
(325,913,o),
(388,959,o),
(505,959,c)
);
},
{
closed = 1;
nodes = (
(120,200,l),
(120,104.99,o),
(198.457,80,o),
(281,80,cs),
(417.051,80,o),
(420,145.879,o),
(420,169,cs),
(420,202.527,o),
(408.073,240,o),
(330,240,cs),
(220,240,ls),
(120.021,240,o),
(60,298.046,o),
(60,380,cs),
(60,461.954,o),
(120.021,520,o),
(220,520,cs),
(360,520,l),
(360,661,l),
(440,661,l),
(440.008,439.992,l),
(220,440,l),
(179.801,440,o),
(140,427.445,o),
(140,380,cs),
(140,333.098,o),
(178.288,320,o),
(220,320,cs),
(330,320,ls),
(440.042,320,o),
(500,258.969,o),
(500,169,cs),
(500,75.62,o),
(434.015,0,o),
(281,0,cs),
(122.742,0,o),
(40,81.605,o),
(40,200,c)
);
},
{
closed = 1;
nodes = (
(120,200,l),
(120,-119,l),
(40,-119,l),
(40,200,l)
);
},
{
closed = 1;
nodes = (
(412.304,634.212,l),
(359.187,683.179,o),
(285,723.394,o),
(285,829,cs),
(285,946.055,o),
(378.764,999,o),
(505,999,c),
(505,919,l),
(397.236,919,o),
(365,879.945,o),
(365,829,cs),
(365,772.031,o),
(415.012,717.42,o),
(455.016,680.542,c)
);
},
{
attr = {
strokeWidth = 76;
};
closed = 0;
nodes = (
(-16,660,l),
(623,660,l)
);
}
);
width = 541;
}
);
unicode = 2312;
},
{
color = 7;
glyphname = "u-deva";
lastChange = "2026-04-24 06:30:14 +0000";
layers = (
{
associatedMasterId = "7A0DE5E5-1E54-4CA9-B3AD-4FF2FC8A5BCD";
layerId = "CFAF5A85-C354-4224-9FA4-8EE9BD28BD49";
name = "1";
shapes = (
{
closed = 1;
nodes = (
(236,700,l),
(340,700,o),
(436,602,o),
(436,495,cs),
(436,401,o),
(361,340,o),
(243,340,c),
(183,420,l),
(325,420,o),
(370,447,o),
(370,532,cs),
(370,601,o),
(341,630,o),
(273,630,c)
);
},
{
closed = 1;
nodes = (
(61,243,l),
(84,179,o),
(153,89,o),
(255,89,cs),
(351,89,o),
(403,136,o),
(403,224,cs),
(403,303,o),
(361,363,o),
(305,362,c),
(305,384,l),
(398,384,o),
(480,297,o),
(480,197,cs),
(480,97,o),
(397,20,o),
(287,20,cs),
(134,20,o),
(66,156,o),
(40,231,c)
);
},
{
closed = 1;
nodes = (
(-98,700,l),
(551,700,l),
(621,620,l),
(-28,620,l)
);
}
);
width = 500;
},
{
layerId = "7A0DE5E5-1E54-4CA9-B3AD-4FF2FC8A5BCD";
shapes = (
{
attr = {
strokeHeight = 76;
strokeWidth = 80;
};
closed = 0;
nodes = (
(160,360,l),
(273,360,o),
(384,392,o),
(384,520,cs),
(384,615,o),
(310,660,o),
(243,660,cs)
);
},
{
attr = {
strokeHeight = 76;
strokeWidth = 80;
};
closed = 0;
nodes = (
(80,183,l),
(80,83,o),
(162,41,o),
(247,41,cs),
(341,41,o),
(420,92,o),
(420,200,cs),
(420,310,o),
(341,363,o),
(180,360,c)
);
},
{
attr = {
strokeWidth = 76;
};
closed = 0;
nodes = (
(-16,660,l),
(544,660,l)
);
}
);
width = 500;
}
);
unicode = 2313;
},
{
color = 7;
glyphname = "uu-deva";
lastChange = "2026-04-24 12:46:22 +0000";
layers = (
{
associatedMasterId = "7A0DE5E5-1E54-4CA9-B3AD-4FF2FC8A5BCD";
layerId = "CFAF5A85-C354-4224-9FA4-8EE9BD28BD49";
name = "1";
shapes = (
{
closed = 1;
nodes = (
(236,700,l),
(340,700,o),
(436,602,o),
(436,495,cs),
(436,401,o),
(361,340,o),
(243,340,c),
(183,420,l),
(325,420,o),
(370,447,o),
(370,532,cs),
(370,601,o),
(341,630,o),
(273,630,c)
);
},
{
closed = 1;
nodes = (
(61,243,l),
(84,179,o),
(153,89,o),
(255,89,cs),
(351,89,o),
(403,136,o),
(403,224,cs),
(403,303,o),
(361,363,o),
(305,362,c),
(305,384,l),
(398,384,o),
(480,297,o),
(480,197,cs),
(480,97,o),
(397,20,o),
(287,20,cs),
(134,20,o),
(66,156,o),
(40,231,c)
);
},
{
closed = 1;
nodes = (
(-98,700,l),
(551,700,l),
(621,620,l),
(-28,620,l)
);
},
{
closed = 1;
nodes = (
(357,354,l),
(385,383,o),
(438,403,o),
(486,403,cs),
(577,403,o),
(642,330,o),
(642,242,cs),
(642,191,o),
(617,163,o),
(582,111,c),
(523,160,l),
(568,213,o),
(581,238,o),
(581,272,cs),
(581,324,o),
(552,357,o),
(508,357,cs),
(460,357,o),
(434,319,o),
(413,298,c)
);
}
);
width = 680;
},
{
layerId = "7A0DE5E5-1E54-4CA9-B3AD-4FF2FC8A5BCD";
shapes = (
{
closed = 0;
nodes = (
(378,308,l),
(414,344,o),
(456,359,o),
(495,359,cs),
(586,358,o),
(629,308,o),
(629,234,cs),
(629,181,o),
(582,122,o),
(536,60,c)
);
},
{
closed = 1;
nodes = (
(350,336,l),
(394,380,o),
(446,399,o),
(495,399,cs),
(610,398,o),
(669,328,o),
(669,234,cs),
(669,175,o),
(629,119,o),
(586,60,c),
(486,60,l),
(536,128,o),
(589,191,o),
(589,234,cs),
(589,282,o),
(568,318,o),
(495,319,c),
(461,319,o),
(430,303,o),
(406,280,c)
);
},
{
attr = {
strokeWidth = 76;
};
closed = 0;
nodes = (
(-16,660,l),
(769,660,l)
);
},
{
attr = {
strokeHeight = 76;
strokeWidth = 80;
};
closed = 0;
nodes = (
(160,360,l),
(273,360,o),
(384,392,o),
(384,520,cs),
(384,615,o),
(310,660,o),
(243,660,cs)
);
},
{
attr = {
strokeHeight = 76;
strokeWidth = 80;
};
closed = 0;
nodes = (
(80,183,l),
(80,83,o),
(162,41,o),
(247,41,cs),
(341,41,o),
(420,92,o),
(420,200,cs),
(420,310,o),
(341,363,o),
(180,360,c)
);
}
);
width = 680;
}
);
unicode = 2314;
},
{
color = 7;
glyphname = "ocandra-deva";
layers = (
{
associatedMasterId = "7A0DE5E5-1E54-4CA9-B3AD-4FF2FC8A5BCD";
layerId = "CFAF5A85-C354-4224-9FA4-8EE9BD28BD49";
name = "1";
shapes = (
{
attr = {
strokeWidth = 80;
};
closed = 0;
nodes = (
(640,627,l),
(640,0,l)
);
},
{
attr = {
strokeWidth = 80;
};
closed = 0;
nodes = (
(438,660,l),
(983,660,l)
);
},
{
attr = {
strokeWidth = 80;
};
closed = 0;
nodes = (
(140,382,l),
(191,382,o),
(330,376,o),
(355,503,cs),
(395,700,o),
(103,717,o),
(103,561,c)
);
},
{
attr = {
strokeWidth = 80;
};
closed = 0;
nodes = (
(60,201,l),
(52,28,o),
(390,6,o),
(398,200,cs),
(405,377,o),
(239,384,o),
(157,383,c)
);
},
{
attr = {
strokeWidth = 80;
};
closed = 0;
nodes = (
(369,320,l),
(606,320,l)
);
},
{
attr = {
strokeWidth = 80;
};
closed = 0;
nodes = (
(839,627,l),
(839,0,l)
);
},
{
attr = {
strokeWidth = 80;
};
closed = 0;
nodes = (
(905,977,l),
(921,733,o),
(595,727,o),
(614,992,c)
);
}
);
width = 960;
},
{
layerId = "7A0DE5E5-1E54-4CA9-B3AD-4FF2FC8A5BCD";
shapes = (
{
attr = {
strokeWidth = 80;
};
closed = 0;
nodes = (
(640,627,l),
(640,0,l)
);
},
{
attr = {
strokeWidth = 80;
};
closed = 0;
nodes = (
(438,660,l),
(983,660,l)
);
},
{
attr = {
strokeWidth = 80;
};
closed = 0;
nodes = (
(140,382,l),
(191,382,o),
(330,376,o),
(355,503,cs),
(395,700,o),
(103,717,o),
(103,561,c)
);
},
{
attr = {
strokeWidth = 80;
};
closed = 0;
nodes = (
(60,201,l),
(52,28,o),
(390,6,o),
(398,200,cs),
(405,377,o),
(239,384,o),
(157,383,c)
);
},
{
attr = {
strokeWidth = 80;
};
closed = 0;
nodes = (
(369,320,l),
(606,320,l)
);
},
{
attr = {
strokeWidth = 80;
};
closed = 0;
nodes = (
(839,627,l),
(839,0,l)
);
},
{
attr = {
strokeWidth = 80;
};
closed = 0;
nodes = (
(905,977,l),
(921,733,o),
(595,727,o),
(614,992,c)
);
}
);
width = 960;
}
);
unicode = 2321;
},
{
color = 7;
glyphname = "o-deva";
layers = (
{
associatedMasterId = "7A0DE5E5-1E54-4CA9-B3AD-4FF2FC8A5BCD";
layerId = "CFAF5A85-C354-4224-9FA4-8EE9BD28BD49";
name = "1";
shapes = (
{
closed = 1;
nodes = (
(412,300,l),
(371,360,l),
(657,382,l),
(671,300,l)
);
},
{
closed = 1;
nodes = (
(445,700,l),
(1094,700,l),
(1164,620,l),
(515,620,l)
);
},
{
closed = 1;
nodes = (
(106,644,l),
(126,675,o),
(186,700,o),
(239,700,cs),
(343,700,o),
(439,602,o),
(439,495,cs),
(439,401,o),
(364,340,o),
(246,340,c),
(186,420,l),
(328,420,o),
(373,447,o),
(373,532,cs),
(373,601,o),
(344,630,o),
(276,630,cs),
(230,630,o),
(176,609,o),
(176,580,c)
);
},
{
closed = 1;
nodes = (
(64,243,l),
(87,179,o),
(156,89,o),
(258,89,cs),
(354,89,o),
(406,136,o),
(406,224,cs),
(406,303,o),
(364,363,o),
(308,362,c),
(308,384,l),
(401,384,o),
(483,297,o),
(483,197,cs),
(483,97,o),
(400,20,o),
(290,20,cs),
(137,20,o),
(69,156,o),
(43,231,c)
);
},
{
closed = 1;
nodes = (
(621,83,l),
(621,627,l),
(701,627,l),
(701,83,l)
);
},
{
closed = 1;
nodes = (
(701,207,l),
(701,0,l),
(698,0,l),
(581,69,l),
(581,72,l)
);
},
{
closed = 1;
nodes = (
(879,83,l),
(879,627,l),
(959,627,l),
(959,83,l)
);
},
{
closed = 1;
nodes = (
(959,207,l),
(959,0,l),
(956,0,l),
(839,69,l),
(839,72,l)
);
},
{
closed = 0;
nodes = (
(919,647,l),
(919,778,o),
(837,920,o),
(699,920,c)
);
},
{
closed = 1;
nodes = (
(890.14,647,l),
(890.14,720.834,o),
(840.295,880,o),
(699,880,c),
(699,960,l),
(816.224,960,o),
(944.851,850.09,o),
(944.851,647,c)
);
}
);
width = 1060;
},
{
layerId = "7A0DE5E5-1E54-4CA9-B3AD-4FF2FC8A5BCD";
shapes = (
{
closed = 0;
nodes = (
(919,0,l),
(919,667,l)
);
},
{
closed = 0;
nodes = (
(659,667,l),
(659,0,l)
);
},
{
closed = 0;
nodes = (
(160,380,l),
(271,380,o),
(380,405,o),
(380,525,cs),
(380,624,o),
(307,666,o),
(241,666,cs),
(179,666,o),
(120,630,o),
(120,560,c)
);
},
{
closed = 0;
nodes = (
(80,201,l),
(80,102,o),
(161,60,o),
(245,60,cs),
(340,60,o),
(420,113,o),
(420,222,cs),
(420,377,o),
(259,381,o),
(179,380,c)
);
},
{
closed = 0;
nodes = (
(919,647,l),
(919,778,o),
(837,920,o),
(699,920,c)
);
},
{
closed = 1;
nodes = (
(959,0,l),
(879,0,l),
(879,667,l),
(959,667,l)
);
},
{
closed = 1;
nodes = (
(619,667,l),
(699,667,l),
(699,0,l),
(619,0,l)
);
},
{
closed = 1;
nodes = (
(160,420,l),
(275.367,420,o),
(340,446.43,o),
(340,525,cs),
(340,596.588,o),
(290.634,626,o),
(241,626,cs),
(191.732,626,o),
(160,599.589,o),
(160,560,c),
(80,560,l),
(80,660.411,o),
(166.268,706,o),
(241,706,cs),
(323.366,706,o),
(420,651.412,o),
(420,525,cs),
(420,363.57,o),
(266.633,340,o),
(160,340,c)
);
},
{
closed = 1;
nodes = (
(120,201,l),
(120,134.25,o),
(171.332,100,o),
(245,100,cs),
(324.576,100,o),
(380,141.216,o),
(380,222,cs),
(380,300.567,o),
(331.239,341.9,o),
(179.5,340.003,c),
(178.5,419.997,l),
(237.412,420.733,o),
(460,425.651,o),
(460,222,cs),
(460,84.784,o),
(355.424,20,o),
(245,20,cs),
(150.668,20,o),
(40,69.75,o),
(40,201,c)
);
},
{
closed = 1;
nodes = (
(883.921,647,l),
(883.921,739.199,o),
(826.004,880,o),
(699,880,c),
(699,960,l),
(831.595,960,o),
(949.686,833.326,o),
(949.686,647,c)
);
},
{
attr = {
strokeWidth = 76;
};
closed = 0;
nodes = (
(500,660,l),
(1096,660,l)
);
},
{
attr = {
strokeWidth = 76;
};
closed = 0;
nodes = (
(347,341,l),
(626,341,l)
);
}
);
width = 1079;
}
);
unicode = 2323;
},
{
color = 7;
glyphname = "au-deva";
layers = (
{
associatedMasterId = "7A0DE5E5-1E54-4CA9-B3AD-4FF2FC8A5BCD";
layerId = "CFAF5A85-C354-4224-9FA4-8EE9BD28BD49";
name = "1";
shapes = (
{
closed = 0;
nodes = (
(928,647,l),
(928,778,o),
(869,962,o),
(708,962,c)
);
},
{
closed = 0;
nodes = (
(921,672,l),
(876,751,o),
(762,830,o),
(668,830,c)
);
},
{
closed = 1;
nodes = (
(901.105,647,l),
(901.105,687.53,o),
(878.135,922,o),
(708,922,c),
(708,1002,l),
(764.945,1002,o),
(945.766,965.585,o),
(945.766,647,c)
);
},
{
closed = 1;
nodes = (
(900.649,660.408,l),
(884.743,688.333,o),
(790.835,790,o),
(668,790,c),
(668,870,l),
(706.017,870,o),
(847.871,837.052,o),
(936.771,680.983,c)
);
},
{
closed = 1;
nodes = (
(412,300,l),
(371,360,l),
(657,382,l),
(671,300,l)
);
},
{
closed = 1;
nodes = (
(445,700,l),
(1094,700,l),
(1164,620,l),
(515,620,l)
);
},
{
alignment = -1;
pos = (43,0);
ref = Aa_bowl;
},
{
alignment = -1;
pos = (581,0);
ref = stemserif;
},
{
alignment = -1;
pos = (839,0);
ref = stemserif;
}
);
width = 1079;
},
{
layerId = "7A0DE5E5-1E54-4CA9-B3AD-4FF2FC8A5BCD";
shapes = (
{
closed = 0;
nodes = (
(938,647,l),
(938,778,o),
(871,962,o),
(710,962,c)
);
},
{
closed = 0;
nodes = (
(931,672,ls),
(886,751,o),
(762,830,o),
(668,830,c)
);
},
{
closed = 1;
nodes = (
(916.704,647,l),
(916.704,686.592,o),
(886.409,922,o),
(710,922,c),
(710,1002,l),
(879.59,1002,o),
(949.074,819.659,o),
(949.074,647,c)
);
},
{
closed = 1;
nodes = (
(911.292,660.774,l),
(892.857,693.137,o),
(791.354,790,o),
(668,790,c),
(668,870,l),
(774.304,870,o),
(893.676,766.067,o),
(943.275,678.992,c)
);
},
{
closed = 1;
nodes = (
(412,300,l),
(371,360,l),
(657,382,l),
(671,300,l)
);
},
{
closed = 1;
nodes = (
(445,700,l),
(1094,700,l),
(1164,620,l),
(515,620,l)
);
},
{
alignment = -1;
pos = (43,0);
ref = Aa_bowl;
},
{
alignment = -1;
pos = (581,0);
ref = stemserif;
},
{
alignment = -1;
pos = (839,0);
ref = stemserif;
}
);
width = 1081;
}
);
unicode = 2324;
},
{
color = 7;
glyphname = "ka-deva";
lastChange = "2026-04-24 14:39:31 +0000";
layers = (
{
associatedMasterId = "7A0DE5E5-1E54-4CA9-B3AD-4FF2FC8A5BCD";
layerId = "5C77429C-151B-44E3-BDAC-EE4D04BFF802";
name = "smallCounter-Test";
shapes = (
{
attr = {
strokeWidth = 80;
};
closed = 0;
nodes = (
(420,627,l),
(420,0,l)
);
},
{
attr = {
strokeWidth = 80;
};
closed = 0;
nodes = (
(-20,660,l),
(840,660,l)
);
},
{
attr = {
strokeHeight = 76;
strokeWidth = 80;
};
closed = 0;
nodes = (
(420,207,l),
(420,207,o),
(357,150,o),
(270,150,cs),
(157,150,o),
(100,224,o),
(100,310,cs),
(100,414,o),
(167,470,o),
(270,470,cs),
(325,470,o),
(385,448,o),
(420,394,c),
(446,442,o),
(506,470,o),
(570,470,cs),
(669,470,o),
(730,409,o),
(730,310,cs),
(730,211,o),
(669,150,o),
(570,150,cs),
(558,150,o),
(547,150,o),
(533,150,c)
);
}
);
width = 820;
},
{
associatedMasterId = "7A0DE5E5-1E54-4CA9-B3AD-4FF2FC8A5BCD";
guides = (
{
pos = (0,310);
}
);
layerId = "CFAF5A85-C354-4224-9FA4-8EE9BD28BD49";
name = "1";
shapes = (
{
closed = 1;
nodes = (
(515,215,l),
(515,217,l),
(522,217,o),
(516,217,o),
(519,217,cs),
(615,217,o),
(720,244,o),
(720,369,cs),
(720,432,o),
(673,468,o),
(603,468,cs),
(531,468,o),
(462,410,o),
(460,324,c),
(380,326,l),
(382,447,o),
(480,540,o),
(574,540,cs),
(669,540,o),
(778,450,o),
(778,324,cs),
(778,227,o),
(716,166,o),
(589,141,c)
);
},
{
closed = 1;
nodes = (
(384,454,l),
(384,454,o),
(329,468,o),
(268,468,cs),
(166,468,o),
(101,422,o),
(101,324,cs),
(101,252,o),
(143,211,o),
(216,211,cs),
(312,211,o),
(381,269,o),
(381,348,c),
(461,348,l),
(461,249,o),
(390,144,o),
(266,144,cs),
(145,144,o),
(40,243,o),
(40,358,cs),
(40,478,o),
(131,540,o),
(212,540,cs),
(276,540,o),
(346,505,o),
(387,457,c)
);
},
{
closed = 1;
nodes = (
(92,243,o),
(101,252,o),
(113,252,cs),
(123,252,o),
(132,243,o),
(132,232,cs),
(132,220,o),
(123,211,o),
(113,211,cs),
(101,211,o),
(92,220,o),
(92,232,cs)
);
},
{
closed = 1;
nodes = (
(273,213,o),
(291,230,o),
(313,230,cs),
(335,230,o),
(353,213,o),
(353,190,cs),
(353,169,o),
(335,151,o),
(313,151,cs),
(291,151,o),
(273,169,o),
(273,190,cs)
);
},
{
closed = 1;
nodes = (
(371,463,o),
(373,466,o),
(376,466,cs),
(379,466,o),
(381,463,o),
(381,461,cs),
(381,458,o),
(379,456,o),
(376,456,cs),
(373,456,o),
(371,458,o),
(371,461,cs)
);
},
{
closed = 1;
nodes = (
(561,207,o),
(579,224,o),
(601,224,cs),
(623,224,o),
(641,207,o),
(641,184,cs),
(641,163,o),
(623,145,o),
(601,145,cs),
(579,145,o),
(561,163,o),
(561,184,cs)
);
},
{
closed = 1;
nodes = (
(378,84,l),
(378,628,l),
(458,628,l),
(458,84,l)
);
},
{
closed = 1;
nodes = (
(458,208,l),
(458,1,l),
(455,1,l),
(338,70,l),
(338,73,l)
);
},
{
closed = 1;
nodes = (
(-142,700,l),
(822,700,l),
(892,620,l),
(-72,620,l)
);
}
);
width = 820;
},
{
associatedMasterId = "7A0DE5E5-1E54-4CA9-B3AD-4FF2FC8A5BCD";
guides = (
{
pos = (0,310);
}
);
layerId = "9F982731-EEB7-4653-88B3-7B27D2A81832";
name = "24 Apr 26 at 12:15";
shapes = (
{
closed = 1;
nodes = (
(515,195,l),
(515,197,l),
(522,197,o),
(516,197,o),
(519,197,cs),
(615,197,o),
(720,224,o),
(720,349,cs),
(720,412,o),
(673,448,o),
(603,448,cs),
(531,448,o),
(462,386,o),
(460,294,c),
(380,296,l),
(382,423,o),
(480,520,o),
(574,520,cs),
(669,520,o),
(778,430,o),
(778,304,cs),
(778,191,o),
(679,139,o),
(589,121,c)
);
},
{
closed = 1;
nodes = (
(384,434,l),
(384,434,o),
(329,448,o),
(268,448,cs),
(166,448,o),
(101,402,o),
(101,304,cs),
(101,232,o),
(143,191,o),
(216,191,cs),
(311,191,o),
(380,253,o),
(380,338,c),
(460,338,l),
(460,234,o),
(389,124,o),
(266,124,cs),
(145,124,o),
(40,223,o),
(40,338,cs),
(40,458,o),
(131,520,o),
(212,520,cs),
(276,520,o),
(346,485,o),
(387,437,c)
);
},
{
closed = 1;
nodes = (
(92,223,o),
(101,232,o),
(113,232,cs),
(123,232,o),
(132,223,o),
(132,212,cs),
(132,200,o),
(123,191,o),
(113,191,cs),
(101,191,o),
(92,200,o),
(92,212,cs)
);
},
{
closed = 1;
nodes = (
(273,193,o),
(291,210,o),
(313,210,cs),
(335,210,o),
(353,193,o),
(353,170,cs),
(353,149,o),
(335,131,o),
(313,131,cs),
(291,131,o),
(273,149,o),
(273,170,cs)
);
},
{
closed = 1;
nodes = (
(365,447,o),
(367,450,o),
(370,450,cs),
(373,450,o),
(375,447,o),
(375,445,cs),
(375,442,o),
(373,440,o),
(370,440,cs),
(367,440,o),
(365,442,o),
(365,445,cs)
);
},
{
closed = 1;
nodes = (
(561,187,o),
(579,204,o),
(601,204,cs),
(623,204,o),
(641,187,o),
(641,164,cs),
(641,143,o),
(623,125,o),
(601,125,cs),
(579,125,o),
(561,143,o),
(561,164,cs)
);
},
{
closed = 1;
nodes = (
(380,38,l),
(380,628,l),
(460,628,l),
(460,38,l)
);
},
{
closed = 1;
nodes = (
(-142,700,l),
(822,700,l),
(892,620,l),
(-72,620,l)
);
},
{
closed = 1;
nodes = (
(460,231,l),
(460,-45,l),
(457,-45,l),
(340,24,l),
(340,27,l)
);
}
);
width = 820;
},
{
associatedMasterId = "7A0DE5E5-1E54-4CA9-B3AD-4FF2FC8A5BCD";
guides = (
{
pos = (0,310);
}
);
layerId = "6857EBF8-EBA5-4CDD-A444-EE28C395956B";
name = "24 Apr 26 at 12:19";
shapes = (
{
closed = 1;
nodes = (
(525,215,l),
(525,217,l),
(532,217,o),
(526,217,o),
(529,217,cs),
(629,217,o),
(700,280,o),
(700,369,cs),
(700,420,o),
(665,448,o),
(603,448,cs),
(521,448,o),
(462,401,o),
(460,334,c),
(380,336,l),
(382,429,o),
(474,520,o),
(564,520,cs),
(678,520,o),
(758,439,o),
(758,324,cs),
(758,237,o),
(706,177,o),
(599,141,c)
);
},
{
closed = 1;
nodes = (
(384,434,l),
(384,434,o),
(329,448,o),
(268,448,cs),
(178,448,o),
(121,412,o),
(121,334,cs),
(121,262,o),
(156,221,o),
(216,221,cs),
(312,221,o),
(381,279,o),
(381,358,c),
(461,358,l),
(461,259,o),
(390,154,o),
(266,154,cs),
(156,154,o),
(60,253,o),
(60,368,cs),
(60,468,o),
(140,520,o),
(212,520,cs),
(276,520,o),
(346,485,o),
(387,437,c)
);
},
{
closed = 1;
nodes = (
(107,253,o),
(116,262,o),
(128,262,cs),
(138,262,o),
(147,253,o),
(147,242,cs),
(147,230,o),
(138,221,o),
(128,221,cs),
(116,221,o),
(107,230,o),
(107,242,cs)
);
},
{
closed = 1;
nodes = (
(293,233,o),
(311,250,o),
(333,250,cs),
(355,250,o),
(373,233,o),
(373,210,cs),
(373,189,o),
(355,171,o),
(333,171,cs),
(311,171,o),
(293,189,o),
(293,210,cs)
);
},
{
closed = 1;
nodes = (
(371,443,o),
(373,446,o),
(376,446,cs),
(379,446,o),
(381,443,o),
(381,441,cs),
(381,438,o),
(379,436,o),
(376,436,cs),
(373,436,o),
(371,438,o),
(371,441,cs)
);
},
{
closed = 1;
nodes = (
(378,84,l),
(378,628,l),
(458,628,l),
(458,84,l)
);
},
{
closed = 1;
nodes = (
(458,208,l),
(458,1,l),
(455,1,l),
(338,70,l),
(338,73,l)
);
},
{
closed = 1;
nodes = (
(-112,700,l),
(852,700,l),
(892,620,l),
(-72,620,l)
);
}
);
width = 820;
},
{
associatedMasterId = "7A0DE5E5-1E54-4CA9-B3AD-4FF2FC8A5BCD";
guides = (
{
pos = (0,310);
}
);
layerId = "73D2051F-DD31-4747-9374-9972DFE0B3CD";
name = "24 Apr 26 at 12:24";
shapes = (
{
closed = 1;
nodes = (
(432.99,619.5,o),
(407.01,634.5,o),
(381.029,649.5,c),
(381.029,440.148,o),
(381.029,231.148,o),
(381.029,22.5,c),
(407.01,7.5,o),
(432.99,-7.5,o),
(458.971,-22.5,c),
(458.971,186.852,o),
(458.971,395.852,o),
(458.971,604.5,c)
);
},
{
closed = 1;
nodes = (
(-30.603,670.607,o),
(-9.397,649.393,o),
(11.809,628.179,c),
(297.731,628.179,o),
(584.398,628.179,o),
(871.809,628.179,c),
(850.603,649.393,o),
(829.397,670.607,o),
(808.191,691.821,c),
(522.269,691.821,o),
(235.602,691.821,o),
(-51.809,691.821,c)
);
},
{
closed = 1;
nodes = (
(389.997,403.53,o),
(428.537,392.135,o),
(412.599,410.057,cs),
(375.622,451.635,o),
(298.704,497.128,o),
(242.584,497.128,cs),
(140.801,497.128,o),
(60.059,430.346,o),
(60.059,318.514,cs),
(60.059,234.948,o),
(144.653,122.872,o),
(277.416,122.872,cs),
(364.17,122.872,o),
(459.941,199.132,o),
(459.941,291.205,cs),
(459.941,345.433,o),
(557.8,442.872,o),
(627.416,442.872,cs),
(641.395,442.872,o),
(690.059,432.553,o),
(690.059,358.514,cs),
(690.059,244.131,o),
(612.476,181.978,o),
(508.687,181.978,cs),
(506.251,181.978,o),
(504.75,181.821,o),
(501.191,181.821,c),
(522.397,160.607,o),
(543.603,139.393,o),
(564.809,118.179,c),
(566.548,118.179,o),
(569.208,118.022,o),
(571.313,118.022,cs),
(690.638,118.022,o),
(769.941,212.754,o),
(769.941,321.486,cs),
(769.941,380.51,o),
(694.671,497.128,o),
(572.584,497.128,cs),
(488.6,497.128,o),
(380.059,394.982,o),
(380.059,328.234,cs),
(380.059,259.953,o),
(306.801,177.128,o),
(222.584,177.128,cs),
(179.192,177.128,o),
(139.941,181.737,o),
(139.941,281.486,cs),
(139.941,369.283,o),
(199.571,442.872,o),
(297.416,442.872,cs),
(329.47,442.872,o),
(354.94,442.951,o),
(375.401,419.943,cs)
);
},
{
closed = 1;
nodes = (
(-786.184,619.5,o),
(-812.165,634.5,o),
(-838.146,649.5,c),
(-838.146,440.148,o),
(-838.146,231.148,o),
(-838.146,22.5,c),
(-812.165,7.5,o),
(-786.184,-7.5,o),
(-760.203,-22.5,c),
(-760.203,186.852,o),
(-760.203,395.852,o),
(-760.203,604.5,c)
);
},
{
closed = 1;
nodes = (
(-1249.778,670.607,o),
(-1228.571,649.393,o),
(-1207.365,628.179,c),
(-921.443,628.179,o),
(-634.776,628.179,o),
(-347.365,628.179,c),
(-368.571,649.393,o),
(-389.778,670.607,o),
(-410.984,691.821,c),
(-696.906,691.821,o),
(-983.572,691.821,o),
(-1270.984,691.821,c)
);
},
{
closed = 1;
nodes = (
(-828.635,403.237,o),
(-790.42,392.233,o),
(-806.783,410.288,cs),
(-844.213,451.591,o),
(-918.535,497.128,o),
(-976.59,497.128,cs),
(-1078.56,497.128,o),
(-1159.115,430.532,o),
(-1159.115,318.514,cs),
(-1159.115,235.016,o),
(-1074.462,122.872,o),
(-941.759,122.872,cs),
(-855.495,122.872,o),
(-759.234,199.548,o),
(-759.234,291.486,cs),
(-759.234,345.292,o),
(-661.497,442.872,o),
(-591.759,442.872,cs),
(-577.859,442.872,o),
(-529.115,432.132,o),
(-529.115,358.514,cs),
(-529.115,243.689,o),
(-606.256,181.978,o),
(-710.487,181.978,cs),
(-712.653,181.978,o),
(-714.074,181.821,o),
(-717.984,181.821,c),
(-696.778,160.607,o),
(-675.571,139.393,o),
(-654.365,118.179,c),
(-652.275,118.179,o),
(-649.696,118.022,o),
(-647.862,118.022,cs),
(-528.093,118.022,o),
(-449.234,212.311,o),
(-449.234,321.486,cs),
(-449.234,380.175,o),
(-525.197,497.128,o),
(-646.59,497.128,cs),
(-730.852,497.128,o),
(-839.115,394.708,o),
(-839.115,328.514,cs),
(-839.115,260.452,o),
(-912.854,177.128,o),
(-996.59,177.128,cs),
(-1039.916,177.128,o),
(-1079.234,181.818,o),
(-1079.234,281.486,cs),
(-1079.234,369.468,o),
(-1019.789,442.872,o),
(-921.759,442.872,cs),
(-891.814,442.872,o),
(-864.135,442.409,o),
(-843.566,419.712,cs)
);
}
);
width = 820;
},
{
associatedMasterId = "7A0DE5E5-1E54-4CA9-B3AD-4FF2FC8A5BCD";
guides = (
{
pos = (0,310);
}
);
layerId = "9A085F2A-F32C-45AF-8279-FFBC42BDC664";
name = "24 Apr 26 at 12:31";
shapes = (
{
closed = 1;
nodes = (
(669.55,118.022,o),
(748.409,212.311,o),
(748.409,321.486,cs),
(748.409,380.175,o),
(672.446,497.128,o),
(551.053,497.128,cs),
(466.791,497.128,o),
(358.059,394.708,o),
(358.059,328.514,cs),
(358.059,260.452,o),
(284.788,177.128,o),
(201.053,177.128,cs),
(157.727,177.128,o),
(118.409,181.818,o),
(118.409,281.486,cs),
(118.409,369.468,o),
(177.853,442.872,o),
(275.884,442.872,cs),
(305.829,442.872,o),
(333.507,442.409,o),
(354.076,419.712,cs),
(369.007,403.237,o),
(407.223,392.233,o),
(390.86,410.288,cs),
(353.429,451.591,o),
(279.108,497.128,o),
(221.053,497.128,cs),
(119.083,497.128,o),
(38.528,430.532,o),
(38.528,318.514,cs),
(38.528,235.016,o),
(123.181,122.872,o),
(255.884,122.872,cs),
(342.148,122.872,o),
(437.941,199.548,o),
(437.941,291.486,cs),
(437.941,345.292,o),
(536.146,442.872,o),
(605.884,442.872,cs),
(619.783,442.872,o),
(668.528,432.132,o),
(668.528,358.514,cs),
(668.528,243.689,o),
(591.387,181.978,o),
(487.155,181.978,cs),
(484.99,181.978,o),
(483.569,181.821,o),
(479.659,181.821,c),
(500.865,160.607,o),
(522.071,139.393,o),
(543.278,118.179,c),
(545.367,118.179,o),
(547.947,118.022,o),
(549.781,118.022,cs)
);
},
{
closed = 1;
nodes = (
(438,-45,l),
(438,231,l),
(318,27,l),
(318,24,l),
(435,-45,l)
);
},
{
closed = 1;
nodes = (
(437.439,186.852,o),
(437.439,395.852,o),
(437.439,604.5,c),
(411.459,619.5,o),
(385.478,634.5,o),
(359.497,649.5,c),
(359.497,440.148,o),
(359.497,231.148,o),
(359.497,22.5,c),
(385.478,7.5,o),
(411.459,-7.5,o),
(437.439,-22.5,c)
);
},
{
closed = 1;
nodes = (
(276.2,628.179,o),
(562.866,628.179,o),
(850.278,628.179,c),
(829.071,649.393,o),
(807.865,670.607,o),
(786.659,691.821,c),
(500.737,691.821,o),
(214.07,691.821,o),
(-73.341,691.821,c),
(-52.135,670.607,o),
(-30.929,649.393,o),
(-9.722,628.179,c)
);
}
);
width = 820;
},
{
associatedMasterId = "7A0DE5E5-1E54-4CA9-B3AD-4FF2FC8A5BCD";
guides = (
{
pos = (0,310);
}
);
layerId = "0955BF49-EA83-432E-AE14-99212C56FF45";
name = "24 Apr 26 at 18:41";
shapes = (
{
closed = 1;
nodes = (
(515,195,l),
(515,197,l),
(522,197,o),
(516,197,o),
(519,197,cs),
(615,197,o),
(720,224,o),
(720,349,cs),
(720,412,o),
(673,448,o),
(603,448,cs),
(529,448,o),
(458,386,o),
(456,294,c),
(384,296,l),
(386,423,o),
(482,520,o),
(574,520,cs),
(669,520,o),
(778,430,o),
(778,304,cs),
(778,191,o),
(679,139,o),
(589,121,c)
);
},
{
closed = 1;
nodes = (
(384,434,l),
(384,434,o),
(329,448,o),
(268,448,cs),
(166,448,o),
(101,402,o),
(101,304,cs),
(101,232,o),
(143,191,o),
(216,191,cs),
(313,191,o),
(384,253,o),
(384,338,c),
(456,338,l),
(456,234,o),
(387,124,o),
(266,124,cs),
(145,124,o),
(40,223,o),
(40,338,cs),
(40,458,o),
(131,520,o),
(212,520,cs),
(276,520,o),
(346,485,o),
(387,437,c)
);
},
{
closed = 1;
nodes = (
(92,223,o),
(101,232,o),
(113,232,cs),
(123,232,o),
(132,223,o),
(132,212,cs),
(132,200,o),
(123,191,o),
(113,191,cs),
(101,191,o),
(92,200,o),
(92,212,cs)
);
},
{
closed = 1;
nodes = (
(273,193,o),
(291,210,o),
(313,210,cs),
(335,210,o),
(353,193,o),
(353,170,cs),
(353,149,o),
(335,131,o),
(313,131,cs),
(291,131,o),
(273,149,o),
(273,170,cs)
);
},
{
closed = 1;
nodes = (
(365,447,o),
(367,450,o),
(370,450,cs),
(373,450,o),
(375,447,o),
(375,445,cs),
(375,442,o),
(373,440,o),
(370,440,cs),
(367,440,o),
(365,442,o),
(365,445,cs)
);
},
{
closed = 1;
nodes = (
(561,187,o),
(579,204,o),
(601,204,cs),
(623,204,o),
(641,187,o),
(641,164,cs),
(641,143,o),
(623,125,o),
(601,125,cs),
(579,125,o),
(561,143,o),
(561,164,cs)
);
},
{
closed = 1;
nodes = (
(380,38,l),
(382,225,l),
(382,379,l),
(376,628,l),
(464,628,l),
(458,355,l),
(460,38,l)
);
},
{
closed = 1;
nodes = (
(-142,700,l),
(822,700,l),
(892,620,l),
(-72,620,l)
);
},
{
closed = 1;
nodes = (
(407,141,l),
(460,101,l),
(470,-45,l),
(467,-45,l),
(340,24,l),
(340,27,l)
);
}
);
width = 820;
},
{
associatedMasterId = "7A0DE5E5-1E54-4CA9-B3AD-4FF2FC8A5BCD";
guides = (
{
pos = (0,310);
}
);
layerId = "43FB16D2-99B8-468E-A8B5-C699FB226F7F";
name = "24 Apr 26 at 20:08";
shapes = (
{
attr = {
strokeHeight = 180;
strokeWidth = 200;
};
closed = 0;
nodes = (
(420,660,l),
(420,0,l)
);
},
{
attr = {
strokeHeight = 180;
strokeWidth = 200;
};
closed = 0;
nodes = (
(-31,660,l),
(849,660,l)
);
},
{
attr = {
strokeHeight = 180;
strokeWidth = 200;
};
closed = 0;
nodes = (
(419,221,l),
(419,221,o),
(349,160,o),
(250,160,cs),
(141,160,o),
(80,214,o),
(80,310,cs),
(80,401,o),
(141,452,o),
(250,452,cs),
(313,452,o),
(387,417,o),
(419,371,c),
(446,416,o),
(516,450,o),
(580,450,cs),
(683,450,o),
(740,400,o),
(740,310,cs),
(740,214,o),
(683,160,o),
(580,160,cs),
(568,160,o),
(554,161,o),
(539,161,c)
);
}
);
width = 820;
},
{
guides = (
{
pos = (0,310);
}
);
layerId = "7A0DE5E5-1E54-4CA9-B3AD-4FF2FC8A5BCD";
name = Regular;
shapes = (
{
attr = {
strokeWidth = 80;
};
closed = 0;
nodes = (
(420,660,l),
(420,0,l)
);
},
{
attr = {
strokeHeight = 76;
strokeWidth = 80;
};
closed = 0;
nodes = (
(-31,660,l),
(849,660,l)
);
},
{
attr = {
strokeHeight = 76;
strokeWidth = 80;
};
closed = 0;
nodes = (
(419,201,l),
(419,201,o),
(353,140,o),
(260,140,cs),
(148,140,o),
(80,204,o),
(80,310,cs),
(80,416,o),
(148,482,o),
(260,482,cs),
(319,482,o),
(381,458,o),
(419,401,c),
(453,458,o),
(512,480,o),
(580,480,cs),
(679,480,o),
(740,416,o),
(740,310,cs),
(740,204,o),
(679,140,o),
(580,140,cs),
(568,140,o),
(554,141,o),
(539,141,c)
);
}
);
width = 820;
}
);
unicode = 2325;
},
{
color = 7;
glyphname = "kha-deva";
layers = (
{
associatedMasterId = "7A0DE5E5-1E54-4CA9-B3AD-4FF2FC8A5BCD";
layerId = "CFAF5A85-C354-4224-9FA4-8EE9BD28BD49";
name = "1";
shapes = (
{
closed = 1;
nodes = (
(80,400,l),
(80,219,o),
(235,172,o),
(351,172,cs),
(449,172,o),
(557,215,o),
(555,307,c),
(631,277,l),
(631,148,o),
(500,92,o),
(361,92,cs),
(142,92,o),
(40,247,o),
(40,400,c)
);
},
{
closed = 1;
nodes = (
(567,479,l),
(567,479,o),
(525,491,o),
(478,491,cs),
(399,491,o),
(349,455,o),
(349,379,cs),
(349,324,o),
(381,291,o),
(438,291,c),
(512,291,o),
(564,335,o),
(564,397,c),
(626,397,l),
(626,320,o),
(573,239,o),
(476,239,cs),
(383,239,o),
(302,316,o),
(302,405,cs),
(302,498,o),
(371,546,o),
(435,546,cs),
(484,546,o),
(533,517,o),
(571,481,c)
);
},
{
closed = 1;
nodes = (
(242,659,l),
(242,596,o),
(241,537,o),
(241,472,cs),
(241,318,o),
(148,340,o),
(60,340,c),
(60,376,l),
(106,376,o),
(161,410,o),
(161,451,cs),
(161,513,o),
(160,571,o),
(160,660,c)
);
},
{
closed = 1;
nodes = (
(-161,700,l),
(753,700,l),
(823,620,l),
(-91,620,l)
);
},
{
closed = 1;
nodes = (
(560,83,l),
(560,627,l),
(640,627,l),
(640,83,l)
);
},
{
closed = 1;
nodes = (
(640,207,l),
(640,0,l),
(637,0,l),
(520,69,l),
(520,72,l)
);
}
);
width = 760;
},
{
layerId = "7A0DE5E5-1E54-4CA9-B3AD-4FF2FC8A5BCD";
shapes = (
{
attr = {
strokeWidth = 80;
};
closed = 0;
nodes = (
(640,660,l),
(640,0,l)
);
},
{
attr = {
strokeHeight = 76;
strokeWidth = 80;
};
closed = 0;
nodes = (
(-29,660,l),
(214,660,o),
(558,660,o),
(801,660,c)
);
},
{
attr = {
strokeHeight = 76;
strokeWidth = 80;
};
closed = 0;
nodes = (
(640,320,l),
(623,270,o),
(570,230,o),
(512,230,cs),
(440,230,o),
(370,284,o),
(370,370,c),
(370,449,o),
(430,510,o),
(509,510,cs),
(570,510,o),
(622,470,o),
(640,420,c)
);
},
{
attr = {
strokeHeight = 76;
strokeWidth = 80;
};
closed = 0;
nodes = (
(80,420,l),
(80,220,o),
(190,80,o),
(380,80,cs),
(505,80,o),
(605,141,o),
(642,240,c)
);
},
{
attr = {
strokeHeight = 76;
strokeWidth = 80;
};
closed = 0;
nodes = (
(80,660,l),
(192,660,o),
(260,603,o),
(260,510,cs),
(260,417,o),
(192,360,o),
(80,360,c)
);
}
);
width = 780;
}
);
unicode = 2326;
},
{
color = 7;
glyphname = "ga-deva";
lastChange = "2026-04-24 13:10:31 +0000";
layers = (
{
associatedMasterId = "7A0DE5E5-1E54-4CA9-B3AD-4FF2FC8A5BCD";
layerId = "CFAF5A85-C354-4224-9FA4-8EE9BD28BD49";
name = "1";
shapes = (
{
closed = 1;
nodes = (
(200,162,l),
(200,664,l),
(120,664,l),
(120,322,l),
(-20,322,l),
(-20,318,l),
(196,162,l)
);
},
{
closed = 1;
nodes = (
(480,-58,l),
(480,149,l),
(360,14,l),
(360,11,l),
(477,-58,l)
);
},
{
closed = 1;
nodes = (
(480,25,l),
(480,627,l),
(400,627,l),
(400,25,l)
);
},
{
closed = 1;
nodes = (
(732,620,l),
(662,700,l),
(-102,700,l),
(-32,620,l)
);
}
);
width = 580;
},
{
layerId = "7A0DE5E5-1E54-4CA9-B3AD-4FF2FC8A5BCD";
shapes = (
{
attr = {
strokeWidth = 80;
};
closed = 0;
nodes = (
(440,660,l),
(440,0,l)
);
},
{
attr = {
strokeHeight = 76;
strokeWidth = 80;
};
closed = 0;
nodes = (
(-20,660,l),
(600,660,l)
);
},
{
attr = {
strokeHeight = 76;
strokeWidth = 80;
};
closed = 0;
nodes = (
(160,660,l),
(160,340,ls),
(160,260,o),
(120,240,o),
(40,240,c)
);
}
);
width = 580;
},
{
associatedMasterId = "7A0DE5E5-1E54-4CA9-B3AD-4FF2FC8A5BCD";
layerId = "D695EB7A-3527-4294-9694-0EF2295F673C";
name = "24 Apr 26 at 18:39";
shapes = (
{
closed = 1;
nodes = (
(240,200,l),
(240,664,l),
(160,664,l),
(160,360,l),
(20,360,l),
(20,356,l),
(236,200,l)
);
},
{
closed = 1;
nodes = (
(520,0,l),
(520,207,l),
(400,72,l),
(400,69,l),
(517,0,l)
);
},
{
closed = 1;
nodes = (
(520,83,l),
(520,627,l),
(440,627,l),
(440,83,l)
);
},
{
closed = 1;
nodes = (
(732,620,l),
(662,700,l),
(-102,700,l),
(-32,620,l)
);
}
);
width = 620;
}
);
unicode = 2327;
},
{
color = 7;
glyphname = "gha-deva";
lastChange = "2026-04-24 14:07:07 +0000";
layers = (
{
associatedMasterId = "7A0DE5E5-1E54-4CA9-B3AD-4FF2FC8A5BCD";
layerId = "CFAF5A85-C354-4224-9FA4-8EE9BD28BD49";
name = "1";
shapes = (
{
closed = 1;
nodes = (
(484,129,o),
(580,239,o),
(580,360,c),
(501,360,l),
(501,271,o),
(386,183,o),
(269,183,cs),
(202,183,o),
(159,221,o),
(159,281,cs),
(159,343,o),
(218,380,o),
(288,380,cs),
(340,380,l),
(280,482,l),
(172,462,o),
(98,389,o),
(98,301,cs),
(98,201,o),
(194,129,o),
(334,129,cs)
);
},
{
closed = 1;
nodes = (
(581,-20,l),
(581,187,l),
(461,52,l),
(461,49,l),
(578,-20,l)
);
},
{
closed = 1;
nodes = (
(173,427,l),
(143,438,o),
(120,485,o),
(120,533,cs),
(120,592,o),
(154,622,o),
(220,622,c),
(220,698,l),
(113,698,o),
(40,638,o),
(40,549,cs),
(40,427,o),
(177,418,o),
(173,420,c)
);
},
{
closed = 1;
nodes = (
(581,63,l),
(581,627,l),
(501,627,l),
(501,63,l)
);
},
{
closed = 1;
nodes = (
(802,620,l),
(732,700,l),
(-142,700,l),
(-72,620,l)
);
}
);
width = 680;
},
{
layerId = "7A0DE5E5-1E54-4CA9-B3AD-4FF2FC8A5BCD";
shapes = (
{
attr = {
strokeHeight = 76;
strokeWidth = 80;
};
closed = 0;
nodes = (
(-20,660,l),
(710,660,l)
);
},
{
attr = {
strokeWidth = 80;
};
closed = 0;
nodes = (
(540,660,l),
(540,0,l)
);
},
{
attr = {
strokeHeight = 76;
strokeWidth = 80;
};
closed = 0;
nodes = (
(310,420,l),
(296,420,o),
(252,420,o),
(240,420,cs),
(139,420,o),
(80,465,o),
(80,540,cs),
(80,615,o),
(133,660,o),
(220,660,c)
);
},
{
attr = {
strokeHeight = 76;
strokeWidth = 80;
};
closed = 0;
nodes = (
(540,360,l),
(540,230,o),
(457,160,o),
(320,160,cs),
(208,160,o),
(140,213,o),
(140,300,cs),
(140,375,o),
(193,420,o),
(280,420,cs),
(293,420,o),
(317,420,o),
(320,420,c)
);
}
);
width = 680;
},
{
associatedMasterId = "7A0DE5E5-1E54-4CA9-B3AD-4FF2FC8A5BCD";
layerId = "3777D28B-3064-46B8-9DC2-F3B58EFF73CE";
name = "24 Apr 26 at 19:36";
shapes = (
{
closed = 1;
nodes = (
(484,129,o),
(580,239,o),
(580,360,c),
(501,360,l),
(501,271,o),
(386,183,o),
(269,183,cs),
(202,183,o),
(159,221,o),
(159,281,cs),
(159,343,o),
(218,380,o),
(288,380,cs),
(340,380,l),
(280,482,l),
(172,462,o),
(98,389,o),
(98,301,cs),
(98,201,o),
(194,129,o),
(334,129,cs)
);
},
{
closed = 1;
nodes = (
(171,170,o),
(162,179,o),
(162,190,cs),
(162,201,o),
(171,210,o),
(182,210,cs),
(193,210,o),
(202,201,o),
(202,190,cs),
(202,179,o),
(193,170,o),
(182,170,cs)
);
},
{
closed = 1;
nodes = (
(155,349,o),
(137,367,o),
(137,389,cs),
(137,411,o),
(155,429,o),
(177,429,cs),
(199,429,o),
(217,411,o),
(217,389,cs),
(217,367,o),
(199,349,o),
(177,349,cs)
);
},
{
closed = 1;
nodes = (
(383,140,o),
(365,158,o),
(365,180,cs),
(365,202,o),
(383,220,o),
(405,220,cs),
(427,220,o),
(445,202,o),
(445,180,cs),
(445,158,o),
(427,140,o),
(405,140,cs)
);
},
{
closed = 1;
nodes = (
(581,-20,l),
(581,187,l),
(461,52,l),
(461,49,l),
(578,-20,l)
);
},
{
closed = 1;
nodes = (
(173,427,l),
(143,438,o),
(120,485,o),
(120,533,cs),
(120,592,o),
(154,622,o),
(220,622,c),
(220,698,l),
(113,698,o),
(40,638,o),
(40,549,cs),
(40,427,o),
(177,418,o),
(173,420,c)
);
},
{
closed = 1;
nodes = (
(581,63,l),
(581,627,l),
(501,627,l),
(501,63,l)
);
},
{
closed = 1;
nodes = (
(702,620,l),
(632,700,l),
(-142,700,l),
(-72,620,l)
);
}
);
width = 680;
}
);
unicode = 2328;
},
{
color = 7;
glyphname = "nga-deva";
layers = (
{
associatedMasterId = "7A0DE5E5-1E54-4CA9-B3AD-4FF2FC8A5BCD";
layerId = "CFAF5A85-C354-4224-9FA4-8EE9BD28BD49";
name = "1";
shapes = (
{
closed = 1;
nodes = (
(-112,700,l),
(662,700,l),
(732,620,l),
(-42,620,l)
);
},
{
closed = 1;
nodes = (
(499,320,l),
(593,320,l),
(663,240,l),
(569,240,l)
);
},
{
closed = 1;
nodes = (
(360,661,l),
(440,661,l),
(440,440,l),
(220,440,ls),
(131,440,o),
(100,424,o),
(100,378,cs),
(100,335,o),
(128,320,o),
(208,320,cs),
(224,320,o),
(337,320,o),
(337,320,cs),
(445,320,o),
(516,254,o),
(516,154,cs),
(516,51,o),
(439,0,o),
(283,0,cs),
(105,0,o),
(39,83,o),
(39,281,c),
(134,200,l),
(106,156,o),
(99,140,o),
(99,140,c),
(99,140,o),
(92,80,o),
(261,80,cs),
(393,80,o),
(472,117,o),
(472,180,cs),
(472,221,o),
(439,240,o),
(368,240,cs),
(300,240,o),
(273,240,o),
(273,240,cs),
(144,240,o),
(57,304,o),
(57,392,cs),
(57,468,o),
(123,520,o),
(220,520,cs),
(360,520,l)
);
}
);
width = 640;
},
{
layerId = "7A0DE5E5-1E54-4CA9-B3AD-4FF2FC8A5BCD";
shapes = (
{
attr = {
strokeWidth = 80;
};
closed = 0;
nodes = (
(540,280,l),
(620,280,l)
);
},
{
attr = {
strokeWidth = 80;
};
closed = 0;
nodes = (
(420,661,l),
(420,480,l),
(240,480,ls),
(165,480,o),
(120,442,o),
(120,380,cs),
(120,318,o),
(165,280,o),
(240,280,cs),
(350,280,ls),
(434,280,o),
(480,240,o),
(480,170,cs),
(480,86,o),
(416,40,o),
(300,40,cs),
(170,40,o),
(100,100,o),
(100,200,c)
);
},
{
attr = {
strokeWidth = 76;
};
closed = 0;
nodes = (
(-20,660,l),
(640,660,l)
);
}
);
width = 620;
}
);
unicode = 2329;
},
{
color = 7;
glyphname = "ca-deva";
lastChange = "2026-04-24 13:10:55 +0000";
layers = (
{
associatedMasterId = "7A0DE5E5-1E54-4CA9-B3AD-4FF2FC8A5BCD";
layerId = "CFAF5A85-C354-4224-9FA4-8EE9BD28BD49";
name = "1";
shapes = (
{
closed = 1;
nodes = (
(478,140,o),
(554,239,o),
(560,380,c),
(480,380,l),
(480,268,o),
(391,196,o),
(283,196,cs),
(228,196,o),
(180,215,o),
(180,262,cs),
(180,327,o),
(273,400,o),
(280,400,c),
(277,460,l),
(235,460,o),
(122,408,o),
(122,298,cs),
(122,196,o),
(218,140,o),
(330,140,cs)
);
},
{
closed = 1;
nodes = (
(560,0,l),
(560,207,l),
(440,72,l),
(440,69,l),
(557,0,l)
);
},
{
closed = 1;
nodes = (
(340,400,l),
(300,460,l),
(0,480,l),
(58,400,l)
);
},
{
closed = 1;
nodes = (
(560,83,l),
(560,627,l),
(480,627,l),
(480,83,l)
);
},
{
closed = 1;
nodes = (
(762,620,l),
(692,700,l),
(-82,700,l),
(-12,620,l)
);
}
);
width = 660;
},
{
layerId = "7A0DE5E5-1E54-4CA9-B3AD-4FF2FC8A5BCD";
shapes = (
{
attr = {
strokeWidth = 80;
};
closed = 0;
nodes = (
(520,661,l),
(520,0,l)
);
},
{
attr = {
strokeWidth = 80;
};
closed = 0;
nodes = (
(520,360,l),
(520,230,o),
(456,160,o),
(330,160,cs),
(204,160,o),
(160,231,o),
(160,300,cs),
(160,377,o),
(212,420,o),
(300,420,c)
);
},
{
attr = {
strokeWidth = 76;
};
closed = 0;
nodes = (
(-60,660,l),
(699,660,l)
);
},
{
attr = {
strokeWidth = 76;
};
closed = 0;
nodes = (
(20,420,l),
(340,420,l)
);
}
);
width = 660;
}
);
unicode = 2330;
},
{
color = 7;
glyphname = "cha-deva";
lastChange = "2026-04-24 14:08:46 +0000";
layers = (
{
associatedMasterId = "7A0DE5E5-1E54-4CA9-B3AD-4FF2FC8A5BCD";
layerId = "CFAF5A85-C354-4224-9FA4-8EE9BD28BD49";
name = "1";
shapes = (
{
closed = 1;
nodes = (
(568,445,l),
(512,445,l),
(499,660,l),
(583,660,l)
);
},
{
closed = 1;
nodes = (
(-142,700,l),
(752,700,l),
(822,620,l),
(-72,620,l)
);
},
{
closed = 1;
nodes = (
(226,373,l),
(225,373,ls),
(135,373,o),
(40,423,o),
(40,522,cs),
(40,635,o),
(134,700,o),
(240,700,c),
(240,622,l),
(168,622,o),
(120,582,o),
(120,508,cs),
(120,456,o),
(168,388,o),
(226,380,c)
);
},
{
closed = 1;
nodes = (
(603,233,l),
(568,212,o),
(533,202,o),
(500,202,cs),
(431,202,o),
(373,259,o),
(373,335,cs),
(373,417,o),
(438,457,o),
(514,457,cs),
(621,457,o),
(682,385,o),
(682,280,cs),
(682,115,o),
(537,-1,o),
(379,-1,cs),
(245,-1,o),
(100,93,o),
(100,223,cs),
(100,322,o),
(166,399,o),
(270,407,c),
(321,320,l),
(236,320,o),
(180,299,o),
(180,204,cs),
(180,112,o),
(232,59,o),
(337,59,cs),
(488,59,o),
(607,159,o),
(607,318,cs),
(607,371,o),
(594,420,o),
(532,420,cs),
(484,420,o),
(455,376,o),
(455,318,cs),
(455,264,o),
(483,242,o),
(532,242,cs),
(558,242,o),
(589,248,o),
(603,250,c)
);
}
);
width = 720;
},
{
layerId = "7A0DE5E5-1E54-4CA9-B3AD-4FF2FC8A5BCD";
shapes = (
{
attr = {
strokeWidth = 80;
};
closed = 0;
nodes = (
(550,415,l),
(550,660,l)
);
},
{
attr = {
strokeWidth = 80;
};
closed = 0;
nodes = (
(300,380,l),
(264,380,ls),
(150,380,o),
(79,424,o),
(80,520,cs),
(81,607,o),
(140,660,o),
(240,660,c)
);
},
{
attr = {
strokeWidth = 80;
};
closed = 0;
nodes = (
(299,380,l),
(215,380,o),
(140,324,o),
(140,221,cs),
(140,107,o),
(233,40,o),
(378,40,cs),
(553,40,o),
(663,137,o),
(663,300,c),
(663,392,o),
(619,440,o),
(545,440,cs),
(469,440,o),
(430,390,o),
(430,324,cs),
(430,256,o),
(470,200,o),
(550,200,c),
(620,200,o),
(663,240,o),
(663,324,c)
);
},
{
attr = {
strokeWidth = 76;
};
closed = 0;
nodes = (
(-20,660,l),
(756,660,l)
);
}
);
width = 741;
},
{
associatedMasterId = "7A0DE5E5-1E54-4CA9-B3AD-4FF2FC8A5BCD";
layerId = "F5FC42C4-6372-41DD-8DED-A4FC2B9CCADC";
name = "24 Apr 26 at 19:38";
shapes = (
{
closed = 1;
nodes = (
(568,445,l),
(512,445,l),
(499,660,l),
(583,660,l)
);
},
{
closed = 1;
nodes = (
(-142,700,l),
(752,700,l),
(822,620,l),
(-72,620,l)
);
},
{
closed = 1;
nodes = (
(226,373,l),
(225,373,ls),
(135,373,o),
(40,423,o),
(40,522,cs),
(40,635,o),
(134,700,o),
(240,700,c),
(240,622,l),
(168,622,o),
(120,582,o),
(120,508,cs),
(120,456,o),
(168,388,o),
(226,380,c)
);
},
{
closed = 1;
nodes = (
(623,197,l),
(530,197,o),
(373,210,o),
(373,335,cs),
(373,417,o),
(438,457,o),
(514,457,cs),
(621,457,o),
(682,385,o),
(682,280,cs),
(682,115,o),
(537,-1,o),
(379,-1,cs),
(245,-1,o),
(100,93,o),
(100,223,cs),
(100,322,o),
(166,399,o),
(270,407,c),
(321,320,l),
(236,320,o),
(180,299,o),
(180,204,cs),
(180,112,o),
(232,59,o),
(337,59,cs),
(488,59,o),
(607,159,o),
(607,318,cs),
(607,371,o),
(594,420,o),
(532,420,cs),
(484,420,o),
(455,376,o),
(455,318,cs),
(455,267,o),
(476,246,o),
(512,246,cs),
(553,246,o),
(602,261,o),
(624,298,c)
);
}
);
width = 720;
}
);
unicode = 2331;
},
{
color = 7;
glyphname = "ja-deva";
lastChange = "2026-04-24 13:26:14 +0000";
layers = (
{
associatedMasterId = "7A0DE5E5-1E54-4CA9-B3AD-4FF2FC8A5BCD";
layerId = "CFAF5A85-C354-4224-9FA4-8EE9BD28BD49";
name = "1";
shapes = (
{
closed = 1;
nodes = (
(365,100,o),
(439,162,o),
(439,243,cs),
(439,321,o),
(376,386,o),
(301,386,c),
(301,380,l),
(336,379,o),
(373,324,o),
(373,272,cs),
(373,217,o),
(314,179,o),
(229,179,cs),
(110,179,o),
(100,260,o),
(100,260,c),
(100,260,o),
(112,276,o),
(159,337,c),
(87,439,l),
(50,393,o),
(40,369,o),
(40,327,cs),
(40,204,o),
(144,100,o),
(267,100,cs)
);
},
{
closed = 1;
nodes = (
(640,0,l),
(640,207,l),
(520,72,l),
(520,69,l),
(637,0,l)
);
},
{
closed = 1;
nodes = (
(601,380,l),
(558,460,l),
(229,440,l),
(270,380,l)
);
},
{
closed = 1;
nodes = (
(640,83,l),
(640,627,l),
(560,627,l),
(560,83,l)
);
},
{
closed = 1;
nodes = (
(872,620,l),
(802,700,l),
(-82,700,l),
(-12,620,l)
);
}
);
width = 740;
},
{
layerId = "7A0DE5E5-1E54-4CA9-B3AD-4FF2FC8A5BCD";
shapes = (
{
attr = {
strokeWidth = 80;
};
closed = 0;
nodes = (
(640,661,l),
(640,1,l)
);
},
{
attr = {
strokeWidth = 80;
};
closed = 0;
nodes = (
(80,400,l),
(80,300,o),
(123,140,o),
(280,140,cs),
(366,140,o),
(430,195,o),
(430,290,cs),
(430,362,o),
(396,420,o),
(280,420,c)
);
},
{
attr = {
strokeWidth = 76;
};
closed = 0;
nodes = (
(-60,660,l),
(-60,660,o),
(799,660,o),
(799,660,c)
);
},
{
attr = {
strokeWidth = 76;
};
closed = 0;
nodes = (
(280,421,l),
(620,420,l)
);
}
);
width = 780;
},
{
associatedMasterId = "7A0DE5E5-1E54-4CA9-B3AD-4FF2FC8A5BCD";
layerId = "8B842553-A68F-4232-9AE4-75B062907258";
name = "24 Apr 26 at 18:52";
shapes = (
{
closed = 1;
nodes = (
(391,100,o),
(469,166,o),
(469,253,cs),
(469,316,o),
(431,364,o),
(390,384,c),
(384,380,l),
(395,365,o),
(403,337,o),
(403,312,cs),
(403,233,o),
(340,179,o),
(249,179,cs),
(173,179,o),
(120,222,o),
(107,271,c),
(180,340,l),
(80,460,l),
(77,460,l),
(64,405,o),
(60,377,o),
(60,327,cs),
(60,204,o),
(164,100,o),
(287,100,cs)
);
},
{
closed = 1;
nodes = (
(660,-36,l),
(660,171,l),
(540,36,l),
(540,33,l),
(657,-36,l)
);
},
{
closed = 1;
nodes = (
(621,380,l),
(578,460,l),
(259,460,l),
(320,380,l)
);
},
{
closed = 1;
nodes = (
(660,47,l),
(660,627,l),
(580,627,l),
(580,47,l)
);
},
{
closed = 1;
nodes = (
(872,620,l),
(802,700,l),
(-82,700,l),
(-12,620,l)
);
}
);
width = 740;
}
);
unicode = 2332;
},
{
color = 7;
glyphname = "jha-deva";
lastChange = "2026-04-24 14:43:49 +0000";
layers = (
{
associatedMasterId = "7A0DE5E5-1E54-4CA9-B3AD-4FF2FC8A5BCD";
layerId = "CFAF5A85-C354-4224-9FA4-8EE9BD28BD49";
name = "1";
shapes = (
{
closed = 1;
nodes = (
(-112,700,l),
(812,700,l),
(882,620,l),
(-42,620,l)
);
},
{
closed = 1;
nodes = (
(117,228,l),
(91,187,o),
(97,172,o),
(97,172,c),
(97,172,o),
(90,115,o),
(250,115,cs),
(374,115,o),
(438,151,o),
(438,200,cs),
(438,250,o),
(418,260,o),
(351,260,cs),
(287,260,o),
(262,260,o),
(262,260,cs),
(128,260,o),
(60,326,o),
(60,410,cs),
(60,482,o),
(119,540,o),
(212,540,cs),
(340,540,l),
(340,663,l),
(421,663,l),
(421,460,l),
(212,460,ls),
(126,460,o),
(100,440,o),
(100,397,cs),
(100,356,o),
(124,340,o),
(200,340,cs),
(215,340,o),
(322,340,o),
(322,340,cs),
(423,340,o),
(480,279,o),
(480,185,cs),
(480,88,o),
(418,40,o),
(271,40,cs),
(126,40,o),
(62,97,o),
(44,228,c)
);
},
{
closed = 1;
nodes = (
(120,74,l),
(120,-74,l),
(120,-74,o),
(114,-74,o),
(113,-74,c),
(2,17,l),
(2,21,l)
);
},
{
closed = 1;
nodes = (
(40,21,l),
(40,228,l),
(120,228,l),
(120,21,l)
);
},
{
closed = 1;
nodes = (
(322,340,l),
(661,340,l),
(661,260,l),
(322,260,l)
);
},
{
closed = 1;
nodes = (
(620,83,l),
(620,627,l),
(700,627,l),
(700,83,l)
);
},
{
closed = 1;
nodes = (
(700,207,l),
(700,0,l),
(697,0,l),
(580,69,l),
(580,72,l)
);
}
);
width = 800;
},
{
guides = (
{
angle = 90;
pos = (479,0);
}
);
layerId = "7A0DE5E5-1E54-4CA9-B3AD-4FF2FC8A5BCD";
shapes = (
{
attr = {
strokeWidth = 80;
};
closed = 0;
nodes = (
(640,641,l),
(640,0,l)
);
},
{
attr = {
strokeWidth = 80;
};
closed = 0;
nodes = (
(619,300,l),
(340,300,l)
);
},
{
attr = {
strokeWidth = 80;
};
closed = 0;
nodes = (
(80,221,l),
(80,175,o),
(80,21,o),
(80,-60,c)
);
},
{
attr = {
strokeWidth = 80;
};
closed = 0;
nodes = (
(380,661,l),
(380,499,l),
(211,499,ls),
(141,499,o),
(99,456,o),
(99,398,cs),
(99,340,o),
(141,301,o),
(211,301,cs),
(314,301,ls),
(393,301,o),
(439,267,o),
(439,201,cs),
(439,123,o),
(376,80,o),
(267,80,cs),
(146,80,o),
(80,136,o),
(80,229,c)
);
},
{
attr = {
strokeWidth = 76;
};
closed = 0;
nodes = (
(-20,660,l),
(766,660,l)
);
}
);
width = 780;
},
{
associatedMasterId = "7A0DE5E5-1E54-4CA9-B3AD-4FF2FC8A5BCD";
guides = (
{
angle = 90;
pos = (479,0);
}
);
layerId = "73CDE796-2B03-490E-A132-7C6E9F185FB1";
name = "24 Apr 26 at 20:09";
shapes = (
{
attr = {
strokeHeight = 160;
strokeWidth = 200;
};
closed = 0;
nodes = (
(640,641,l),
(640,0,l)
);
},
{
attr = {
strokeHeight = 160;
strokeWidth = 180;
};
closed = 0;
nodes = (
(619,290,l),
(340,290,l)
);
},
{
attr = {
strokeHeight = 160;
strokeWidth = 200;
};
closed = 0;
nodes = (
(90,211,l),
(90,165,o),
(90,21,o),
(90,-60,c)
);
},
{
attr = {
strokeHeight = 160;
strokeWidth = 200;
};
closed = 0;
nodes = (
(380,651,l),
(380,479,l),
(211,479,ls),
(141,479,o),
(99,440,o),
(99,388,cs),
(99,330,o),
(141,291,o),
(211,291,cs),
(304,291,ls),
(377,291,o),
(419,254,o),
(419,181,cs),
(419,109,o),
(360,70,o),
(257,70,cs),
(149,70,o),
(90,126,o),
(90,219,c)
);
},
{
attr = {
strokeHeight = 180;
strokeWidth = 180;
};
closed = 0;
nodes = (
(-40,660,l),
(826,660,l)
);
}
);
width = 780;
}
);
unicode = 2333;
},
{
color = 7;
glyphname = "nya-deva";
layers = (
{
associatedMasterId = "7A0DE5E5-1E54-4CA9-B3AD-4FF2FC8A5BCD";
layerId = "CFAF5A85-C354-4224-9FA4-8EE9BD28BD49";
name = "1";
shapes = (
{
closed = 1;
nodes = (
(-131,701,l),
(783,701,l),
(853,621,l),
(-61,621,l)
);
},
{
closed = 1;
nodes = (
(417,283,l),
(376,343,l),
(585,363,l),
(628,283,l)
);
},
{
closed = 1;
nodes = (
(561,83,l),
(561,627,l),
(641,627,l),
(641,83,l)
);
},
{
closed = 1;
nodes = (
(641,207,l),
(641,0,l),
(638,0,l),
(521,69,l),
(521,72,l)
);
},
{
closed = 1;
nodes = (
(118,266,l),
(118,210,o),
(149,180,o),
(208,180,cs),
(293,180,o),
(344,242,o),
(344,344,cs),
(344,424,o),
(314,459,o),
(245,459,cs),
(194,459,o),
(168,439,o),
(140,382,c),
(80,480,l),
(121,507,o),
(162,520,o),
(205,520,cs),
(321,520,o),
(421,425,o),
(421,313,cs),
(421,210,o),
(336,120,o),
(238,120,cs),
(136,120,o),
(40,221,o),
(40,330,c)
);
}
);
width = 740;
},
{
layerId = "7A0DE5E5-1E54-4CA9-B3AD-4FF2FC8A5BCD";
shapes = (
{
closed = 0;
nodes = (
(600,660,l),
(600,0,l)
);
},
{
closed = 0;
nodes = (
(590,300,l),
(399,300,l)
);
},
{
closed = 0;
nodes = (
(137,416,l),
(168,440,o),
(195,450,o),
(234,450,cs),
(330,450,o),
(400,394,o),
(400,298,cs),
(400,202,o),
(339,130,o),
(240,130,cs),
(127,130,o),
(59,193,o),
(59,330,c)
);
},
{
closed = 1;
nodes = (
(560,660.008,l),
(640,660,l),
(640,0,l),
(560,0,l)
);
},
{
closed = 1;
nodes = (
(590,340,l),
(589.992,260,l),
(399,260,l),
(399,340,l)
);
},
{
closed = 1;
nodes = (
(137,464.459,l),
(166.354,481.973,o),
(196.319,490,o),
(234,490,cs),
(353.969,490,o),
(440,414.62,o),
(440,298,cs),
(440,178.8,o),
(360.158,90,o),
(240,90,cs),
(107.867,90,o),
(19,167.618,o),
(19,330,c),
(99,330,l),
(99,213.002,o),
(151.125,170,o),
(240,170,cs),
(313.867,170,o),
(360,220.921,o),
(360,298,cs),
(360,367.311,o),
(312.805,410,o),
(234,410,cs),
(202.448,410,o),
(175.76,405.744,o),
(136.994,380.538,c)
);
},
{
attr = {
strokeWidth = 76;
};
closed = 0;
nodes = (
(-20,660,l),
(766,660,l)
);
}
);
width = 740;
}
);
unicode = 2334;
},
{
color = 7;
glyphname = "tta-deva";
lastChange = "2026-04-24 14:25:55 +0000";
layers = (
{
associatedMasterId = "7A0DE5E5-1E54-4CA9-B3AD-4FF2FC8A5BCD";
layerId = "CFAF5A85-C354-4224-9FA4-8EE9BD28BD49";
name = "1";
shapes = (
{
closed = 1;
nodes = (
(379,660,l),
(459,660,l),
(459,420,l),
(267,420,ls),
(156,420,o),
(107,354,o),
(107,248,cs),
(107,133,o),
(167,60,o),
(286,60,cs),
(410,60,o),
(458,186,o),
(460,201,c),
(538,110,l),
(508,48,o),
(415,0,o),
(324,0,cs),
(165,0,o),
(40,125,o),
(40,282,cs),
(40,418,o),
(134,500,o),
(267,500,cs),
(379,500,l)
);
},
{
closed = 1;
nodes = (
(-142,700,l),
(642,700,l),
(702,620,l),
(-72,620,l)
);
}
);
width = 580;
},
{
layerId = "7A0DE5E5-1E54-4CA9-B3AD-4FF2FC8A5BCD";
shapes = (
{
attr = {
strokeWidth = 80;
};
closed = 0;
nodes = (
(420,660,l),
(420,460,l),
(280,460,ls),
(151,460,o),
(80,372,o),
(80,260,cs),
(80,125,o),
(185,40,o),
(310,40,cs),
(397,40,o),
(480,83,o),
(480,200,c)
);
},
{
attr = {
strokeWidth = 76;
};
closed = 0;
nodes = (
(-60,660,l),
(655,660,l)
);
}
);
width = 560;
}
);
unicode = 2335;
},
{
color = 7;
glyphname = "ttha-deva";
layers = (
{
associatedMasterId = "7A0DE5E5-1E54-4CA9-B3AD-4FF2FC8A5BCD";
layerId = "CFAF5A85-C354-4224-9FA4-8EE9BD28BD49";
name = "1";
shapes = (
{
closed = 1;
nodes = (
(522,230,o),
(536,431,o),
(401,431,c),
(401,464,l),
(516,464,o),
(602,366,o),
(602,236,cs),
(602,94,o),
(499,0,o),
(344,0,cs),
(169,0,o),
(40,119,o),
(40,279,cs),
(40,412,o),
(130,500,o),
(268,500,cs),
(380,500,l),
(380,660,l),
(460,660,l),
(460,420,l),
(268,420,ls),
(175,420,o),
(110,361,o),
(110,250,cs),
(110,126,o),
(178,54,o),
(294,54,cs),
(409,54,o),
(522,130,o),
(522,222,cs)
);
},
{
closed = 1;
nodes = (
(152,80,o),
(161,88,o),
(172,88,cs),
(183,88,o),
(192,80,o),
(192,69,cs),
(192,57,o),
(183,48,o),
(172,48,cs),
(161,48,o),
(152,57,o),
(152,69,cs)
);
},
{
closed = 1;
nodes = (
(479,422,o),
(488,430,o),
(499,430,cs),
(510,430,o),
(519,422,o),
(519,411,cs),
(519,399,o),
(510,390,o),
(499,390,cs),
(488,390,o),
(479,399,o),
(479,411,cs)
);
},
{
closed = 1;
nodes = (
(-142,700,l),
(642,700,l),
(702,620,l),
(-72,620,l)
);
}
);
width = 640;
},
{
layerId = "7A0DE5E5-1E54-4CA9-B3AD-4FF2FC8A5BCD";
shapes = (
{
attr = {
strokeWidth = 80;
};
closed = 0;
nodes = (
(391,460,l),
(529,444,o),
(560,321,o),
(560,260,cs),
(560,108,o),
(452,40,o),
(320,40,cs),
(175,40,o),
(80,134,o),
(80,260,cs),
(80,385,o),
(163,460,o),
(280,460,cs),
(380,460,l),
(380,661,l)
);
},
{
attr = {
strokeWidth = 76;
};
closed = 0;
nodes = (
(-60,660,l),
(655,660,l)
);
}
);
width = 640;
}
);
unicode = 2336;
},
{
color = 7;
glyphname = "dda-deva";
lastChange = "2026-04-24 14:27:28 +0000";
layers = (
{
associatedMasterId = "7A0DE5E5-1E54-4CA9-B3AD-4FF2FC8A5BCD";
layerId = "CFAF5A85-C354-4224-9FA4-8EE9BD28BD49";
name = "1";
shapes = (
{
closed = 1;
nodes = (
(-112,700,l),
(612,700,l),
(682,620,l),
(-42,620,l)
);
},
{
closed = 1;
nodes = (
(390,661,l),
(470,661,l),
(470,440,l),
(240,440,ls),
(174,440,o),
(128,415,o),
(128,370,cs),
(128,336,o),
(151,320,o),
(198,320,cs),
(220,320,o),
(349,320,o),
(349,320,cs),
(458,320,o),
(530,256,o),
(530,160,cs),
(530,57,o),
(453,0,o),
(315,0,cs),
(177,0,o),
(70,86,o),
(70,198,c),
(158,198,l),
(158,80,l),
(166,80,o),
(218,80,o),
(283,80,cs),
(412,80,o),
(490,117,o),
(490,180,cs),
(490,221,o),
(461,240,o),
(400,240,cs),
(302,240,o),
(263,240,o),
(263,240,cs),
(158,240,o),
(88,304,o),
(88,392,cs),
(88,468,o),
(150,520,o),
(240,520,cs),
(390,520,l)
);
}
);
width = 560;
},
{
layerId = "7A0DE5E5-1E54-4CA9-B3AD-4FF2FC8A5BCD";
shapes = (
{
attr = {
strokeWidth = 76;
};
closed = 0;
nodes = (
(-20,660,l),
(586,660,l)
);
},
{
attr = {
strokeWidth = 80;
};
closed = 0;
nodes = (
(420,661,l),
(420,480,l),
(240,480,ls),
(165,480,o),
(120,442,o),
(120,380,cs),
(120,318,o),
(165,280,o),
(240,280,cs),
(350,280,ls),
(434,280,o),
(480,240,o),
(480,170,cs),
(480,86,o),
(416,40,o),
(300,40,cs),
(170,40,o),
(100,100,o),
(100,200,c)
);
}
);
width = 540;
},
{
associatedMasterId = "7A0DE5E5-1E54-4CA9-B3AD-4FF2FC8A5BCD";
layerId = "C1F3A625-C500-4429-9E60-B4D66545B78B";
name = "24 Apr 26 at 19:41";
shapes = (
{
closed = 1;
nodes = (
(-112,700,l),
(612,700,l),
(682,620,l),
(-42,620,l)
);
},
{
closed = 1;
nodes = (
(362,661,l),
(442,661,l),
(442,440,l),
(222,440,ls),
(133,440,o),
(102,424,o),
(102,378,cs),
(102,335,o),
(130,320,o),
(210,320,cs),
(226,320,o),
(339,320,o),
(339,320,cs),
(447,320,o),
(518,254,o),
(518,154,cs),
(518,51,o),
(448,0,o),
(305,0,cs),
(112,0,o),
(41,83,o),
(41,281,c),
(136,200,l),
(108,156,o),
(101,140,o),
(101,140,c),
(100,112,o),
(92,80,o),
(283,80,cs),
(402,80,o),
(474,117,o),
(474,180,cs),
(474,221,o),
(441,240,o),
(370,240,cs),
(288,240,o),
(255,240,o),
(255,240,cs),
(138,240,o),
(59,304,o),
(59,392,cs),
(59,468,o),
(125,520,o),
(222,520,cs),
(362,520,l)
);
}
);
width = 560;
},
{
associatedMasterId = "7A0DE5E5-1E54-4CA9-B3AD-4FF2FC8A5BCD";
layerId = "B139EB8A-67E5-4771-833C-6862011C61E3";
name = "24 Apr 26 at 19:48";
shapes = (
{
closed = 1;
nodes = (
(-112,700,l),
(612,700,l),
(682,620,l),
(-42,620,l)
);
},
{
closed = 1;
nodes = (
(390,661,l),
(470,661,l),
(470,440,l),
(250,440,ls),
(184,440,o),
(138,415,o),
(138,370,cs),
(138,336,o),
(161,320,o),
(208,320,cs),
(229,320,o),
(339,320,o),
(339,320,cs),
(448,320,o),
(520,256,o),
(520,160,cs),
(520,57,o),
(447,0,o),
(315,0,cs),
(151,0,o),
(70,72,o),
(70,220,c),
(180,160,l),
(140,105,l),
(159,93,o),
(238,80,o),
(293,80,cs),
(410,80,o),
(480,117,o),
(480,180,cs),
(480,221,o),
(451,240,o),
(390,240,cs),
(306,240,o),
(273,240,o),
(273,240,cs),
(168,240,o),
(98,304,o),
(98,392,cs),
(98,468,o),
(160,520,o),
(250,520,cs),
(390,520,l)
);
}
);
width = 560;
}
);
unicode = 2337;
},
{
color = 7;
glyphname = "ddha-deva";
lastChange = "2026-04-24 14:10:08 +0000";
layers = (
{
associatedMasterId = "7A0DE5E5-1E54-4CA9-B3AD-4FF2FC8A5BCD";
layerId = "CFAF5A85-C354-4224-9FA4-8EE9BD28BD49";
name = "1";
shapes = (
{
closed = 1;
nodes = (
(499,104,o),
(398,62,o),
(278,62,cs),
(187,62,o),
(112,126,o),
(112,242,cs),
(112,351,o),
(195,420,o),
(267,420,cs),
(459,420,l),
(459,660,l),
(379,660,l),
(379,500,l),
(267,500,ls),
(125,500,o),
(40,417,o),
(40,281,cs),
(40,110,o),
(182,0,o),
(346,0,cs),
(449,0,o),
(550,50,o),
(550,164,cs),
(550,254,o),
(488,314,o),
(401,314,cs),
(336,314,o),
(280,275,o),
(280,206,cs),
(280,98,o),
(414,79,o),
(496,79,c),
(497,167,l),
(479,137,o),
(439,122,o),
(406,122,cs),
(365,122,o),
(340,147,o),
(340,188,cs),
(340,233,o),
(372,274,o),
(419,274,cs),
(461,274,o),
(499,240,o),
(499,197,cs)
);
},
{
closed = 1;
nodes = (
(-96,620,l),
(678,620,l),
(618,700,l),
(-166,700,l)
);
}
);
width = 580;
},
{
layerId = "7A0DE5E5-1E54-4CA9-B3AD-4FF2FC8A5BCD";
shapes = (
{
attr = {
strokeWidth = 80;
};
closed = 0;
nodes = (
(340,160,l),
(340,227,o),
(368,260,o),
(422,260,cs),
(486,260,o),
(510,213,o),
(510,166,cs),
(510,82,o),
(433,40,o),
(330,40,cs),
(179,40,o),
(80,129,o),
(80,261,cs),
(80,372,o),
(150,460,o),
(280,460,cs),
(420,460,l),
(420,660,l)
);
},
{
attr = {
strokeWidth = 76;
};
closed = 0;
nodes = (
(-20,660,l),
(600,660,l)
);
}
);
width = 580;
},
{
associatedMasterId = "7A0DE5E5-1E54-4CA9-B3AD-4FF2FC8A5BCD";
layerId = "82804EEF-67CD-4972-8555-FC8531CEB9EF";
name = "24 Apr 26 at 19:39";
shapes = (
{
closed = 1;
nodes = (
(499,104,o),
(398,62,o),
(278,62,cs),
(187,62,o),
(112,126,o),
(112,242,cs),
(112,351,o),
(195,420,o),
(267,420,cs),
(459,420,l),
(459,660,l),
(379,660,l),
(379,500,l),
(267,500,ls),
(125,500,o),
(40,417,o),
(40,281,cs),
(40,110,o),
(182,0,o),
(346,0,cs),
(449,0,o),
(550,50,o),
(550,164,cs),
(550,254,o),
(488,314,o),
(401,314,cs),
(336,314,o),
(280,275,o),
(280,206,cs),
(280,98,o),
(414,79,o),
(496,79,c),
(497,167,l),
(479,137,o),
(439,122,o),
(406,122,cs),
(365,122,o),
(340,147,o),
(340,188,cs),
(340,233,o),
(372,274,o),
(419,274,cs),
(461,274,o),
(499,240,o),
(499,197,cs)
);
},
{
closed = 1;
nodes = (
(-96,620,l),
(678,620,l),
(618,700,l),
(-166,700,l)
);
}
);
width = 580;
}
);
unicode = 2338;
},
{
color = 7;
glyphname = "nna-deva";
lastChange = "2026-04-24 13:01:08 +0000";
layers = (
{
associatedMasterId = "7A0DE5E5-1E54-4CA9-B3AD-4FF2FC8A5BCD";
layerId = "CFAF5A85-C354-4224-9FA4-8EE9BD28BD49";
name = "1";
shapes = (
{
closed = 1;
nodes = (
(599,83,l),
(599,627,l),
(679,627,l),
(679,83,l)
);
},
{
closed = 1;
nodes = (
(679,207,l),
(679,0,l),
(676,0,l),
(559,69,l),
(559,72,l)
);
},
{
closed = 1;
nodes = (
(360,660,l),
(440,660,l),
(440,432,ls),
(440,289,o),
(379,219,o),
(254,219,cs),
(137,219,o),
(80,279,o),
(80,402,cs),
(80,660,l),
(160,660,l),
(160,382,ls),
(160,299,o),
(186,258,o),
(238,258,cs),
(310,258,o),
(360,322,o),
(360,412,cs)
);
},
{
closed = 1;
nodes = (
(-142,700,l),
(832,700,l),
(902,620,l),
(-72,620,l)
);
}
);
visible = 1;
width = 780;
},
{
layerId = "7A0DE5E5-1E54-4CA9-B3AD-4FF2FC8A5BCD";
shapes = (
{
attr = {
strokeWidth = 80;
};
closed = 0;
nodes = (
(400,660,l),
(400,380,l),
(400,290,o),
(350,240,o),
(260,240,cs),
(170,240,o),
(120,290,o),
(120,380,cs),
(120,661,l)
);
},
{
attr = {
strokeWidth = 80;
};
closed = 0;
nodes = (
(640,661,l),
(640,0,l)
);
},
{
attr = {
strokeWidth = 76;
};
closed = 0;
nodes = (
(-20,660,l),
(800,660,l)
);
}
);
width = 780;
},
{
associatedMasterId = "7A0DE5E5-1E54-4CA9-B3AD-4FF2FC8A5BCD";
layerId = "23187B9D-EDA5-44F6-A42F-95B1329CF7F5";
name = "24 Apr 26 at 18:30";
shapes = (
{
closed = 1;
nodes = (
(599,83,l),
(599,627,l),
(679,627,l),
(679,83,l)
);
},
{
closed = 1;
nodes = (
(679,207,l),
(679,0,l),
(676,0,l),
(559,69,l),
(559,72,l)
);
},
{
closed = 1;
nodes = (
(360,660,l),
(440,660,l),
(440,460,ls),
(440,295,o),
(382,237,o),
(224,237,cs),
(119,237,o),
(80,305,o),
(80,390,cs),
(80,660,l),
(160,660,l),
(160,390,ls),
(160,327,o),
(173,276,o),
(228,276,cs),
(311,276,o),
(360,355,o),
(360,460,cs)
);
},
{
closed = 1;
nodes = (
(-142,700,l),
(832,700,l),
(902,620,l),
(-72,620,l)
);
}
);
width = 780;
}
);
unicode = 2339;
},
{
color = 7;
glyphname = "ta-deva";
lastChange = "2026-04-24 13:33:51 +0000";
layers = (
{
associatedMasterId = "7A0DE5E5-1E54-4CA9-B3AD-4FF2FC8A5BCD";
layerId = "CFAF5A85-C354-4224-9FA4-8EE9BD28BD49";
name = "1";
shapes = (
{
closed = 1;
nodes = (
(450,450,l),
(450,370,l),
(240,370,ls),
(161,370,o),
(120,337,o),
(120,220,cs),
(120,151,o),
(151,40,o),
(280,40,c),
(280,1,l),
(186,1,o),
(40,109,o),
(40,269,cs),
(40,379,o),
(121,450,o),
(220,450,cs)
);
},
{
closed = 1;
nodes = (
(100,131,o),
(109,140,o),
(120,140,cs),
(131,140,o),
(140,131,o),
(140,120,cs),
(140,109,o),
(131,100,o),
(120,100,cs),
(109,100,o),
(100,109,o),
(100,120,cs)
);
},
{
closed = 1;
nodes = (
(280,1,l),
(103,120,l),
(280,120,l)
);
},
{
closed = 1;
nodes = (
(-82,700,l),
(652,700,l),
(722,620,l),
(-12,620,l)
);
},
{
closed = 1;
nodes = (
(421,83,l),
(421,627,l),
(501,627,l),
(501,83,l)
);
},
{
closed = 1;
nodes = (
(501,207,l),
(501,0,l),
(498,0,l),
(381,69,l),
(381,72,l)
);
}
);
width = 620;
},
{
layerId = "7A0DE5E5-1E54-4CA9-B3AD-4FF2FC8A5BCD";
shapes = (
{
attr = {
lineCapEnd = 4;
strokeWidth = 80;
};
closed = 0;
nodes = (
(460,660,l),
(460,0,l)
);
},
{
attr = {
lineCapEnd = 4;
strokeWidth = 80;
};
closed = 0;
nodes = (
(460,400,l),
(230,400,ls),
(135,400,o),
(80,352,o),
(80,270,cs),
(80,192,o),
(130,96,o),
(210,0,c)
);
},
{
attr = {
strokeWidth = 76;
};
closed = 0;
nodes = (
(-20,660,l),
(620,660,l)
);
}
);
width = 600;
}
);
unicode = 2340;
},
{
color = 7;
glyphname = "tha-deva";
layers = (
{
associatedMasterId = "7A0DE5E5-1E54-4CA9-B3AD-4FF2FC8A5BCD";
layerId = "CFAF5A85-C354-4224-9FA4-8EE9BD28BD49";
name = "1";
shapes = (
{
attr = {
strokeWidth = 80;
};
closed = 0;
nodes = (
(80,540,l),
(80,588,o),
(100,662,o),
(187,662,cs),
(254,662,o),
(290,617,o),
(290,533,cs),
(290,428,o),
(233,380,o),
(80,380,c)
);
},
{
attr = {
strokeWidth = 80;
};
closed = 0;
nodes = (
(480,660,l),
(480,0,l)
);
},
{
attr = {
strokeWidth = 80;
};
closed = 0;
nodes = (
(80,420,l),
(80,272,o),
(139,160,o),
(290,160,cs),
(429,160,o),
(480,254,o),
(480,320,c)
);
},
{
attr = {
strokeWidth = 76;
};
closed = 0;
nodes = (
(380,660,l),
(660,660,l)
);
}
);
width = 620;
},
{
layerId = "7A0DE5E5-1E54-4CA9-B3AD-4FF2FC8A5BCD";
shapes = (
{
attr = {
strokeWidth = 80;
};
closed = 0;
nodes = (
(80,540,l),
(80,588,o),
(100,662,o),
(187,662,cs),
(254,662,o),
(290,617,o),
(290,533,cs),
(290,428,o),
(233,380,o),
(80,380,c)
);
},
{
attr = {
strokeWidth = 80;
};
closed = 0;
nodes = (
(480,660,l),
(480,0,l)
);
},
{
attr = {
strokeWidth = 80;
};
closed = 0;
nodes = (
(80,420,l),
(80,272,o),
(139,160,o),
(290,160,cs),
(429,160,o),
(480,254,o),
(480,320,c)
);
},
{
attr = {
strokeWidth = 76;
};
closed = 0;
nodes = (
(380,660,l),
(660,660,l)
);
}
);
width = 620;
}
);
unicode = 2341;
},
{
color = 7;
glyphname = "da-deva";
lastChange = "2026-04-24 14:32:18 +0000";
layers = (
{
associatedMasterId = "7A0DE5E5-1E54-4CA9-B3AD-4FF2FC8A5BCD";
layerId = "CFAF5A85-C354-4224-9FA4-8EE9BD28BD49";
name = "1";
shapes = (
{
closed = 1;
nodes = (
(367,80,o),
(439,92,o),
(470,144,cs),
(476,154,o),
(485,173,o),
(485,177,cs),
(485,181,o),
(390,277,o),
(380,287,c),
(380,180,l),
(359,162,o),
(331,135,o),
(277,135,cs),
(189,135,o),
(114,178,o),
(114,270,cs),
(114,376,o),
(158,420,o),
(243,420,cs),
(420,420,l),
(420,660,l),
(340,660,l),
(340,500,l),
(243,500,ls),
(134,500,o),
(40,431,o),
(40,316,cs),
(40,181,o),
(174,80,o),
(306,80,cs)
);
},
{
closed = 1;
nodes = (
(143,129,o),
(134,138,o),
(134,149,cs),
(134,160,o),
(143,169,o),
(154,169,cs),
(165,169,o),
(174,160,o),
(174,149,cs),
(174,138,o),
(165,129,o),
(154,129,cs)
);
},
{
closed = 1;
nodes = (
(460,-100,l),
(460,56,l),
(340,0,l),
(340,-4,l),
(456,-100,l)
);
},
{
closed = 1;
nodes = (
(460,0,l),
(460,180,l),
(380,180,l),
(380,0,l)
);
},
{
closed = 1;
nodes = (
(95,371,o),
(77,389,o),
(77,411,cs),
(77,433,o),
(95,451,o),
(117,451,cs),
(139,451,o),
(157,433,o),
(157,411,cs),
(157,389,o),
(139,371,o),
(117,371,cs)
);
},
{
closed = 1;
nodes = (
(678,620,l),
(618,700,l),
(-166,700,l),
(-96,620,l)
);
}
);
width = 520;
},
{
layerId = "7A0DE5E5-1E54-4CA9-B3AD-4FF2FC8A5BCD";
shapes = (
{
attr = {
strokeWidth = 80;
};
closed = 0;
nodes = (
(440,255,l),
(440,176,o),
(374,120,o),
(280,120,c),
(155,120,o),
(80,191,o),
(80,305,cs),
(80,419,o),
(156,480,o),
(290,480,cs),
(400,480,l),
(400,658,l)
);
},
{
attr = {
strokeWidth = 80;
};
closed = 0;
nodes = (
(440,280,l),
(440,0,l)
);
},
{
attr = {
strokeWidth = 76;
};
closed = 0;
nodes = (
(-20,660,l),
(-20,660,o),
(578,660,o),
(578,660,c)
);
}
);
width = 520;
},
{
associatedMasterId = "7A0DE5E5-1E54-4CA9-B3AD-4FF2FC8A5BCD";
layerId = "4C1D9F9E-83CF-4AC2-89D2-E44BE045622D";
name = "24 Apr 26 at 19:51";
shapes = (
{
closed = 1;
nodes = (
(410,90,o),
(500,145,o),
(500,197,cs),
(500,201,o),
(410,288,o),
(400,297,c),
(400,200,l),
(368,165,o),
(320,145,o),
(267,145,cs),
(169,145,o),
(114,193,o),
(114,280,cs),
(114,383,o),
(174,440,o),
(283,440,cs),
(440,440,l),
(440,680,l),
(360,680,l),
(360,520,l),
(283,520,ls),
(127,520,o),
(40,447,o),
(40,316,cs),
(40,188,o),
(156,90,o),
(306,90,cs)
);
},
{
closed = 1;
nodes = (
(480,-60,l),
(480,176,l),
(360,40,l),
(360,36,l),
(476,-60,l)
);
},
{
closed = 1;
nodes = (
(480,40,l),
(480,180,l),
(400,200,l),
(400,40,l)
);
},
{
closed = 1;
nodes = (
(678,620,l),
(618,700,l),
(-166,700,l),
(-96,620,l)
);
}
);
width = 520;
},
{
associatedMasterId = "7A0DE5E5-1E54-4CA9-B3AD-4FF2FC8A5BCD";
layerId = "5A32AEC0-079D-453B-8F10-73DBC50D854D";
name = "24 Apr 26 at 19:53";
shapes = (
{
closed = 1;
nodes = (
(410,90,o),
(479,145,o),
(500,197,c),
(500,201,o),
(400,288,o),
(390,297,c),
(390,200,l),
(360,165,o),
(316,145,o),
(267,145,cs),
(169,145,o),
(114,193,o),
(114,280,cs),
(114,383,o),
(174,440,o),
(283,440,cs),
(440,440,l),
(440,680,l),
(360,680,l),
(360,520,l),
(283,520,ls),
(127,520,o),
(40,447,o),
(40,316,cs),
(40,188,o),
(156,90,o),
(306,90,cs)
);
},
{
closed = 1;
nodes = (
(480,-45,l),
(470,101,l),
(417,131,l),
(350,27,l),
(350,24,l),
(477,-45,l)
);
},
{
closed = 1;
nodes = (
(470,40,l),
(470,180,l),
(400,200,l),
(400,40,l)
);
},
{
closed = 1;
nodes = (
(678,620,l),
(618,700,l),
(-166,700,l),
(-96,620,l)
);
}
);
width = 520;
}
);
unicode = 2342;
},
{
color = 7;
glyphname = "dha-deva";
lastChange = "2026-04-24 14:07:17 +0000";
layers = (
{
associatedMasterId = "7A0DE5E5-1E54-4CA9-B3AD-4FF2FC8A5BCD";
layerId = "CFAF5A85-C354-4224-9FA4-8EE9BD28BD49";
name = "1";
shapes = (
{
closed = 1;
nodes = (
(484,129,o),
(580,239,o),
(580,360,c),
(501,360,l),
(501,278,o),
(377,183,o),
(269,183,cs),
(202,183,o),
(159,221,o),
(159,281,cs),
(159,343,o),
(218,380,o),
(288,380,cs),
(340,380,l),
(280,482,l),
(172,462,o),
(98,389,o),
(98,301,cs),
(98,201,o),
(194,129,o),
(334,129,cs)
);
},
{
closed = 1;
nodes = (
(171,170,o),
(162,179,o),
(162,190,cs),
(162,201,o),
(171,210,o),
(182,210,cs),
(193,210,o),
(202,201,o),
(202,190,cs),
(202,179,o),
(193,170,o),
(182,170,cs)
);
},
{
closed = 1;
nodes = (
(155,349,o),
(137,367,o),
(137,389,cs),
(137,411,o),
(155,429,o),
(177,429,cs),
(199,429,o),
(217,411,o),
(217,389,cs),
(217,367,o),
(199,349,o),
(177,349,cs)
);
},
{
closed = 1;
nodes = (
(383,140,o),
(365,158,o),
(365,180,cs),
(365,202,o),
(383,220,o),
(405,220,cs),
(427,220,o),
(445,202,o),
(445,180,cs),
(445,158,o),
(427,140,o),
(405,140,cs)
);
},
{
closed = 1;
nodes = (
(173,427,l),
(143,438,o),
(120,485,o),
(120,533,cs),
(120,592,o),
(154,620,o),
(220,620,c),
(310,539,l),
(310,691,ls),
(310,691,o),
(274,700,o),
(220,700,cs),
(113,700,o),
(40,638,o),
(40,549,cs),
(40,427,o),
(177,418,o),
(173,420,c)
);
},
{
alignment = -1;
pos = (461,3);
ref = stemserif;
},
{
closed = 1;
nodes = (
(731,620,l),
(661,700,l),
(367,700,l),
(437,620,l)
);
}
);
width = 680;
},
{
layerId = "7A0DE5E5-1E54-4CA9-B3AD-4FF2FC8A5BCD";
shapes = (
{
attr = {
strokeWidth = 80;
};
closed = 0;
nodes = (
(540,661,l),
(540,0,l)
);
},
{
attr = {
strokeWidth = 80;
};
closed = 0;
nodes = (
(310,420,l),
(296,420,o),
(252,420,o),
(252,420,cs),
(139,420,o),
(80,465,o),
(80,544,cs),
(80,612,o),
(123,660,o),
(198,660,cs),
(277,660,o),
(300,608,o),
(300,560,c)
);
},
{
attr = {
strokeWidth = 80;
};
closed = 0;
nodes = (
(540,360,l),
(540,230,o),
(457,160,o),
(324,160,cs),
(208,160,o),
(140,213,o),
(140,299,cs),
(140,375,o),
(193,420,o),
(280,420,cs),
(293,420,o),
(317,420,o),
(320,420,c)
);
},
{
attr = {
strokeWidth = 76;
};
closed = 0;
nodes = (
(419,660,l),
(715,660,l)
);
}
);
width = 680;
}
);
unicode = 2343;
},
{
color = 7;
glyphname = "na-deva";
layers = (
{
associatedMasterId = "7A0DE5E5-1E54-4CA9-B3AD-4FF2FC8A5BCD";
layerId = "CFAF5A85-C354-4224-9FA4-8EE9BD28BD49";
name = "1";
shapes = (
{
closed = 1;
nodes = (
(400,83,l),
(400,627,l),
(480,627,l),
(480,83,l)
);
},
{
closed = 1;
nodes = (
(480,207,l),
(480,0,l),
(477,0,l),
(360,69,l),
(360,72,l)
);
},
{
closed = 1;
nodes = (
(-142,700,l),
(622,700,l),
(692,620,l),
(-72,620,l)
);
},
{
closed = 1;
nodes = (
(434,400,l),
(434,320,l),
(180,320,l),
(180,180,l),
(176,180,l),
(20,396,l),
(20,400,l)
);
}
);
width = 580;
},
{
layerId = "7A0DE5E5-1E54-4CA9-B3AD-4FF2FC8A5BCD";
shapes = (
{
attr = {
strokeWidth = 80;
};
closed = 0;
nodes = (
(440,628,l),
(440,1,l)
);
},
{
attr = {
strokeWidth = 80;
};
closed = 0;
nodes = (
(141,333,l),
(141,240,ls),
(141,201,o),
(21,360,o),
(121,360,cs),
(439,360,l)
);
},
{
attr = {
strokeWidth = 76;
};
closed = 0;
nodes = (
(-20,660,l),
(603,660,l)
);
}
);
width = 580;
}
);
unicode = 2344;
},
{
color = 7;
glyphname = "pa-deva";
lastChange = "2026-04-24 13:30:18 +0000";
layers = (
{
associatedMasterId = "7A0DE5E5-1E54-4CA9-B3AD-4FF2FC8A5BCD";
layerId = "CFAF5A85-C354-4224-9FA4-8EE9BD28BD49";
name = "1";
shapes = (
{
closed = 1;
nodes = (
(400,83,l),
(400,627,l),
(480,627,l),
(480,83,l)
);
},
{
closed = 1;
nodes = (
(480,207,l),
(480,0,l),
(477,0,l),
(360,69,l),
(360,72,l)
);
},
{
closed = 1;
nodes = (
(-142,700,l),
(632,700,l),
(702,620,l),
(-72,620,l)
);
},
{
closed = 1;
nodes = (
(80,660,l),
(160,660,l),
(160,390,ls),
(160,327,o),
(175,276,o),
(230,276,cs),
(303,276,o),
(400,367,o),
(400,460,c),
(480,460,l),
(480,295,o),
(369,237,o),
(258,237,cs),
(129,237,o),
(80,305,o),
(80,390,cs)
);
},
{
closed = 1;
nodes = (
(165,279,o),
(174,288,o),
(185,288,cs),
(196,288,o),
(205,279,o),
(205,268,cs),
(205,256,o),
(196,247,o),
(185,247,cs),
(174,247,o),
(165,256,o),
(165,268,cs)
);
},
{
closed = 1;
nodes = (
(80,476,o),
(98,493,o),
(120,493,cs),
(142,493,o),
(160,476,o),
(160,454,cs),
(160,432,o),
(142,414,o),
(120,414,cs),
(98,414,o),
(80,432,o),
(80,454,cs)
);
},
{
closed = 1;
nodes = (
(334,331,o),
(352,348,o),
(374,348,cs),
(396,348,o),
(414,331,o),
(414,309,cs),
(414,287,o),
(396,269,o),
(374,269,cs),
(352,269,o),
(334,287,o),
(334,309,cs)
);
}
);
width = 580;
},
{
layerId = "7A0DE5E5-1E54-4CA9-B3AD-4FF2FC8A5BCD";
shapes = (
{
attr = {
strokeWidth = 80;
};
closed = 0;
nodes = (
(440,660,l),
(440,0,l)
);
},
{
attr = {
strokeWidth = 80;
};
closed = 0;
nodes = (
(120,660,l),
(120,400,ls),
(120,306,o),
(186,240,o),
(280,240,cs),
(374,240,o),
(440,306,o),
(440,400,c)
);
},
{
attr = {
strokeWidth = 76;
};
closed = 0;
nodes = (
(-20,660,l),
(622,660,l)
);
}
);
width = 580;
},
{
associatedMasterId = "7A0DE5E5-1E54-4CA9-B3AD-4FF2FC8A5BCD";
layerId = "393B7303-8CA2-4B87-AAC4-5C7D0F96BFAA";
name = "24 Apr 26 at 12:10";
shapes = (
{
closed = 1;
nodes = (
(400,83,l),
(400,627,l),
(480,627,l),
(480,83,l)
);
},
{
closed = 1;
nodes = (
(480,276,l),
(480,0,l),
(477,0,l),
(360,69,l),
(360,72,l)
);
},
{
closed = 1;
nodes = (
(-142,700,l),
(632,700,l),
(702,620,l),
(-72,620,l)
);
},
{
closed = 1;
nodes = (
(80,660,l),
(160,660,l),
(160,360,ls),
(160,300,o),
(186,270,o),
(240,270,cs),
(334,270,o),
(400,325,o),
(400,404,c),
(480,404,l),
(480,269,o),
(379,221,o),
(278,221,cs),
(135,221,o),
(80,309,o),
(80,420,cs)
);
},
{
closed = 1;
nodes = (
(167,271,o),
(176,280,o),
(187,280,cs),
(198,280,o),
(207,271,o),
(207,260,cs),
(207,248,o),
(198,239,o),
(187,239,cs),
(176,239,o),
(167,248,o),
(167,260,cs)
);
},
{
closed = 1;
nodes = (
(80,476,o),
(98,493,o),
(120,493,cs),
(142,493,o),
(160,476,o),
(160,454,cs),
(160,432,o),
(142,414,o),
(120,414,cs),
(98,414,o),
(80,432,o),
(80,454,cs)
);
},
{
closed = 1;
nodes = (
(371,333,o),
(389,350,o),
(411,350,cs),
(433,350,o),
(451,333,o),
(451,311,cs),
(451,289,o),
(433,271,o),
(411,271,cs),
(389,271,o),
(371,289,o),
(371,311,cs)
);
}
);
width = 580;
}
);
unicode = 2346;
},
{
color = 7;
glyphname = "pha-deva";
lastChange = "2026-04-24 13:31:16 +0000";
layers = (
{
associatedMasterId = "7A0DE5E5-1E54-4CA9-B3AD-4FF2FC8A5BCD";
layerId = "CFAF5A85-C354-4224-9FA4-8EE9BD28BD49";
name = "1";
shapes = (
{
closed = 1;
nodes = (
(-142,700,l),
(812,700,l),
(882,620,l),
(-72,620,l)
);
},
{
closed = 1;
nodes = (
(520,218,l),
(520,220,l),
(622,220,o),
(720,248,o),
(720,369,cs),
(720,434,o),
(671,468,o),
(610,468,cs),
(528,468,o),
(462,407,o),
(460,324,c),
(380,326,l),
(382,434,o),
(467,540,o),
(580,540,cs),
(686,540,o),
(780,449,o),
(780,342,cs),
(780,235,o),
(693,163,o),
(594,144,c)
);
},
{
closed = 1;
nodes = (
(401,83,l),
(401,627,l),
(481,627,l),
(481,83,l)
);
},
{
closed = 1;
nodes = (
(481,207,l),
(481,0,l),
(478,0,l),
(361,69,l),
(361,72,l)
);
},
{
closed = 1;
nodes = (
(81,660,l),
(161,660,l),
(161,390,ls),
(161,327,o),
(176,276,o),
(231,276,cs),
(304,276,o),
(401,367,o),
(401,460,c),
(481,460,l),
(481,295,o),
(370,237,o),
(259,237,cs),
(130,237,o),
(81,305,o),
(81,390,cs)
);
},
{
closed = 1;
nodes = (
(166,279,o),
(175,288,o),
(186,288,cs),
(197,288,o),
(206,279,o),
(206,268,cs),
(206,256,o),
(197,247,o),
(186,247,cs),
(175,247,o),
(166,256,o),
(166,268,cs)
);
},
{
closed = 1;
nodes = (
(81,476,o),
(99,493,o),
(121,493,cs),
(143,493,o),
(161,476,o),
(161,454,cs),
(161,432,o),
(143,414,o),
(121,414,cs),
(99,414,o),
(81,432,o),
(81,454,cs)
);
},
{
closed = 1;
nodes = (
(335,331,o),
(353,348,o),
(375,348,cs),
(397,348,o),
(415,331,o),
(415,309,cs),
(415,287,o),
(397,269,o),
(375,269,cs),
(353,269,o),
(335,287,o),
(335,309,cs)
);
}
);
width = 820;
},
{
layerId = "7A0DE5E5-1E54-4CA9-B3AD-4FF2FC8A5BCD";
shapes = (
{
attr = {
strokeWidth = 80;
};
closed = 0;
nodes = (
(440,660,l),
(440,0,l)
);
},
{
attr = {
strokeWidth = 80;
};
closed = 0;
nodes = (
(440,330,l),
(440,406,o),
(502,460,o),
(590,460,cs),
(690,460,o),
(760,390,o),
(760,290,cs),
(760,188,o),
(688,120,o),
(580,120,c)
);
},
{
attr = {
strokeWidth = 76;
};
closed = 0;
nodes = (
(-20,660,l),
(826,660,l)
);
},
{
attr = {
strokeWidth = 80;
};
closed = 0;
nodes = (
(120,660,l),
(120,400,ls),
(120,306,o),
(186,240,o),
(280,240,cs),
(374,240,o),
(440,306,o),
(440,400,c)
);
}
);
width = 820;
},
{
associatedMasterId = "7A0DE5E5-1E54-4CA9-B3AD-4FF2FC8A5BCD";
layerId = "D84C4857-CE6C-4790-BF50-93D57AF00F7C";
name = "24 Apr 26 at 18:59";
shapes = (
{
closed = 1;
nodes = (
(-142,700,l),
(812,700,l),
(882,620,l),
(-72,620,l)
);
},
{
closed = 1;
nodes = (
(538,218,l),
(538,220,l),
(640,220,o),
(738,248,o),
(738,369,cs),
(738,434,o),
(689,468,o),
(628,468,cs),
(546,468,o),
(480,407,o),
(478,324,c),
(398,326,l),
(400,434,o),
(485,540,o),
(598,540,cs),
(704,540,o),
(798,449,o),
(798,342,cs),
(798,235,o),
(711,163,o),
(612,144,c)
);
},
{
closed = 1;
nodes = (
(400,83,l),
(400,627,l),
(480,627,l),
(480,83,l)
);
},
{
closed = 1;
nodes = (
(480,207,l),
(480,0,l),
(477,0,l),
(360,69,l),
(360,72,l)
);
},
{
closed = 1;
nodes = (
(80,660,l),
(160,660,l),
(160,360,ls),
(160,300,o),
(186,270,o),
(240,270,cs),
(334,270,o),
(400,333,o),
(400,424,c),
(480,424,l),
(480,274,o),
(374,221,o),
(268,221,cs),
(132,221,o),
(80,309,o),
(80,420,cs)
);
}
);
width = 820;
}
);
unicode = 2347;
},
{
color = 7;
glyphname = "ba-deva";
layers = (
{
associatedMasterId = "7A0DE5E5-1E54-4CA9-B3AD-4FF2FC8A5BCD";
layerId = "CFAF5A85-C354-4224-9FA4-8EE9BD28BD49";
name = "1";
shapes = (
{
closed = 1;
nodes = (
(460,133,l),
(460,0,l),
(456,0,l),
(320,80,l),
(320,84,l),
(380,133,l),
(380,627,l),
(460,627,l)
);
},
{
closed = 1;
nodes = (
(384,480,l),
(384,480,o),
(329,494,o),
(268,494,cs),
(166,494,o),
(101,448,o),
(101,350,cs),
(101,278,o),
(143,237,o),
(216,237,cs),
(312,237,o),
(380,295,o),
(380,374,c),
(460,374,l),
(460,275,o),
(390,170,o),
(266,170,cs),
(145,170,o),
(40,269,o),
(40,384,cs),
(40,504,o),
(131,566,o),
(212,566,cs),
(276,566,o),
(338,529,o),
(387,483,c)
);
},
{
closed = 1;
nodes = (
(-142,700,l),
(632,700,l),
(702,620,l),
(-72,620,l)
);
},
{
closed = 1;
nodes = (
(384,480,l),
(384,480,o),
(329,494,o),
(268,494,cs),
(166,494,o),
(101,448,o),
(101,350,cs),
(101,278,o),
(143,237,o),
(216,237,cs),
(312,237,o),
(381,295,o),
(381,374,c),
(461,374,l),
(461,275,o),
(390,170,o),
(266,170,cs),
(145,170,o),
(40,269,o),
(40,384,cs),
(40,504,o),
(131,566,o),
(212,566,cs),
(276,566,o),
(338,529,o),
(387,483,c)
);
},
{
attr = {
strokeWidth = 40;
};
closed = 0;
nodes = (
(366,240,l),
(366,240,o),
(109,497,o),
(109,500,c)
);
}
);
width = 560;
},
{
layerId = "7A0DE5E5-1E54-4CA9-B3AD-4FF2FC8A5BCD";
shapes = (
{
attr = {
strokeWidth = 76;
};
closed = 0;
nodes = (
(-20,660,l),
(580,660,l)
);
},
{
attr = {
strokeWidth = 76;
};
closed = 0;
nodes = (
(394,178,l),
(394,178,o),
(137,435,o),
(137,438,c)
);
},
{
attr = {
strokeWidth = 80;
};
closed = 0;
nodes = (
(420,659,l),
(420,0,l)
);
},
{
attr = {
strokeWidth = 80;
};
closed = 0;
nodes = (
(423,236,l),
(402,174,o),
(336,140,o),
(266,140,cs),
(175,140,o),
(80,197,o),
(80,310,cs),
(80,412,o),
(156,480,o),
(261,480,cs),
(335,480,o),
(402,446,o),
(423,384,c)
);
}
);
width = 560;
}
);
unicode = 2348;
},
{
color = 7;
glyphname = "bha-deva";
lastChange = "2026-04-24 13:02:02 +0000";
layers = (
{
associatedMasterId = "7A0DE5E5-1E54-4CA9-B3AD-4FF2FC8A5BCD";
layerId = "CFAF5A85-C354-4224-9FA4-8EE9BD28BD49";
name = "1";
shapes = (
{
closed = 1;
nodes = (
(259,292,l),
(259,600,l),
(259,626,o),
(206,700,o),
(155,700,c),
(35,700,l),
(96,620,l),
(130,620,o),
(145,620,o),
(179,620,c),
(179,292,l)
);
},
{
closed = 1;
nodes = (
(259,180,l),
(259,280,l),
(553,280,l),
(553,360,l),
(99,360,l),
(99,356,l),
(255,180,l)
);
},
{
closed = 1;
nodes = (
(579,0,l),
(579,207,l),
(459,72,l),
(459,69,l),
(576,0,l)
);
},
{
closed = 1;
nodes = (
(579,83,l),
(579,627,l),
(499,627,l),
(499,83,l)
);
},
{
closed = 1;
nodes = (
(731,620,l),
(661,700,l),
(307,700,l),
(377,620,l)
);
}
);
width = 680;
},
{
layerId = "7A0DE5E5-1E54-4CA9-B3AD-4FF2FC8A5BCD";
shapes = (
{
attr = {
strokeWidth = 80;
};
closed = 0;
nodes = (
(500,659,l),
(500,0,l)
);
},
{
attr = {
strokeWidth = 80;
};
closed = 0;
nodes = (
(499,280,l),
(150,280,ls),
(41,280,o),
(180,121,o),
(180,210,cs),
(180,538,l),
(180,600,o),
(184,660,o),
(120,660,c),
(95,660,o),
(54,660,o),
(30,660,cs)
);
},
{
attr = {
strokeWidth = 76;
};
closed = 0;
nodes = (
(299,660,l),
(688,660,l)
);
}
);
width = 640;
}
);
unicode = 2349;
},
{
color = 7;
glyphname = "ma-deva";
lastChange = "2026-04-24 13:03:28 +0000";
layers = (
{
associatedMasterId = "7A0DE5E5-1E54-4CA9-B3AD-4FF2FC8A5BCD";
layerId = "CFAF5A85-C354-4224-9FA4-8EE9BD28BD49";
name = "1";
shapes = (
{
closed = 1;
nodes = (
(-142,700,l),
(622,700,l),
(692,620,l),
(-72,620,l)
);
},
{
closed = 1;
nodes = (
(200,292,l),
(120,292,l),
(120,640,l),
(200,640,l)
);
},
{
closed = 1;
nodes = (
(494,320,l),
(494,240,l),
(200,240,l),
(200,140,l),
(196,140,l),
(40,316,l),
(40,320,l)
);
},
{
closed = 1;
nodes = (
(440,38,l),
(440,626,l),
(520,626,l),
(520,38,l)
);
},
{
closed = 1;
nodes = (
(520,162,l),
(520,-45,l),
(517,-45,l),
(400,24,l),
(400,27,l)
);
}
);
width = 620;
},
{
layerId = "7A0DE5E5-1E54-4CA9-B3AD-4FF2FC8A5BCD";
shapes = (
{
attr = {
strokeWidth = 76;
};
closed = 0;
nodes = (
(-60,660,l),
(651,660,l)
);
},
{
attr = {
strokeWidth = 80;
};
closed = 0;
nodes = (
(480,659,l),
(480,0,l)
);
},
{
attr = {
strokeWidth = 80;
};
closed = 0;
nodes = (
(160,656,l),
(160,210,ls),
(160,121,o),
(21,280,o),
(130,280,cs),
(479,280,l)
);
}
);
width = 620;
},
{
associatedMasterId = "7A0DE5E5-1E54-4CA9-B3AD-4FF2FC8A5BCD";
layerId = "EA1214C5-A9D0-4F5C-AFB3-05E2E3EBCB0C";
name = "24 Apr 26 at 18:33";
shapes = (
{
closed = 1;
nodes = (
(-142,700,l),
(622,700,l),
(692,620,l),
(-72,620,l)
);
},
{
closed = 1;
nodes = (
(200,292,l),
(120,292,l),
(120,640,l),
(200,640,l)
);
},
{
closed = 1;
nodes = (
(494,360,l),
(494,280,l),
(200,280,l),
(200,180,l),
(196,180,l),
(40,356,l),
(40,360,l)
);
},
{
closed = 1;
nodes = (
(440,82,l),
(440,626,l),
(520,626,l),
(520,82,l)
);
},
{
closed = 1;
nodes = (
(520,206,l),
(520,-1,l),
(517,-1,l),
(400,68,l),
(400,71,l)
);
}
);
width = 620;
}
);
unicode = 2350;
},
{
color = 7;
glyphname = "ya-deva";
layers = (
{
associatedMasterId = "7A0DE5E5-1E54-4CA9-B3AD-4FF2FC8A5BCD";
layerId = "CFAF5A85-C354-4224-9FA4-8EE9BD28BD49";
name = "1";
shapes = (
{
closed = 1;
nodes = (
(100,400,l),
(100,342,o),
(107,220,o),
(290,220,cs),
(432,220,o),
(461,297,o),
(461,340,c),
(541,340,l),
(541,251,o),
(484,140,o),
(300,140,cs),
(140,140,o),
(60,265,o),
(60,400,c)
);
},
{
closed = 1;
nodes = (
(261,659,l),
(261,596,o),
(260,537,o),
(260,472,cs),
(260,318,o),
(167,340,o),
(79,340,c),
(79,376,l),
(125,376,o),
(180,410,o),
(180,451,cs),
(180,513,o),
(179,571,o),
(179,660,c)
);
},
{
closed = 1;
nodes = (
(-161,700,l),
(633,700,l),
(703,620,l),
(-91,620,l)
);
},
{
closed = 1;
nodes = (
(461,102,l),
(461,646,l),
(541,646,l),
(541,102,l)
);
},
{
closed = 1;
nodes = (
(541,226,l),
(541,19,l),
(538,19,l),
(421,88,l),
(421,91,l)
);
}
);
width = 620;
},
{
layerId = "7A0DE5E5-1E54-4CA9-B3AD-4FF2FC8A5BCD";
shapes = (
{
attr = {
strokeWidth = 80;
};
closed = 0;
nodes = (
(80,660,l),
(189,660,o),
(260,600,o),
(260,510,cs),
(260,422,o),
(190,380,o),
(80,380,c)
);
},
{
attr = {
strokeWidth = 80;
};
closed = 0;
nodes = (
(480,660,l),
(480,0,l)
);
},
{
attr = {
strokeWidth = 80;
};
closed = 0;
nodes = (
(80,420,l),
(80,272,o),
(139,160,o),
(290,160,cs),
(429,160,o),
(480,254,o),
(480,320,c)
);
},
{
attr = {
strokeWidth = 76;
};
closed = 0;
nodes = (
(-20,660,l),
(643,660,l)
);
}
);
width = 620;
}
);
unicode = 2351;
},
{
color = 7;
glyphname = "ra-deva";
lastChange = "2026-04-24 13:56:03 +0000";
layers = (
{
associatedMasterId = "7A0DE5E5-1E54-4CA9-B3AD-4FF2FC8A5BCD";
layerId = "CFAF5A85-C354-4224-9FA4-8EE9BD28BD49";
name = "1";
shapes = (
{
closed = 1;
nodes = (
(281,659,l),
(281,596,o),
(280,537,o),
(280,472,cs),
(280,318,o),
(187,340,o),
(79,340,c),
(79,376,l),
(145,376,o),
(200,410,o),
(200,451,cs),
(200,513,o),
(199,571,o),
(199,660,c)
);
},
{
closed = 1;
nodes = (
(40,400,l),
(120,400,l),
(120,131,ls),
(120,65,o),
(135,60,o),
(160,60,cs),
(208,60,o),
(235,105,o),
(250,130,c),
(320,60,l),
(295,27,o),
(255,0,o),
(200,0,cs),
(112,0,o),
(40,78,o),
(40,139,cs)
);
},
{
closed = 1;
nodes = (
(-82,700,l),
(422,700,l),
(492,620,l),
(-12,620,l)
);
}
);
width = 360;
},
{
associatedMasterId = "7A0DE5E5-1E54-4CA9-B3AD-4FF2FC8A5BCD";
layerId = "03E92927-CB11-4CF0-BD1F-74621C2BCE43";
name = "3";
shapes = (
{
closed = 1;
nodes = (
(40,400,l),
(120,400,l),
(120,131,ls),
(120,65,o),
(135,60,o),
(180,60,cs),
(228,60,o),
(255,105,o),
(270,130,c),
(340,60,l),
(315,27,o),
(275,0,o),
(220,0,cs),
(132,0,o),
(40,78,o),
(40,139,cs)
);
},
{
closed = 1;
nodes = (
(216,651,l),
(257,595,o),
(300,546,o),
(300,476,cs),
(300,392,o),
(239,320,o),
(169,320,cs),
(136,320,o),
(88,336,o),
(74,336,c),
(74,364,l),
(178,371,o),
(220,415,o),
(220,496,cs),
(220,543,o),
(207,592,o),
(180,650,c)
);
},
{
closed = 1;
nodes = (
(-82,700,l),
(422,700,l),
(492,620,l),
(-12,620,l)
);
}
);
width = 380;
},
{
associatedMasterId = "7A0DE5E5-1E54-4CA9-B3AD-4FF2FC8A5BCD";
layerId = "82956EC9-8029-4915-A3A7-C866B7025E3C";
name = "2";
shapes = (
{
closed = 1;
nodes = (
(281,659,l),
(281,596,o),
(280,537,o),
(280,472,cs),
(280,318,o),
(187,340,o),
(79,340,c),
(79,376,l),
(136,376,o),
(200,405,o),
(200,451,cs),
(200,513,o),
(199,571,o),
(199,660,c)
);
},
{
closed = 1;
nodes = (
(40,400,l),
(120,400,l),
(120,131,ls),
(120,65,o),
(135,60,o),
(180,60,cs),
(228,60,o),
(255,105,o),
(270,130,c),
(340,60,l),
(315,27,o),
(275,0,o),
(220,0,cs),
(132,0,o),
(40,78,o),
(40,139,cs)
);
},
{
closed = 1;
nodes = (
(-82,700,l),
(422,700,l),
(492,620,l),
(-12,620,l)
);
}
);
width = 380;
},
{
layerId = "7A0DE5E5-1E54-4CA9-B3AD-4FF2FC8A5BCD";
shapes = (
{
attr = {
lineCapStart = 4;
strokeWidth = 80;
};
closed = 0;
nodes = (
(300,0,l),
(272,42,o),
(92,360,o),
(75,393,c)
);
},
{
attr = {
lineCapStart = 4;
strokeWidth = 80;
};
closed = 0;
nodes = (
(140,660,l),
(272,660,o),
(320,593,o),
(320,499,cs),
(320,407,o),
(274,340,o),
(119,340,c)
);
},
{
attr = {
strokeWidth = 76;
};
closed = 0;
nodes = (
(-20,660,l),
(443,660,l)
);
}
);
width = 400;
},
{
associatedMasterId = "7A0DE5E5-1E54-4CA9-B3AD-4FF2FC8A5BCD";
layerId = "7CD58EE3-B953-4EA9-AACB-7F8CAF5FE99F";
name = "24 Apr 26 at 19:17";
shapes = (
{
closed = 0;
nodes = (
(66,388,l,{
"Letterink-NibData" = {
AngleInDegrees = -75;
MainAxisWidth = 57;
ValidForParentMainAxisWidth = 30;
};
}),
(66,181,o),
(128,18,o),
(313,18,c,{
"Letterink-NibData" = {
AngleInDegrees = -75;
MainAxisWidth = 57;
ValidForParentMainAxisWidth = 30;
};
})
);
},
{
closed = 0;
nodes = (
(206,641,l,{
"Letterink-NibData" = {
AngleInDegrees = -75;
MainAxisWidth = 57;
ValidForParentMainAxisWidth = 30;
};
}),
(250,601,o),
(271,552,o),
(271,492,cs,{
"Letterink-NibData" = {
AngleInDegrees = -75;
MainAxisWidth = 57;
ValidForParentMainAxisWidth = 30;
};
}),
(271,389,o),
(211,339,o),
(89,339,cs,{
"Letterink-NibData" = {
AngleInDegrees = -75;
MainAxisWidth = 57;
ValidForParentMainAxisWidth = 30;
};
})
);
},
{
closed = 0;
nodes = (
(-39,660,l,{
"Letterink-NibData" = {
AngleInDegrees = -75;
MainAxisWidth = 127;
ValidForParentMainAxisWidth = 30;
};
}),
(435,660,l,{
"Letterink-NibData" = {
AngleInDegrees = -75;
MainAxisWidth = 127;
ValidForParentMainAxisWidth = 30;
};
})
);
}
);
userData = {
"Letterink-ComputationAllowed" = YES;
};
width = 380;
},
{
associatedMasterId = "7A0DE5E5-1E54-4CA9-B3AD-4FF2FC8A5BCD";
layerId = "D74A648C-6587-4BDE-AF4E-3C669738D234";
name = "24 Apr 26 at 19:19";
shapes = (
{
closed = 1;
nodes = (
(318,41,l),
(151,41,o),
(117,87,o),
(105,327,c),
(129,332,l),
(129,349,o),
(28.142,420.988,o),
(28.142,408.952,cs),
(28,241,o),
(59,-4,o),
(322,-4,c)
);
},
{
closed = 1;
nodes = (
(339,11,o),
(339,91,o),
(322,116,c),
(299,112,o),
(212,70,o),
(173,44,c),
(218,41,l),
(322,-4,l)
);
},
{
closed = 1;
nodes = (
(239,316,o),
(309,366,o),
(309,471,cs),
(309,529,o),
(289,571,o),
(238,618,cs),
(212,642,o),
(146.103,679.84,o),
(174.005,654.14,cs),
(211,620,o),
(233,559,o),
(233,493,cs),
(233,391,o),
(183,339,o),
(77,339,cs),
(67,339,o),
(93,316,o),
(99,316,cs)
);
},
{
closed = 1;
nodes = (
(185.123,620.217,o),
(343.123,620.217,o),
(501.559,620.217,cs),
(519.239,620.217,o),
(390.915,699.783,o),
(368.441,699.783,cs),
(210.877,699.783,o),
(52.877,699.783,o),
(-105.559,699.783,cs),
(-123.239,699.783,o),
(5.085,620.217,o),
(27.559,620.217,cs)
);
}
);
width = 380;
}
);
unicode = 2352;
},
{
color = 7;
glyphname = "la-deva";
lastChange = "2026-04-24 13:33:20 +0000";
layers = (
{
associatedMasterId = "7A0DE5E5-1E54-4CA9-B3AD-4FF2FC8A5BCD";
layerId = "CFAF5A85-C354-4224-9FA4-8EE9BD28BD49";
name = "1";
shapes = (
{
closed = 1;
nodes = (
(274,269,l),
(274,386,o),
(324,455,o),
(408,455,cs),
(499,455,o),
(526,377,o),
(529,377,c),
(529,367,l),
(435,404,o),
(375,386,o),
(375,320,cs),
(375,311,o),
(374,288,o),
(374,228,c)
);
},
{
closed = 1;
nodes = (
(300,0,l),
(177,0,o),
(39,153,o),
(39,299,cs),
(39,388,o),
(109,460,o),
(196,460,cs),
(267,460,o),
(325,412,o),
(325,352,c),
(323,352,l),
(323,365,o),
(272,380,o),
(229,380,cs),
(160,380,o),
(119,342,o),
(119,280,cs),
(119,279,ls),
(119,143,o),
(190,42,o),
(300,42,c)
);
},
{
closed = 1;
nodes = (
(300,1,l),
(125,119,l),
(300,120,l)
);
},
{
closed = 1;
nodes = (
(114,138,o),
(123,147,o),
(134,147,cs),
(145,147,o),
(154,138,o),
(154,127,cs),
(154,116,o),
(145,107,o),
(134,107,cs),
(123,107,o),
(114,116,o),
(114,127,cs)
);
},
{
closed = 1;
nodes = (
(-82,700,l),
(732,700,l),
(802,620,l),
(-12,620,l)
);
},
{
closed = 1;
nodes = (
(520,83,l),
(520,627,l),
(600,627,l),
(600,83,l)
);
},
{
closed = 1;
nodes = (
(600,207,l),
(600,0,l),
(597,0,l),
(480,69,l),
(480,72,l)
);
}
);
width = 700;
},
{
layerId = "7A0DE5E5-1E54-4CA9-B3AD-4FF2FC8A5BCD";
shapes = (
{
attr = {
lineCapEnd = 4;
lineCapStart = 4;
strokeWidth = 80;
};
closed = 0;
nodes = (
(560,661,l),
(560,0,l)
);
},
{
attr = {
lineCapEnd = 4;
lineCapStart = 4;
strokeWidth = 80;
};
closed = 0;
nodes = (
(560,420,l),
(550,420,o),
(535,420,o),
(535,420,cs),
(442,420,o),
(338,403,o),
(338,255,cs),
(338,239,o),
(338,218,o),
(340,200,c)
);
},
{
attr = {
lineCapEnd = 4;
lineCapStart = 4;
strokeWidth = 80;
};
closed = 0;
nodes = (
(210,0,l),
(130,96,o),
(80,175,o),
(80,280,cs),
(80,371,o),
(142,420,o),
(220,420,cs),
(272,420,o),
(344,397,o),
(354,328,c)
);
},
{
attr = {
strokeWidth = 76;
};
closed = 0;
nodes = (
(-20,660,l),
(717,660,l)
);
}
);
width = 700;
},
{
associatedMasterId = "7A0DE5E5-1E54-4CA9-B3AD-4FF2FC8A5BCD";
layerId = "BC97E03D-427F-45E6-BC40-B1FE92569A2B";
name = "24 Apr 26 at 19:02";
shapes = (
{
closed = 1;
nodes = (
(274,269,l),
(274,386,o),
(324,455,o),
(408,455,cs),
(499,455,o),
(526,377,o),
(529,377,c),
(529,367,l),
(435,404,o),
(375,386,o),
(375,320,cs),
(375,311,o),
(374,288,o),
(374,228,c)
);
},
{
closed = 1;
nodes = (
(300,0,l),
(177,0,o),
(39,153,o),
(39,299,cs),
(39,388,o),
(109,460,o),
(196,460,cs),
(267,460,o),
(325,412,o),
(325,352,c),
(323,352,l),
(323,365,o),
(272,380,o),
(229,380,cs),
(160,380,o),
(119,342,o),
(119,280,cs),
(119,279,ls),
(119,143,o),
(190,42,o),
(300,42,c)
);
},
{
closed = 1;
nodes = (
(300,-39,l),
(125,79,l),
(300,80,l)
);
},
{
closed = 1;
nodes = (
(114,138,o),
(123,147,o),
(134,147,cs),
(145,147,o),
(154,138,o),
(154,127,cs),
(154,116,o),
(145,107,o),
(134,107,cs),
(123,107,o),
(114,116,o),
(114,127,cs)
);
},
{
closed = 1;
nodes = (
(-82,700,l),
(732,700,l),
(802,620,l),
(-12,620,l)
);
},
{
closed = 1;
nodes = (
(520,36,l),
(520,627,l),
(600,627,l),
(600,36,l)
);
},
{
closed = 1;
nodes = (
(600,160,l),
(600,-47,l),
(597,-47,l),
(480,22,l),
(480,25,l)
);
}
);
width = 700;
}
);
unicode = 2354;
},
{
color = 7;
glyphname = "va-deva";
lastChange = "2026-04-24 06:51:29 +0000";
layers = (
{
associatedMasterId = "7A0DE5E5-1E54-4CA9-B3AD-4FF2FC8A5BCD";
layerId = "CFAF5A85-C354-4224-9FA4-8EE9BD28BD49";
name = "1";
shapes = (
{
closed = 1;
nodes = (
(378,83,l),
(378,627,l),
(458,627,l),
(458,83,l)
);
},
{
closed = 1;
nodes = (
(458,207,l),
(458,0,l),
(455,0,l),
(338,69,l),
(338,72,l)
);
},
{
closed = 1;
nodes = (
(-142,700,l),
(642,700,l),
(702,620,l),
(-72,620,l)
);
},
{
closed = 1;
nodes = (
(384,453,l),
(384,453,o),
(329,467,o),
(268,467,cs),
(166,467,o),
(101,421,o),
(101,323,cs),
(101,251,o),
(143,210,o),
(216,210,cs),
(312,210,o),
(379,268,o),
(379,347,c),
(459,347,l),
(459,248,o),
(390,143,o),
(266,143,cs),
(145,143,o),
(40,242,o),
(40,357,cs),
(40,477,o),
(131,539,o),
(212,539,cs),
(276,539,o),
(338,502,o),
(387,456,c)
);
}
);
width = 560;
},
{
layerId = "7A0DE5E5-1E54-4CA9-B3AD-4FF2FC8A5BCD";
shapes = (
{
attr = {
strokeWidth = 76;
};
closed = 0;
nodes = (
(-21,660,l),
(579,660,l)
);
},
{
attr = {
strokeWidth = 80;
};
closed = 0;
nodes = (
(420,659,l),
(420,0,l)
);
},
{
attr = {
strokeWidth = 80;
};
closed = 0;
nodes = (
(423,236,l),
(402,174,o),
(336,140,o),
(266,140,cs),
(175,140,o),
(80,197,o),
(80,310,cs),
(80,412,o),
(156,480,o),
(261,480,cs),
(335,480,o),
(402,446,o),
(423,384,c)
);
}
);
width = 560;
},
{
associatedMasterId = "7A0DE5E5-1E54-4CA9-B3AD-4FF2FC8A5BCD";
layerId = "D4D8C94A-98F3-40CC-90C8-AD11D6244D16";
name = "24 Apr 26 at 12:18";
shapes = (
{
closed = 1;
nodes = (
(378,83,l),
(378,627,l),
(458,627,l),
(458,83,l)
);
},
{
closed = 1;
nodes = (
(-142,700,l),
(642,700,l),
(702,620,l),
(-72,620,l)
);
},
{
closed = 1;
nodes = (
(384,433,l),
(384,433,o),
(329,447,o),
(268,447,cs),
(166,447,o),
(101,401,o),
(101,303,cs),
(101,231,o),
(143,190,o),
(216,190,cs),
(312,190,o),
(379,248,o),
(379,327,c),
(459,327,l),
(459,228,o),
(390,123,o),
(266,123,cs),
(145,123,o),
(40,222,o),
(40,337,cs),
(40,457,o),
(131,519,o),
(212,519,cs),
(276,519,o),
(338,482,o),
(387,436,c)
);
},
{
closed = 1;
nodes = (
(458,231,l),
(458,-45,l),
(455,-45,l),
(338,24,l),
(338,27,l)
);
}
);
width = 560;
},
{
associatedMasterId = "7A0DE5E5-1E54-4CA9-B3AD-4FF2FC8A5BCD";
layerId = "0C319593-5F48-4A07-9F23-B59805A99E29";
name = "24 Apr 26 at 12:20";
shapes = (
{
closed = 1;
nodes = (
(378,83,l),
(378,627,l),
(458,627,l),
(458,83,l)
);
},
{
closed = 1;
nodes = (
(458,207,l),
(458,0,l),
(455,0,l),
(338,69,l),
(338,72,l)
);
},
{
closed = 1;
nodes = (
(-142,700,l),
(642,700,l),
(702,620,l),
(-72,620,l)
);
},
{
closed = 1;
nodes = (
(384,433,l),
(384,433,o),
(329,447,o),
(268,447,cs),
(178,447,o),
(121,407,o),
(121,323,cs),
(121,257,o),
(156,220,o),
(216,220,cs),
(312,220,o),
(379,278,o),
(379,357,c),
(459,357,l),
(459,258,o),
(390,153,o),
(266,153,cs),
(156,153,o),
(60,247,o),
(60,357,cs),
(60,464,o),
(140,519,o),
(212,519,cs),
(276,519,o),
(338,482,o),
(387,436,c)
);
}
);
width = 560;
}
);
unicode = 2357;
},
{
color = 7;
glyphname = "sha-deva";
layers = (
{
associatedMasterId = "7A0DE5E5-1E54-4CA9-B3AD-4FF2FC8A5BCD";
layerId = "CFAF5A85-C354-4224-9FA4-8EE9BD28BD49";
name = "1";
shapes = (
{
attr = {
strokeWidth = 80;
};
closed = 0;
nodes = (
(600,627,l),
(600,0,l)
);
},
{
attr = {
strokeWidth = 80;
};
closed = 0;
nodes = (
(295,3,l),
(267,45,o),
(97,338,o),
(80,371,c)
);
},
{
attr = {
strokeWidth = 80;
};
closed = 0;
nodes = (
(220,472,l),
(169,472,o),
(140,510,o),
(140,558,cs),
(140,623,o),
(193,664,o),
(264,664,cs),
(412,664,o),
(410,508,o),
(410,483,cs),
(410,259,o),
(169,301,o),
(104,301,c)
);
},
{
attr = {
strokeWidth = 76;
};
closed = 0;
nodes = (
(478,660,l),
(761,660,l)
);
}
);
width = 740;
},
{
layerId = "7A0DE5E5-1E54-4CA9-B3AD-4FF2FC8A5BCD";
shapes = (
{
attr = {
strokeWidth = 80;
};
closed = 0;
nodes = (
(600,627,l),
(600,0,l)
);
},
{
attr = {
strokeWidth = 80;
};
closed = 0;
nodes = (
(295,3,l),
(267,45,o),
(97,338,o),
(80,371,c)
);
},
{
attr = {
strokeWidth = 80;
};
closed = 0;
nodes = (
(220,472,l),
(169,472,o),
(140,510,o),
(140,558,cs),
(140,623,o),
(193,664,o),
(264,664,cs),
(412,664,o),
(410,508,o),
(410,483,cs),
(410,259,o),
(169,301,o),
(104,301,c)
);
},
{
attr = {
strokeWidth = 76;
};
closed = 0;
nodes = (
(478,660,l),
(761,660,l)
);
}
);
width = 740;
}
);
unicode = 2358;
},
{
color = 7;
glyphname = "ssa-deva";
lastChange = "2026-04-24 06:40:33 +0000";
layers = (
{
associatedMasterId = "7A0DE5E5-1E54-4CA9-B3AD-4FF2FC8A5BCD";
layerId = "CFAF5A85-C354-4224-9FA4-8EE9BD28BD49";
name = "1";
shapes = (
{
closed = 1;
nodes = (
(369,237,o),
(480,295,o),
(480,460,c),
(400,460,l),
(400,367,o),
(303,276,o),
(230,276,cs),
(175,276,o),
(160,327,o),
(160,390,cs),
(160,660,l),
(80,660,l),
(80,390,ls),
(80,305,o),
(129,237,o),
(258,237,cs)
);
},
{
closed = 1;
nodes = (
(480,0,l),
(480,207,l),
(360,72,l),
(360,69,l),
(477,0,l)
);
},
{
closed = 1;
nodes = (
(174,247,o),
(165,256,o),
(165,268,cs),
(165,279,o),
(174,288,o),
(185,288,cs),
(196,288,o),
(205,279,o),
(205,268,cs),
(205,256,o),
(196,247,o),
(185,247,cs)
);
},
{
attr = {
strokeWidth = 40;
};
closed = 0;
nodes = (
(440,306,l),
(440,306,o),
(120,626,o),
(120,629,c)
);
},
{
closed = 1;
nodes = (
(98,414,o),
(80,432,o),
(80,454,cs),
(80,476,o),
(98,493,o),
(120,493,cs),
(142,493,o),
(160,476,o),
(160,454,cs),
(160,432,o),
(142,414,o),
(120,414,cs)
);
},
{
closed = 1;
nodes = (
(352,269,o),
(334,287,o),
(334,309,cs),
(334,331,o),
(352,348,o),
(374,348,cs),
(396,348,o),
(414,331,o),
(414,309,cs),
(414,287,o),
(396,269,o),
(374,269,cs)
);
},
{
closed = 1;
nodes = (
(480,83,l),
(480,627,l),
(400,627,l),
(400,83,l)
);
},
{
closed = 1;
nodes = (
(702,620,l),
(632,700,l),
(-142,700,l),
(-72,620,l)
);
}
);
width = 580;
},
{
layerId = "7A0DE5E5-1E54-4CA9-B3AD-4FF2FC8A5BCD";
shapes = (
{
attr = {
strokeWidth = 80;
};
closed = 0;
nodes = (
(440,306,l),
(440,306,o),
(120,626,o),
(120,629,c)
);
},
{
attr = {
strokeWidth = 80;
};
closed = 0;
nodes = (
(440,660,l),
(440,0,l)
);
},
{
attr = {
strokeWidth = 80;
};
closed = 0;
nodes = (
(120,660,l),
(120,380,ls),
(120,310,o),
(183,240,o),
(280,240,cs),
(350,240,o),
(440,277,o),
(440,380,c)
);
},
{
attr = {
strokeWidth = 76;
};
closed = 0;
nodes = (
(-21,660,l),
(633,660,l)
);
}
);
width = 580;
}
);
unicode = 2359;
},
{
color = 7;
glyphname = "sa-deva";
lastChange = "2026-04-24 13:36:49 +0000";
layers = (
{
associatedMasterId = "7A0DE5E5-1E54-4CA9-B3AD-4FF2FC8A5BCD";
layerId = "03E92927-CB11-4CF0-BD1F-74621C2BCE43";
name = "3";
shapes = (
{
closed = 1;
nodes = (
(489,370,l),
(489,291,l),
(89,316,l),
(89,368,l)
);
},
{
closed = 1;
nodes = (
(40,400,l),
(120,400,l),
(120,131,ls),
(120,65,o),
(135,60,o),
(180,60,cs),
(228,60,o),
(255,105,o),
(270,130,c),
(340,60,l),
(315,27,o),
(275,0,o),
(220,0,cs),
(132,0,o),
(40,78,o),
(40,139,cs)
);
},
{
closed = 1;
nodes = (
(216,651,l),
(257,595,o),
(300,546,o),
(300,476,cs),
(300,392,o),
(239,320,o),
(169,320,cs),
(136,320,o),
(88,336,o),
(74,336,c),
(74,364,l),
(178,371,o),
(220,415,o),
(220,496,cs),
(220,543,o),
(207,592,o),
(180,650,c)
);
},
{
closed = 1;
nodes = (
(-82,700,l),
(652,700,l),
(722,620,l),
(-12,620,l)
);
},
{
alignment = -1;
pos = (399,0);
ref = stemserif.001;
}
);
width = 660;
},
{
associatedMasterId = "7A0DE5E5-1E54-4CA9-B3AD-4FF2FC8A5BCD";
layerId = "82956EC9-8029-4915-A3A7-C866B7025E3C";
name = "2";
shapes = (
{
closed = 1;
nodes = (
(489,388,l),
(489,300,l),
(96,330,l),
(89,386,l)
);
},
{
closed = 1;
nodes = (
(281,659,l),
(281,596,o),
(280,537,o),
(280,472,cs),
(280,318,o),
(187,340,o),
(79,340,c),
(79,376,l),
(136,376,o),
(200,405,o),
(200,451,cs),
(200,513,o),
(199,571,o),
(199,660,c)
);
},
{
closed = 1;
nodes = (
(40,400,l),
(120,400,l),
(120,131,ls),
(120,65,o),
(135,60,o),
(180,60,cs),
(228,60,o),
(255,105,o),
(270,130,c),
(340,60,l),
(315,27,o),
(275,0,o),
(220,0,cs),
(132,0,o),
(40,78,o),
(40,139,cs)
);
},
{
closed = 1;
nodes = (
(-82,700,l),
(652,700,l),
(722,620,l),
(-12,620,l)
);
},
{
closed = 1;
nodes = (
(459,83,l),
(459,627,l),
(539,627,l),
(539,83,l)
);
},
{
closed = 1;
nodes = (
(539,207,l),
(539,0,l),
(536,0,l),
(419,69,l),
(419,72,l)
);
}
);
width = 660;
},
{
associatedMasterId = "7A0DE5E5-1E54-4CA9-B3AD-4FF2FC8A5BCD";
layerId = "CFAF5A85-C354-4224-9FA4-8EE9BD28BD49";
name = "1";
shapes = (
{
closed = 1;
nodes = (
(489,388,l),
(489,300,l),
(96,330,l),
(89,386,l)
);
},
{
closed = 1;
nodes = (
(281,659,l),
(281,596,o),
(280,537,o),
(280,472,cs),
(280,318,o),
(187,340,o),
(79,340,c),
(79,376,l),
(145,376,o),
(200,410,o),
(200,451,cs),
(200,513,o),
(199,571,o),
(199,660,c)
);
},
{
closed = 1;
nodes = (
(40,400,l),
(120,400,l),
(120,131,ls),
(120,65,o),
(135,60,o),
(160,60,cs),
(208,60,o),
(235,105,o),
(250,130,c),
(320,60,l),
(295,27,o),
(255,0,o),
(200,0,cs),
(112,0,o),
(40,78,o),
(40,139,cs)
);
},
{
closed = 1;
nodes = (
(-82,700,l),
(652,700,l),
(722,620,l),
(-12,620,l)
);
},
{
closed = 1;
nodes = (
(440,83,l),
(440,627,l),
(520,627,l),
(520,83,l)
);
},
{
closed = 1;
nodes = (
(520,207,l),
(520,0,l),
(517,0,l),
(400,69,l),
(400,72,l)
);
}
);
width = 620;
},
{
layerId = "7A0DE5E5-1E54-4CA9-B3AD-4FF2FC8A5BCD";
shapes = (
{
attr = {
lineCapStart = 4;
strokeWidth = 80;
};
closed = 0;
nodes = (
(560,676,l),
(560,0,l)
);
},
{
attr = {
lineCapStart = 4;
strokeWidth = 80;
};
closed = 0;
nodes = (
(549,320,l),
(116,320,l)
);
},
{
attr = {
lineCapStart = 4;
strokeWidth = 80;
};
closed = 0;
nodes = (
(301,3,l),
(273,45,o),
(92,360,o),
(75,393,c)
);
},
{
attr = {
lineCapStart = 4;
strokeWidth = 80;
};
closed = 0;
nodes = (
(120,660,l),
(252,660,o),
(300,593,o),
(300,499,cs),
(300,407,o),
(254,340,o),
(99,340,c)
);
},
{
attr = {
strokeWidth = 76;
};
closed = 0;
nodes = (
(-21,660,l),
(749,660,l)
);
}
);
width = 700;
},
{
associatedMasterId = "7A0DE5E5-1E54-4CA9-B3AD-4FF2FC8A5BCD";
layerId = "58973261-06F1-485C-BF90-F22BB3F8A06A";
name = "24 Apr 26 at 19:06";
shapes = (
{
closed = 1;
nodes = (
(489,418,l),
(489,330,l),
(96,330,l),
(89,386,l)
);
},
{
closed = 1;
nodes = (
(281,659,l),
(281,596,o),
(280,537,o),
(280,472,cs),
(280,318,o),
(187,340,o),
(79,340,c),
(79,376,l),
(145,376,o),
(200,410,o),
(200,451,cs),
(200,513,o),
(199,571,o),
(199,660,c)
);
},
{
closed = 1;
nodes = (
(40,400,l),
(120,400,l),
(120,131,ls),
(120,65,o),
(135,60,o),
(160,60,cs),
(208,60,o),
(235,105,o),
(250,130,c),
(320,60,l),
(295,27,o),
(255,0,o),
(200,0,cs),
(112,0,o),
(40,78,o),
(40,139,cs)
);
},
{
closed = 1;
nodes = (
(-82,700,l),
(652,700,l),
(722,620,l),
(-12,620,l)
);
},
{
closed = 1;
nodes = (
(440,83,l),
(440,627,l),
(520,627,l),
(520,83,l)
);
},
{
closed = 1;
nodes = (
(520,207,l),
(520,0,l),
(517,0,l),
(400,69,l),
(400,72,l)
);
}
);
width = 620;
}
);
unicode = 2360;
},
{
color = 7;
glyphname = "ha-deva";
lastChange = "2026-04-24 14:33:45 +0000";
layers = (
{
associatedMasterId = "7A0DE5E5-1E54-4CA9-B3AD-4FF2FC8A5BCD";
layerId = "CFAF5A85-C354-4224-9FA4-8EE9BD28BD49";
name = "1";
shapes = (
{
closed = 1;
nodes = (
(319,643,l),
(399,643,l),
(399,440,l),
(180,440,ls),
(136,440,o),
(110,414,o),
(110,371,cs),
(110,327,o),
(137,278,o),
(169,263,c),
(164,251,l),
(90,269,o),
(40,327,o),
(40,393,cs),
(40,466,o),
(100,520,o),
(180,520,cs),
(319,520,l)
);
},
{
closed = 1;
nodes = (
(381,180,l),
(381,250,o),
(340,281,o),
(275,281,cs),
(190,281,o),
(137,217,o),
(137,114,cs),
(137,33,o),
(170,1,o),
(256,1,cs),
(312,1,o),
(342,20,o),
(381,82,c),
(439,-19,l),
(404,-42,o),
(339,-60,o),
(289,-60,cs),
(167,-60,o),
(60,38,o),
(60,150,cs),
(60,254,o),
(149,340,o),
(255,340,cs),
(371,340,o),
(464,232,o),
(464,150,c)
);
},
{
closed = 1;
nodes = (
(-132,700,l),
(612,700,l),
(682,620,l),
(-62,620,l)
);
}
);
width = 500;
},
{
associatedMasterId = "7A0DE5E5-1E54-4CA9-B3AD-4FF2FC8A5BCD";
layerId = "2AE4E240-912D-487E-90DE-AF61C1C16AB9";
name = "24 Apr 26 at 19:58";
shapes = (
{
closed = 1;
nodes = (
(319,643,l),
(399,643,l),
(399,440,l),
(180,440,ls),
(136,440,o),
(110,414,o),
(110,371,cs),
(110,327,o),
(137,278,o),
(169,263,c),
(164,251,l),
(90,269,o),
(40,327,o),
(40,393,cs),
(40,466,o),
(100,520,o),
(180,520,cs),
(319,520,l)
);
},
{
closed = 1;
nodes = (
(347,180,l),
(370,201,o),
(379,219,o),
(379,235,cs),
(379,263,o),
(349,281,o),
(315,281,cs),
(205,281,o),
(137,217,o),
(137,114,cs),
(137,33,o),
(170,1,o),
(256,1,cs),
(312,1,o),
(342,20,o),
(381,82,c),
(439,-19,l),
(404,-42,o),
(339,-60,o),
(289,-60,cs),
(167,-60,o),
(60,38,o),
(60,150,cs),
(60,254,o),
(149,340,o),
(255,340,cs),
(373,340,o),
(464,278,o),
(464,114,c)
);
},
{
closed = 1;
nodes = (
(-132,700,l),
(612,700,l),
(682,620,l),
(-62,620,l)
);
}
);
width = 500;
},
{
associatedMasterId = "7A0DE5E5-1E54-4CA9-B3AD-4FF2FC8A5BCD";
layerId = "F38C0B5E-20D9-4E59-86BC-12192410BA6E";
name = "24 Apr 26 at 20:03";
shapes = (
{
attr = {
strokeWidth = 80;
};
closed = 0;
nodes = (
(359,643,l),
(359,480,l),
(200,480,ls),
(132,480,o),
(100,434,o),
(100,380,cs),
(100,337,o),
(120,289,o),
(184,254,c)
);
},
{
attr = {
strokeWidth = 80;
};
closed = 0;
nodes = (
(430,130,l),
(437,220,o),
(373,280,o),
(270,280,cs),
(160,280,o),
(100,206,o),
(100,124,cs),
(100,51,o),
(148,-42,o),
(293,-42,cs),
(390,-42,o),
(427,4,o),
(431,6,c)
);
},
{
attr = {
strokeWidth = 76;
};
closed = 0;
nodes = (
(-21,660,l),
(519,660,l)
);
}
);
width = 500;
},
{
layerId = "7A0DE5E5-1E54-4CA9-B3AD-4FF2FC8A5BCD";
name = Regular;
shapes = (
{
attr = {
strokeWidth = 80;
};
closed = 0;
nodes = (
(359,643,l),
(359,480,l),
(180,480,ls),
(112,480,o),
(80,434,o),
(80,380,cs),
(80,337,o),
(100,289,o),
(164,254,c)
);
},
{
attr = {
strokeWidth = 80;
};
closed = 0;
nodes = (
(430,130,l),
(437,232,o),
(373,300,o),
(270,300,cs),
(160,300,o),
(100,221,o),
(100,134,cs),
(100,57,o),
(148,-42,o),
(293,-42,cs),
(390,-42,o),
(427,4,o),
(431,6,c)
);
},
{
attr = {
strokeWidth = 76;
};
closed = 0;
nodes = (
(-21,660,l),
(519,660,l)
);
}
);
width = 500;
}
);
unicode = 2361;
},
{
color = 7;
glyphname = "aasign-deva";
layers = (
{
associatedMasterId = "7A0DE5E5-1E54-4CA9-B3AD-4FF2FC8A5BCD";
layerId = "CFAF5A85-C354-4224-9FA4-8EE9BD28BD49";
name = "1";
shapes = (
{
closed = 1;
nodes = (
(100,84,l),
(100,628,l),
(180,628,l),
(180,84,l)
);
},
{
closed = 1;
nodes = (
(180,208,l),
(180,1,l),
(177,1,l),
(60,70,l),
(60,73,l)
);
},
{
closed = 1;
nodes = (
(-142,700,l),
(322,700,l),
(392,620,l),
(-72,620,l)
);
}
);
width = 280;
},
{
layerId = "7A0DE5E5-1E54-4CA9-B3AD-4FF2FC8A5BCD";
shapes = (
{
attr = {
strokeWidth = 80;
};
closed = 0;
nodes = (
(140,660,l),
(140,660,o),
(140,0,o),
(140,0,c)
);
},
{
attr = {
strokeHeight = 76;
strokeWidth = 80;
};
closed = 0;
nodes = (
(-20,660,l),
(300,660,l)
);
}
);
width = 280;
}
);
unicode = 2366;
},
{
color = 7;
glyphname = "isign-deva";
layers = (
{
associatedMasterId = "7A0DE5E5-1E54-4CA9-B3AD-4FF2FC8A5BCD";
layerId = "CFAF5A85-C354-4224-9FA4-8EE9BD28BD49";
name = "1";
shapes = (
{
attr = {
strokeWidth = 80;
};
closed = 0;
nodes = (
(160,0,l),
(160,231,o),
(160,-20,o),
(160,680,c),
(112,738,o),
(70,829,o),
(130,889,cs),
(197,956,o),
(302,922,o),
(352,879,cs),
(471,776,o),
(501,660,o),
(625,660,c)
);
},
{
attr = {
strokeWidth = 80;
};
closed = 0;
nodes = (
(-20,660,l),
(655,660,l)
);
}
);
width = 359;
},
{
layerId = "7A0DE5E5-1E54-4CA9-B3AD-4FF2FC8A5BCD";
shapes = (
{
attr = {
strokeWidth = 80;
};
closed = 0;
nodes = (
(160,0,l),
(160,231,o),
(160,-20,o),
(160,680,c),
(112,738,o),
(70,829,o),
(130,889,cs),
(197,956,o),
(302,922,o),
(352,879,cs),
(471,776,o),
(501,660,o),
(625,660,c)
);
},
{
attr = {
strokeWidth = 80;
};
closed = 0;
nodes = (
(-20,660,l),
(655,660,l)
);
}
);
width = 359;
}
);
unicode = 2367;
},
{
color = 7;
glyphname = "iisign-deva";
layers = (
{
associatedMasterId = "7A0DE5E5-1E54-4CA9-B3AD-4FF2FC8A5BCD";
layerId = "CFAF5A85-C354-4224-9FA4-8EE9BD28BD49";
name = "1";
shapes = (
{
attr = {
strokeWidth = 80;
};
closed = 0;
nodes = (
(-144,652,l),
(-248,717,o),
(-278,819,o),
(-223,889,cs),
(-174,953,o),
(-59,936,o),
(-6,885,cs),
(45,836,o),
(123,686,o),
(255,658,c)
);
},
{
attr = {
strokeWidth = 80;
};
closed = 0;
nodes = (
(-357,660,l),
(409,660,l)
);
},
{
attr = {
strokeWidth = 80;
};
closed = 0;
nodes = (
(200,680,l),
(200,-20,o),
(200,231,o),
(200,0,c)
);
}
);
width = 380;
},
{
layerId = "7A0DE5E5-1E54-4CA9-B3AD-4FF2FC8A5BCD";
shapes = (
{
attr = {
strokeWidth = 80;
};
closed = 0;
nodes = (
(-144,652,l),
(-248,717,o),
(-278,819,o),
(-223,889,cs),
(-174,953,o),
(-59,936,o),
(-6,885,cs),
(45,836,o),
(123,686,o),
(255,658,c)
);
},
{
attr = {
strokeWidth = 80;
};
closed = 0;
nodes = (
(-357,660,l),
(409,660,l)
);
},
{
attr = {
strokeWidth = 80;
};
closed = 0;
nodes = (
(200,680,l),
(200,-20,o),
(200,231,o),
(200,0,c)
);
}
);
width = 380;
}
);
unicode = 2368;
},
{
color = 7;
glyphname = "usign-deva";
layers = (
{
associatedMasterId = "7A0DE5E5-1E54-4CA9-B3AD-4FF2FC8A5BCD";
layerId = "CFAF5A85-C354-4224-9FA4-8EE9BD28BD49";
name = "1";
shapes = (
{
attr = {
strokeWidth = 80;
};
closed = 0;
nodes = (
(310,-73,l),
(353,7,o),
(465,-49,o),
(447,-130,cs),
(421,-249,o),
(108,-265,o),
(85,-39,c)
);
}
);
width = 521;
},
{
layerId = "7A0DE5E5-1E54-4CA9-B3AD-4FF2FC8A5BCD";
shapes = (
{
attr = {
strokeWidth = 80;
};
closed = 0;
nodes = (
(310,-73,l),
(353,7,o),
(465,-49,o),
(447,-130,cs),
(421,-249,o),
(108,-265,o),
(85,-39,c)
);
}
);
width = 521;
}
);
unicode = 2369;
},
{
color = 7;
glyphname = "uusign-deva";
layers = (
{
associatedMasterId = "7A0DE5E5-1E54-4CA9-B3AD-4FF2FC8A5BCD";
layerId = "CFAF5A85-C354-4224-9FA4-8EE9BD28BD49";
name = "1";
shapes = (
{
attr = {
strokeWidth = 80;
};
closed = 0;
nodes = (
(203,-183,l),
(137,-245,o),
(54,-158,o),
(91,-85,cs),
(153,37,o),
(463,-68,o),
(460,-250,c)
);
}
);
width = 540;
},
{
layerId = "7A0DE5E5-1E54-4CA9-B3AD-4FF2FC8A5BCD";
shapes = (
{
attr = {
strokeWidth = 80;
};
closed = 0;
nodes = (
(203,-183,l),
(137,-245,o),
(54,-158,o),
(91,-85,cs),
(153,37,o),
(463,-68,o),
(460,-250,c)
);
}
);
width = 540;
}
);
unicode = 2370;
},
{
color = 7;
glyphname = "esign-deva";
layers = (
{
associatedMasterId = "7A0DE5E5-1E54-4CA9-B3AD-4FF2FC8A5BCD";
layerId = "CFAF5A85-C354-4224-9FA4-8EE9BD28BD49";
name = "1";
shapes = (
{
attr = {
strokeWidth = 80;
};
closed = 0;
nodes = (
(160,639,l),
(157,756,o),
(124,980,o),
(-51,920,c)
);
}
);
width = 260;
},
{
layerId = "7A0DE5E5-1E54-4CA9-B3AD-4FF2FC8A5BCD";
shapes = (
{
attr = {
strokeWidth = 80;
};
closed = 0;
nodes = (
(160,639,l),
(157,756,o),
(124,980,o),
(-51,920,c)
);
}
);
width = 260;
}
);
unicode = 2375;
},
{
color = 7;
glyphname = "aisign-deva";
layers = (
{
associatedMasterId = "7A0DE5E5-1E54-4CA9-B3AD-4FF2FC8A5BCD";
layerId = "CFAF5A85-C354-4224-9FA4-8EE9BD28BD49";
name = "1";
shapes = (
{
attr = {
strokeWidth = 80;
};
closed = 0;
nodes = (
(125,638,l),
(102,707,o),
(37,824,o),
(-77,824,c)
);
},
{
attr = {
strokeWidth = 80;
};
closed = 0;
nodes = (
(160,645,l),
(157,762,o),
(156,938,o),
(11,955,c)
);
}
);
width = 260;
},
{
layerId = "7A0DE5E5-1E54-4CA9-B3AD-4FF2FC8A5BCD";
shapes = (
{
attr = {
strokeWidth = 80;
};
closed = 0;
nodes = (
(125,638,l),
(102,707,o),
(37,824,o),
(-77,824,c)
);
},
{
attr = {
strokeWidth = 80;
};
closed = 0;
nodes = (
(160,645,l),
(157,762,o),
(156,938,o),
(11,955,c)
);
}
);
width = 260;
}
);
unicode = 2376;
},
{
color = 7;
glyphname = "osign-deva";
layers = (
{
associatedMasterId = "7A0DE5E5-1E54-4CA9-B3AD-4FF2FC8A5BCD";
layerId = "CFAF5A85-C354-4224-9FA4-8EE9BD28BD49";
name = "1";
shapes = (
{
attr = {
strokeWidth = 80;
};
closed = 0;
nodes = (
(160,700,l),
(160,0,o),
(160,231,o),
(160,0,c)
);
},
{
attr = {
strokeWidth = 80;
};
closed = 0;
nodes = (
(-41,660,l),
(360,660,l)
);
},
{
attr = {
strokeWidth = 80;
};
closed = 0;
nodes = (
(160,645,l),
(157,762,o),
(124,980,o),
(-51,920,c)
);
}
);
width = 300;
},
{
layerId = "7A0DE5E5-1E54-4CA9-B3AD-4FF2FC8A5BCD";
shapes = (
{
attr = {
strokeWidth = 80;
};
closed = 0;
nodes = (
(160,700,l),
(160,0,o),
(160,231,o),
(160,0,c)
);
},
{
attr = {
strokeWidth = 80;
};
closed = 0;
nodes = (
(-41,660,l),
(360,660,l)
);
},
{
attr = {
strokeWidth = 80;
};
closed = 0;
nodes = (
(160,645,l),
(157,762,o),
(124,980,o),
(-51,920,c)
);
}
);
width = 300;
}
);
unicode = 2379;
},
{
color = 7;
glyphname = "ausign-deva";
layers = (
{
associatedMasterId = "7A0DE5E5-1E54-4CA9-B3AD-4FF2FC8A5BCD";
layerId = "CFAF5A85-C354-4224-9FA4-8EE9BD28BD49";
name = "1";
shapes = (
{
attr = {
strokeWidth = 80;
};
closed = 0;
nodes = (
(125,638,l),
(102,707,o),
(37,824,o),
(-77,824,c)
);
},
{
attr = {
strokeWidth = 80;
};
closed = 0;
nodes = (
(160,700,l),
(160,0,o),
(160,231,o),
(160,0,c)
);
},
{
attr = {
strokeWidth = 80;
};
closed = 0;
nodes = (
(-163,660,l),
(360,660,l)
);
},
{
attr = {
strokeWidth = 80;
};
closed = 0;
nodes = (
(160,645,l),
(157,762,o),
(156,938,o),
(11,955,c)
);
}
);
width = 321;
},
{
layerId = "7A0DE5E5-1E54-4CA9-B3AD-4FF2FC8A5BCD";
shapes = (
{
attr = {
strokeWidth = 80;
};
closed = 0;
nodes = (
(125,638,l),
(102,707,o),
(37,824,o),
(-77,824,c)
);
},
{
attr = {
strokeWidth = 80;
};
closed = 0;
nodes = (
(160,700,l),
(160,0,o),
(160,231,o),
(160,0,c)
);
},
{
attr = {
strokeWidth = 80;
};
closed = 0;
nodes = (
(-163,660,l),
(360,660,l)
);
},
{
attr = {
strokeWidth = 80;
};
closed = 0;
nodes = (
(160,645,l),
(157,762,o),
(156,938,o),
(11,955,c)
);
}
);
width = 321;
}
);
unicode = 2380;
},
{
glyphname = stemserif.001;
lastChange = "2026-04-24 06:28:30 +0000";
layers = (
{
associatedMasterId = "7A0DE5E5-1E54-4CA9-B3AD-4FF2FC8A5BCD";
layerId = "763198BF-8283-4661-BE37-168C000EEDEC";
name = "ीाुहतोी";
shapes = (
{
closed = 1;
nodes = (
(140,133,l),
(140,0,l),
(136,0,l),
(0,80,l),
(0,84,l),
(60,133,l),
(60,627,l),
(140,627,l)
);
}
);
width = 140;
},
{
layerId = "7A0DE5E5-1E54-4CA9-B3AD-4FF2FC8A5BCD";
width = 600;
}
);
},
{
glyphname = pa_bowl;
layers = (
{
layerId = "7A0DE5E5-1E54-4CA9-B3AD-4FF2FC8A5BCD";
shapes = (
{
closed = 1;
nodes = (
(0,660,l),
(80,660,l),
(80,390,ls),
(80,327,o),
(95,276,o),
(150,276,cs),
(223,276,o),
(320,367,o),
(320,460,c),
(400,460,l),
(400,295,o),
(289,237,o),
(178,237,cs),
(49,237,o),
(0,305,o),
(0,390,cs)
);
},
{
closed = 1;
nodes = (
(85,279,o),
(94,288,o),
(105,288,cs),
(116,288,o),
(125,279,o),
(125,268,cs),
(125,256,o),
(116,247,o),
(105,247,cs),
(94,247,o),
(85,256,o),
(85,268,cs)
);
},
{
closed = 1;
nodes = (
(0,476,o),
(18,493,o),
(40,493,cs),
(62,493,o),
(80,476,o),
(80,454,cs),
(80,432,o),
(62,414,o),
(40,414,cs),
(18,414,o),
(0,432,o),
(0,454,cs)
);
},
{
closed = 1;
nodes = (
(254,331,o),
(272,348,o),
(294,348,cs),
(316,348,o),
(334,331,o),
(334,309,cs),
(334,287,o),
(316,269,o),
(294,269,cs),
(272,269,o),
(254,287,o),
(254,309,cs)
);
}
);
width = 253;
}
);
},
{
glyphname = stemserif;
layers = (
{
layerId = "7A0DE5E5-1E54-4CA9-B3AD-4FF2FC8A5BCD";
shapes = (
{
closed = 1;
nodes = (
(40,83,l),
(40,627,l),
(120,627,l),
(120,83,l)
);
},
{
closed = 1;
nodes = (
(120,207,l),
(120,0,l),
(117,0,l),
(0,69,l),
(0,72,l)
);
}
);
width = 120;
}
);
},
{
glyphname = Daa;
layers = (
{
layerId = "7A0DE5E5-1E54-4CA9-B3AD-4FF2FC8A5BCD";
shapes = (
{
closed = 1;
nodes = (
(360,661,l),
(440,661,l),
(440,440,l),
(220,440,ls),
(131,440,o),
(100,424,o),
(100,378,cs),
(100,335,o),
(128,320,o),
(208,320,cs),
(224,320,o),
(337,320,o),
(337,320,cs),
(445,320,o),
(516,254,o),
(516,154,cs),
(516,51,o),
(439,0,o),
(283,0,cs),
(105,0,o),
(39,83,o),
(39,281,c),
(134,200,l),
(106,156,o),
(99,140,o),
(99,140,c),
(99,140,o),
(92,80,o),
(261,80,cs),
(393,80,o),
(472,117,o),
(472,180,cs),
(472,221,o),
(439,240,o),
(368,240,cs),
(300,240,o),
(273,240,o),
(273,240,cs),
(144,240,o),
(57,304,o),
(57,392,cs),
(57,468,o),
(123,520,o),
(220,520,cs),
(360,520,l)
);
}
);
width = 333;
}
);
},
{
glyphname = Aa_bowl;
layers = (
{
layerId = "7A0DE5E5-1E54-4CA9-B3AD-4FF2FC8A5BCD";
shapes = (
{
closed = 1;
nodes = (
(63,644,l),
(83,675,o),
(143,700,o),
(196,700,cs),
(300,700,o),
(396,602,o),
(396,495,cs),
(396,401,o),
(321,340,o),
(203,340,c),
(143,420,l),
(285,420,o),
(330,447,o),
(330,532,cs),
(330,601,o),
(301,630,o),
(233,630,cs),
(187,630,o),
(133,609,o),
(133,580,c)
);
},
{
closed = 1;
nodes = (
(21,243,l),
(44,179,o),
(113,89,o),
(215,89,cs),
(311,89,o),
(363,136,o),
(363,224,cs),
(363,303,o),
(321,363,o),
(265,362,c),
(265,384,l),
(358,384,o),
(440,297,o),
(440,197,cs),
(440,97,o),
(357,20,o),
(247,20,cs),
(94,20,o),
(26,156,o),
(0,231,c)
);
}
